<?xml version="1.0" encoding="UTF-8"?>
<svg id="Layer_1" data-name="Layer 1" xmlns="http://www.w3.org/2000/svg" viewBox="0 0 9235.95 2853.27">
  <defs>
    <style>
      .cls-1 {
        fill: #212827;
      }

      .cls-2 {
        fill: #3d321b;
      }

      .cls-3 {
        fill: #6d5a32;
      }

      .cls-4 {
        fill: #47473b;
      }

      .cls-5 {
        fill: #3a433f;
      }

      .cls-6 {
        fill: #dcb968;
      }

      .cls-7 {
        fill: #585038;
      }

      .cls-8 {
        fill: #092f57;
        stroke-width: 155.96px;
      }

      .cls-8, .cls-9 {
        stroke: #0a3058;
        stroke-miterlimit: 10;
      }

      .cls-10 {
        fill: #997737;
      }

      .cls-11 {
        fill: #73643f;
      }

      .cls-12 {
        fill: #283c4a;
      }

      .cls-13 {
        fill: #f1d082;
      }

      .cls-14 {
        fill: #d4b161;
      }

      .cls-15 {
        fill: #535141;
      }

      .cls-16 {
        fill: #324047;
      }

      .cls-17 {
        fill: #ac7e2c;
      }

      .cls-18 {
        fill: #11304e;
      }

      .cls-19 {
        fill: #84703d;
      }

      .cls-9 {
        fill: none;
        stroke-width: 346.58px;
      }

      .cls-20 {
        fill: #293a46;
      }

      .cls-21 {
        fill: #5b4b25;
      }

      .cls-22 {
        fill: #b17f28;
      }

      .cls-23 {
        fill: #916f2f;
      }

      .cls-24 {
        fill: #d7b261;
      }

      .cls-25 {
        fill: #4e4f3f;
      }

      .cls-26 {
        isolation: isolate;
        opacity: .75;
      }

      .cls-26, .cls-27 {
        fill: #c8a047;
      }

      .cls-28 {
        fill: #c4a051;
      }

      .cls-29 {
        fill: #8f7238;
      }

      .cls-30 {
        fill: #907842;
      }

      .cls-31 {
        fill: #313f45;
      }

      .cls-32 {
        fill: #303c42;
      }

      .cls-33 {
        fill: #b6944b;
      }

      .cls-34 {
        fill: #504c37;
      }

      .cls-35 {
        fill: #f4d589;
      }

      .cls-36 {
        fill: #e6c270;
      }

      .cls-37 {
        fill: #343930;
      }

      .cls-38 {
        fill: #826b3b;
      }

      .cls-39 {
        fill: #233947;
      }

      .cls-40 {
        fill: #50482b;
      }

      .cls-41 {
        fill: #233744;
      }

      .cls-42 {
        fill: #6f623e;
      }

      .cls-43 {
        fill: #9c8144;
      }

      .cls-44 {
        fill: #565543;
      }

      .cls-45 {
        fill: #edcb7b;
      }

      .cls-46 {
        fill: #1b354b;
      }

      .cls-47 {
        fill: #a5792c;
      }

      .cls-48 {
        fill: #a4731c;
      }

      .cls-49 {
        fill: #4c3a1a;
      }

      .cls-50 {
        fill: #2a3d47;
      }

      .cls-51 {
        fill: #3d4746;
      }

      .cls-52 {
        fill: #967230;
      }

      .cls-53 {
        fill: #203649;
      }

      .cls-54 {
        fill: #79663d;
      }

      .cls-55 {
        fill: #5d583d;
      }

      .cls-56 {
        fill: #1a2224;
      }

      .cls-57 {
        fill: #8d6b2c;
      }

      .cls-58 {
        fill: #4a4d42;
      }

      .cls-59 {
        fill: #8c6b2a;
      }

      .cls-60 {
        fill: #6b5e3d;
      }

      .cls-61 {
        fill: #052851;
      }

      .cls-62 {
        fill: #9c7329;
      }

      .cls-63 {
        fill: #3a423e;
      }

      .cls-64 {
        fill: #20374a;
      }

      .cls-65 {
        fill: #816f40;
      }

      .cls-66 {
        fill: #293332;
      }

      .cls-67 {
        fill: #755518;
      }

      .cls-68 {
        fill: #18334b;
      }

      .cls-69 {
        fill: #5c5235;
      }

      .cls-70 {
        fill: #6a5521;
      }

      .cls-71 {
        fill: #645c41;
      }

      .cls-72 {
        fill: #79663b;
      }

      .cls-73 {
        fill: #a17930;
      }

      .cls-74 {
        fill: #a68947;
      }

      .cls-75 {
        fill: #e4c06d;
      }

      .cls-76 {
        fill: #45412c;
      }

      .cls-77 {
        fill: #ceab5d;
      }

      .cls-78 {
        fill: #665c3a;
      }

      .cls-79 {
        fill: #3f4744;
      }

      .cls-80 {
        fill: #7d5b17;
      }

      .cls-81 {
        fill: #19344c;
      }

      .cls-82 {
        fill: #1b3347;
      }

      .cls-83 {
        fill: #ae8d48;
      }

      .cls-84 {
        fill: #4c4f45;
      }

      .cls-85 {
        fill: #ba994f;
      }

      .cls-86 {
        fill: #1e2d32;
      }

      .cls-87 {
        fill: #092238;
      }

      .cls-88 {
        fill: #4c4b3b;
      }

      .cls-89 {
        fill: #987e42;
      }

      .cls-90 {
        fill: #474739;
      }

      .cls-91 {
        fill: #243744;
      }

      .cls-92 {
        fill: #5f5840;
      }

      .cls-93 {
        fill: #2c3b42;
      }

      .cls-94 {
        fill: #dbb868;
      }

      .cls-95 {
        fill: #c9a657;
      }

      .cls-96 {
        fill: #665734;
      }

      .cls-97 {
        fill: #8f7036;
      }

      .cls-98 {
        fill: #113150;
      }

      .cls-99 {
        fill: #3a413e;
      }

      .cls-100 {
        fill: #7e622f;
      }

      .cls-101 {
        fill: #3e4744;
      }

      .cls-102 {
        fill: #9e7731;
      }

      .cls-103 {
        fill: #fadc8e;
      }

      .cls-104 {
        fill: #846b39;
      }
    </style>
  </defs>
  <rect class="cls-8" x="2205.14" y="45.66" width="166.7" height="1124.64" transform="translate(2896.4729 -1680.5101) rotate(90)"/>
  <rect class="cls-8" x="2213.31" y="100.66" width="188.59" height="1828.26"/>
  <g>
    <path class="cls-61" d="M2144.16,1437.22c19.36,10.99,14.82,43.42-.74,55.65,17.45.61,16.94,19.44.77,24.14,12.24,24.03,15.98,51.85,11.22,83.46l-11.8,8.05-.07,45.96.37,195.55c.03,13.83,2.01,30.43-7.05,41.43-6.78-7.41-5.53-14.24.41-23.85-6-47.55-4.58-99.69.14-146.39-4.93-43.46-4.6-96.11.01-140.86-4.8-46.26-4.66-99.83,0-146.63-5.06-5.72-4.11-22.08,0-29.33,1.62-5.12,3.53-5.05,5.72,0,17.61.06,17.41,28.86,1.01,32.82Z"/>
    <path class="cls-96" d="M2273.39,601.57c7.71,3.34,11.57,5.01,11.57,5.01-6.28,5.28-10.5,13.37-12.66,24.28-10.24-1.62-15.36-2.43-15.36-2.43-52.24,22.84-95.64,54.87-130.2,96.1l-36.31.04c-4.99-1.57-8.57-3.96-10.72-7.17,5.94-35.06,36.79-72.78,72.15-86.81,25.55-29.25,99.87-79.97,121.53-29.02Z"/>
    <path class="cls-23" d="M2272.3,630.86c5.24,9.25,4.78,29.72.23,40.34,1.05,11.38-3.57,11.35-6.97-.01-4.34-9.72-6.48-7.98-6.44,5.21-22.14,2.07-104.4,32-79.52,56.47l.94,9.42c-21.91,19.57-34.05,18.08-37.22-12.77-1.38,5.29-3.56,5.41-6.52.64-2.34-2.42-6.54-5.62-10.07-5.62l-12.42-8.73c26.57-32.62,57.45-51.51,90.59-71.43,19.01-11.42,34.3-25.01,59.65-30.06,1.38,4.79,3.41,11.48,7.74,16.54Z"/>
    <path class="cls-21" d="M2143.12,999.11c15.64,9.26,18.66,49.16-.34,54.8,17.37,7.89,19.27,55.7.96,62.33-2.48,33.9-4.59,67.39-6.33,100.46,6.09,58.13,4.59,127.49,0,187.71v29.33c-1.69,5.11-3.64,5.03-5.86-.03l3.01-319.45,2.94-132.19c1.67-5.12,3.62-5.04,5.83.02,17.1-.31,15.59,13.11-.22,17.03Z"/>
    <path class="cls-67" d="M2143,776.81c12.45,13.04,21.03,51.54.41,58.63,2.51.59,4.61,1.36,5.24,2.78,2.08,4.71,4.37,15.48,5.27,21,3.11,19.14,6.11,70.71-11.31,77.68,15.98,8.53,19,39.47.74,45.18l-5.83-.02-.7-251.91,6.52-.64c16.39,22.56,16.29,38.33-.33,47.3Z"/>
    <path class="cls-64" d="M2137.41,1580.37c-1.64,5.12-3.59,5.05-5.83,0l-.03-146.67,5.86.03v146.63Z"/>
    <polygon class="cls-98" points="2137.4 1721.22 2131.41 1721.15 2131.59 1580.37 2137.41 1580.37 2137.4 1721.22"/>
    <path class="cls-56" d="M1949.47,718.13c12.93-11.49,35.13-22.5,43.46-1.17,10.18-12.73,28.28-18.93,33.94.71,4.17,2.74,3.78,4.85-1.04,6.34l-93.98-.02v-5.86c.39-16.78,13.66-16.03,17.63,0Z"/>
    <path class="cls-2" d="M2048.6,717.8c11.94-10.33,18.16-10.59,18.67-.76,5.97-9.7,9.88-11.81,12.44.36,5.28.15,9.63,1.72,10.72,7.17l-64.61-.56c-.27-2.14.27-4.78,1.04-6.34,10.09-12.91,15.71-18.04,21.73.12Z"/>
    <path class="cls-57" d="M2479.11,717.31c.78,3.11-1.51,5.51-6.87,7.2l-1.39,598.04c-10.47-4.7-7.8-29.71-5.34-41.33-5.38-25.98-4.31-61.41.66-87.96-4.81-39.35-4.48-88.37.05-129.05-4.4-48.35-3.98-103.58-.19-152.57-4.21-61.51-5.38-124.43-3.53-188.77l-13.21-2.09c-8.77-15.29-24.25-26.42-46.43-33.38-2.26,4.45-5.53,7.87-9.5,6.88-21.56-5.33-39.13-15.78-56.23-29.31-8.26-11.94-8.61-17.4-1.06-16.38,3.25-25.13,23.97-16.77,41.99-8.49,27.64,9.79,100.08,48.83,101.05,77.21Z"/>
    <path class="cls-86" d="M2470.85,1322.55l-1.14,363.94-3.5-82.68c-1.91-75.9-3.8-152.15-5.68-228.75-16.9-2.2-16.9-14.59-1-19.9-17.75-.3-17.23-39.92.14-43.91-15.59-7.85-17.33-23.92.88-30.05,1.08-5.15,2.75-5.02,4.97.02l5.34,41.33Z"/>
    <path class="cls-49" d="M2502.72,717.66c-1.74-9.46,6.52-9.68,24.78-.66-.86-15.95,12.77-15.91,18.51-2.06,0,0,8.77.88,26.32,2.63,5.05,2.07,4.87,4.22-.28,6.43l-99.81.49c0-3.87,2.76-7.26,6.87-7.2-2.06-8.57,5.81-8.46,23.61.35Z"/>
    <path class="cls-1" d="M2607.65,717.94c-2.49-16.68,6.9-11.57,15.78-1.15,4.43-19.46,21.04-11.37,30.86,1.28v5.93s-82.24.01-82.24.01l.28-6.43c1.22-10.36,13-10.24,35.32.36Z"/>
    <path class="cls-82" d="M2731.11,718h-41.16s-10.61-6.21-10.61-6.21c-29.67-42.14-60.13-84.87-91.37-128.21-62.6-67.92-168.15-117.72-259.53-130.69-27.62-3.92-44.2-5.48-70.98,7.22-120.58,13.61-230.03,96.16-296.4,196.45l-13.84,8.53c12.18-.71-8.9,40.72-10.68,42.46-10.77,10.53-32.6,9.26-46.61,4.56-5.07-13.3,8.53-23.77,12.15-34.53,13.37-39.72,35.08-67.7,60.63-99.11,20.56-25.28,41.8-44.84,70.55-64.36l44.93-30.5,71.95-40.53,44.47-8.14,50.41-13.69c16.74-4.55,21.77-8.55,36.8-.03,26.32,14.91,62.41-3.63,88.1.53,23.23,3.76,37.62,7.75,59.32,8.22,32.83.71,100.1,57.61,139.78,84.34,36.76,24.77,64.67,53.4,86.67,91.59l27.66,48.04c9.97,17.31,25.03,26.96,27.49,49.95,3.06,5.63,16.17,10.63,20.26,14.14Z"/>
    <path class="cls-39" d="M1966.62,663.62c10.83-1.43,10.73,4.77-.29,18.61,17.79,16.83,5.27,32.58-16.86,35.91h-17.62s-52.86,0-52.86,0l.05-5.88,10.89-.15,35.29-.97c-2.58-22.69,14.51-32.68,22.01-46.05,10.79-11.92,17.26-12.41,19.4-1.46Z"/>
    <path class="cls-98" d="M2272.02,1544.58c4.03,4.01,5.25,12.09,3.65,24.24,13.39,1.59,9.84,5.46-2.69,10.74-.1,19.11,4.18,32,12.85,38.68l4.15,43.43c17.7-.87,33.53,1.32,47.48,6.59l-.85,64.23-55.67-2.21c-11.98-26.07-8.05-49.86-7.26-83.6-18.89,9.94-32.18,2.95-48.53-1.32-30.41-7.95-60.73-14.61-81.53-36.82l.58-91.51,12.77-4.25c27.21,29.01,58.11,46.13,92.7,51.38,6.19-16.54,13.64-23.06,22.37-19.57Z"/>
    <path class="cls-18" d="M2460.46,1521.72c5.06,23.25,4.76,56.91-.31,81.27-41.19,18-35.37,55.61-111.59,37.71-6.36-1.49-10.8,8.23-11.58,10.97-11.07.97-15.15-8.19-12.25-27.47,7.44-4.42,11.19-13.72,11.24-27.9-18.11-1.55-13.4-21.42,2.93-25.54,10.79-9.62,26.06-16.24,45.81-19.84,14.62-21.42,54.27-46.81,75.75-29.19Z"/>
    <path class="cls-46" d="M2335.96,1596.29l1.01,55.38.49,16.59c-15.48,10.54-36.79,6.08-57.73,4.14-6.02-32.5-5.91-62.12-6.75-92.84l14.99,3.74c-.09,23.98,15.91,28.32,47.99,13Z"/>
    <path class="cls-68" d="M2272.51,1451.33c5.52,17.72,4.95,45.96-.03,64.52,5.61,3.73,5.06,22.82-.45,28.73-5.43,2.77-4.7,15.45-8.31,21.54-18.76,31.65-81.21-13.66-119.52-49.11l-.77-24.14c3.81-27.67,22.18-24.13,44.83-17.5,20.85,11.76,42.48,20.48,64.89,26.16-1.36-18.06,3.48-29.05,14.52-32.95-20.92-4.83-16.73-31.65,4.86-28.99,5.15,1.37,4.6,8.72,0,11.73Z"/>
    <path class="cls-12" d="M2265.3,1397.92c-4.9-2.04-4.45-3.79.93-5.25,1.8-5.12,3.9-5.04,6.28,0,6.22,11.71,4.81,34.36,0,46.93-10.14,6.77-4.48,19.84-4.86,28.99-7.72,34.55-96.27-5.66-119.76-17.55l-3.73-13.81-1.01-32.82c-4.94-5.84-4.23-22.16.02-29.32,9.73-12.55,23.81-10.28,42.23,6.81,48.5,48.52,71.93,57.11,70.28,25.76l9.63-9.73Z"/>
    <path class="cls-64" d="M2267.64,1468.58c-.65,15.39-3.17,30.49.68,45.36-57.52,2.97-90.92-54.08-124.91-21.07l.74-55.65,94.4,34.93c8.96,3.52,22-3.01,29.08-3.57Z"/>
    <path class="cls-66" d="M2144.61,1221.17c17.62,6.53,17.6,58.77-.72,64.77,18.85,4.19,16.7,46.71.02,53.21,17.64.56,16.06,33.24-.75,35.92l-.02,29.32h-5.72s0-187.7,0-187.7c-1.05-11.35,3.49-11.34,6.79,0,5.21-.19,5.14,1.37.41,4.46Z"/>
    <path class="cls-87" d="M2439.91,1619.83c-2.12-.59,21.76-16.41,20.23-16.85l.31-81.27c-18.7-3.06-16.1-43.66.3-50.69-18.85-1.15-18.2-56.61-.9-61.56-17.43-.4-16.39-30.79.67-34.41,2.19-.37,5.84,2.09,5.84,6.27l-26.45,238.51Z"/>
    <path class="cls-69" d="M2265.35,572.51c3.34.81,5.74,4.38,7.2,10.7,5.89-.05,4.97,9.61.65,13.34,5.2.88,5.14,2.57.19,5.02-35.88-32.95-75.59-1.61-117.31,35.76-53.33,20.03-52.22,62.56-76.37,80.07l-12.44-.36c-5.45-28.79,19.87-58.5,41.75-78.4,26.14-23.76,111.96-85.77,146.22-77.31,5.06,1.25,8.04,6.27,10.11,11.18Z"/>
    <path class="cls-85" d="M2336.82,601.15c16.75,2.64,16.56,15.04.43,19.96,11.19,1.98,10.68,6.44-.69,8.79-30.57,3.06-45.85,4.59-45.85,4.59.22,8.05-3.62,11.27-12.22,13.24,6.99.8,4.24,17.77-.1,23.48-1.66,5.12-3.62,5.05-5.86,0l-.23-40.34,1.09-29.29-.19-5.02c1.16-5.29,3.19-5.43,6.06-.68,3.56-5.41,10.88-6.69,21.95-3.87,24.01-8.77,35.89-5.73,35.61,9.13Z"/>
    <path class="cls-73" d="M2265.56,671.19c5.31,2.22,5.13,9.22.6,12.33-4.47,12.01-17.48,19.7-39.05,23.07-19.28,5.22-22.29,16.87-9.04,34.94-.49,40.81,3.66,93.88,42.28,116.05l5.56,26.42c5.66,8.13,5.09,32.7-.11,43.75-13.29,20.92-54.65-24.9-65.94-39.16-12.39-15.65-24.73-46.9-22.07-66.98-.69-16.74-11.65-30.34-23.44-41.38-6.67,14.15-8.95,11.43-11.35-3.42l.33-47.3c3.51,3.77,6.33,8.05,8.78,16.18,5.72-3.74,10.84-4.61,21.61-5.76-6.97-5.74-12.37-11.77-13-19.05-.55-6.43,6.62-14.48,13.79-18.39l54.23-29.6c8.67-4.73,28.25,3.85,35.08-14.14,2,4.96,2.02,7.95,1.75,12.44Z"/>
    <path class="cls-48" d="M2272.51,870.63c-1.77,5.13-3.84,5.05-6.19,0-5.11-1.85-10.06-6.77-11.76-12.4-2.4-7.96-4.03-158.88-.13-166.23,2.42-4.56,7-6.98,11.74-8.49l-.6-12.33h6.97c4.58,63.6,5.86,135.87-.02,199.45Z"/>
    <path class="cls-38" d="M2265.66,1068.55c6.21,11.4,5.3,39.06,1.01,54.32l-11.8,6.38c-52.34-18.82-88.91-83.87-111.75-130.14l.22-17.03-.74-45.18c8.81-16.16,21.85-5.46,33.07,5.57,22.82,42.94,50.91,79.49,84.29,109.67l5.69,16.4Z"/>
    <path class="cls-11" d="M2272.51,1158.05c-2.11,15.95-4.05,31.52-5.83,46.7l-12.04,5.64c-38.01-30.45-74.98-61.84-110.9-94.14l-.96-62.33c6.79-10.67,13.64-11.71,23.02-3.87,26.45,32.47,55.5,61.89,87.15,88.26,1.14-8.82,3.38-13.78,13.72-15.42l-1.01-54.32c-12.38-10.93-18.08-22.5,1.04-27.81,1.64-5.12,3.58-5.05,5.81,0,4.42,36.37,5.21,80.79,0,117.31Z"/>
    <path class="cls-54" d="M2266.67,1122.87l-2.05,33.78c-25.97-9.75-47.09-27.29-61.01-52.91-26-17.26-37.11-49.77-60.83-49.83l.34-54.8c31.03-.3,34.22,66.73,73.48,91.7l50.07,32.06Z"/>
    <path class="cls-76" d="M2143.91,1174.52c17.08,3.85,17.77,37.72.29,42.19h-6.79s-.39-88.39-.39-88.39c-.03-7.24,3.42-9.63,6.73-12.07,18.48,3.38,17.58,53.6.16,58.28Z"/>
    <path class="cls-29" d="M2155.37,840.17l13.52,2.51c22.38,30.13,40.32,62.59,53.81,97.38,27.35,23.17,41.38,47.63,43.68,83.73,5.3-.12,4.43,12.76.32,16.96l-1.04,27.81c-75.04-35.67-74.33-123.61-123.05-131.65l.81-101.46c7.57-15.66,15.19-12.44,11.95,4.73Z"/>
    <path class="cls-23" d="M2154.35,780.23c22.39,14.61,41.03,72.15,1.01,59.94-1.17-3.63-8.49-5.22-11.95-4.73l-.41-58.63,11.35,3.42Z"/>
    <path class="cls-93" d="M2272.85,483.86c13.11,1.29,12.95,9.5-.47,24.65,11.48.87,11.88,5.63,1.16,10.17-30.83-3.59-48.98,5.12-76.78,19.59l-25.74,3.67c-74.74,38.4-127.43,91.66-160.77,168.2l-17.33,6.83-43.46,1.17c10.79-8.54,14.09-22.65,16.86-35.91,18.22-46.87,46.1-74.44,82.94-106,47.32-40.54,115.64-88.3,177.63-100.64,9.61-1.91,49.04-2.54,45.96,8.28Z"/>
    <path class="cls-63" d="M2273.55,518.68c6.37-1.39,5.72,3.15-1.96,13.63,15.66-.5,15.85,3.18.56,11.05-29.08-6.7-65.47,9.46-93.44,23.94-59.23,30.66-117.18,76.99-136.82,143.41l-15.02,6.95-33.94-.71,23.89-42.36c14.04-24.67,21.45-44.55,43-64.36,7.9-7.27,11.91-23.92,29.02-22.76,22.96-23.57,49.58-40.83,78.83-56.57,22.77-.34,42.43-7.88,59.68-21.25,18.19-5.31,35.91-4.23,46.19,9.03Z"/>
    <path class="cls-90" d="M2272.14,543.36c3.42.38,3.81,4.85,1.17,13.41l7.82.33c-3.78,8.08-6.64,16.79-8.59,26.11-4.73-1.13-7.31-5.94-7.2-10.7-18.82-15.59-40.85-7.52-65.18,2.99-39.51,17.07-95.3,63.09-121.52,98.07-5.66,22.62-15.68,37.36-30.06,44.22l-21.73-.12c15.78-31.97,25.96-70.69,56.2-94.85l61.87-49.45c17.54-14.02,35.12-14.82,54.28-23.6l39.97-18.32c14.05-6.44,26.64-1.6,32.95,11.91Z"/>
    <path class="cls-34" d="M2265.35,572.51c-43.45-2.82-88.53,14.25-117.3,51.15-41.35,17.65-66.17,53.95-80.78,93.37l-18.67.76c13.08-9.9,14.06-28.55,20.43-44.37,12.75-31.68,44.8-46.12,68.61-66.25,38.9-32.88,76.75-50.25,128.29-58.66l-.57,24Z"/>
    <path class="cls-52" d="M2462.51,722.86c1.14,42.84.21,85.07-2.79,126.69-9.94,29.41-25.02,55.84-45.24,79.31-12.99,20.68-27.11,29.14-42.37,25.37-5.49.01-12.51-2.03-12.76-6.6-1.19-21.94,50.81-98.2,67.6-116.93l.34-17.9c-14.39-32.31-18.34-57.64,11.36-82.3-10.91-7.79-10.96-8.45-2.21-17.5l-10.82-6.46c-23.86-4.26-31.45-10.65-22.76-19.15,17.72,4.78,53.61,12.63,59.64,35.47Z"/>
    <path class="cls-100" d="M2502.72,717.66l-23.61-.35c-20.94-29.97-53.33-40.55-86.17-55.41-18.49-8.36-35.69-29.91-56.87-13.31-11.5-13.59-11.34-19.82.49-18.7l.69-8.79c2.02-4.91,5.1-9,9.84-11.52,20.37-10.83,159.37,70.19,155.64,108.08Z"/>
    <path class="cls-62" d="M2402.87,687.39c3.29,15.17,26.9,7.49,33.59,25.61l-8.86,10.1-68.17-16.91c-.65,5.34-5.86,7.85-15.65,7.53,6,10.11,2.12,12.42-7.17,4.65-5.17.93-5.08-.31-.33-3.45l-11.02-42.35,11.88-7.61c15.59-14.33,23.3,10.98,65.74,22.43Z"/>
    <path class="cls-94" d="M2336.07,648.59l1.06,16.38c-32.29,32.85-71.94,33.39-49.84-16.79,3.51-16.78,53.25-26.36,48.78.41Z"/>
    <path class="cls-80" d="M2466.04,911.63c-1.06,5.26-2.94,5.38-5.62.59-20.26-4.53-15.18-51.29-.69-62.66l2.79-126.69,3.53,188.77Z"/>
    <path class="cls-70" d="M2466.23,1064.2c-1.66,5.11-3.59,5.03-5.77-.03-4.53-.13-8.93-1.43-11.68-5.26-2.37-3.3-.1-74.17,12.69-76.71-19.89-5.31-16.82-58.04-1.05-69.99l5.62-.59.19,152.57Z"/>
    <path class="cls-40" d="M2466.18,1193.25c-1.91,5.08-3.98,4.94-6.2-.17-17.93-6.35-17.57-55.56.6-63.83-18.36,1.6-18.05-55.83-.42-60.16-5.09-1.35-4.87-3,.29-4.92l5.77.03-.05,129.05Z"/>
    <path class="cls-37" d="M2465.52,1281.22l-4.97-.02c-16.95-1.81-17.24-14.2-1.46-19.88-17.99,1.78-15.52-36.04,1.16-39.11-17.18-1.57-16.7-25.26-.26-29.12l6.2.17-.66,87.96Z"/>
    <path class="cls-79" d="M2342.75,1269.01c8.77,2.63,13,9.64,12.69,21.01l11.94,6.17,75.88-44.84c7.93-3.87,12.74,1.56,15.82,9.98l1.46,19.88-.88,30.05c-11.99,13.04-52.98,44.4-82.37,55.79-29.99,11.63-36.75,10.51-39.55-23.17-6.14-15.26-5.98-39.28-.9-56.97l-11.71-4.65c1.05-8.68,5.04-16.84,11.95-24.49,15.79-8.32,20.15.72,5.65,11.25Z"/>
    <path class="cls-20" d="M2459.53,1355.16l1,19.9-.67,34.41c-9.55,15.38-30.58,26.74-47.24,33.76-55.33,23.33-72.45,27.37-75.89-39.02-6.02.33-4.14-13.68,1.49-16.53,10.13-3.32,22.05-4.82,35.74-4.5l71.98-40.96c9.46-2.99,13.73,2.89,13.6,12.94Z"/>
    <path class="cls-31" d="M2459.67,1311.24l-.14,43.91c-7.68-4.62-12.89-1.6-21.22,3.45l-51.25,31.05c-17.97,10.89-33.69,9.31-48.84-1.98-4.87-.35-5.81-7.2-2.83-20.54-20.07-4.58-10.22-13.2,2.38-23.27,3.01,6.31,8.26,18.16,14.48,18.54,7.65.46,16.48-3.8,23.12-7.73l66.72-39.43,9.27-9.09c1.43-1.4,6.34,2.99,8.34,5.09Z"/>
    <path class="cls-91" d="M2679.33,711.78c3.93-.84,9.27,1.87,10.61,6.23l-27.07-.69-27.61-9.55c-65.59-96.91-162.08-202.45-285.36-212.18l-11.29-10.14c-22.11-1.97-44.03-2.49-65.77-1.59-43.85-13.43-135.04,27.42-174.92,61.06l-97.8,82.49c.21,26.3-17.1,41.34-33.8,54.81,1.16-5.54,1.17-13.29.29-18.61-4.12-1.48-7.3-2.9-7.21-4.06,3.29-42.56,146.91-148.11,186.28-167.2,29.7-14.4,77.86-32.65,109.72-31.9,42.9-20.98,104.4-3.64,149.3,10.17,67.57,20.79,134.64,67.68,185.49,115.52l89.14,125.63Z"/>
    <path class="cls-32" d="M2662.88,717.32l-8.59.74-30.86-1.28c-12.78-5.43-24.27-13.81-34.48-25.13-57.45-80.9-138.05-164.18-242.57-172l-8.73-9.47c-11.38-.38-11.5-4.9-.59-8.91-15.09-7.11-15.09-12.24,1.55-15.84,35.82-6.2,73.94,3.91,106.81,25.44l81.07,53.1c54.22,35.51,72.48,85.12,105.21,118.45,10.98,11.18,15.74,29.78,31.17,34.9Z"/>
    <path class="cls-7" d="M2572.33,717.58l-44.83-.58c-20.41-3.24-36.94-16.87-49.6-40.89-42.34-39.51-89.32-68.51-140.96-87.03-15.59-1.71-14.99-6.97-.07-11.42-17.1-2.67-15.92-12.96-.1-17.52-4.95-2.16-4.69-4.14.55-5.94,7.53-15.02,49.04-2.67,64.43,3.2,50.15,19.13,137.22,89.6,154.43,141.59,12.34-.78,21.88,6.08,16.16,18.59Z"/>
    <path class="cls-3" d="M2527.5,717l-24.78.66c-10.03-4.03-19.07-12.09-23.75-23.41-7.65-18.49-27.22-20.36-40.68-30.17-31.75-23.16-62.59-43.93-101.06-42.97l-.43-19.96c-15.43-4.85-15.08-6.84.13-12.06,15.87-12.88,30.28-2.4,46.11,5.34,32.97,16.12,102.42,68.12,120.84,97.34,7.03,11.15,9.22,23.04,23.61,25.24Z"/>
    <path class="cls-99" d="M2623.43,716.79l-15.78,1.15c-34.28-6.51-59.77-28.76-76.47-66.75-44.01-50.3-123.46-99.79-188.78-109.43l-1.48-9.1c-9.88,6.54-12.46,2.75-5.41-7.17-15.09-7.98-14.69-11.49,2.14-15.29,21.07-8.13,38.14-.22,59.08,7.19,44.64,15.8,85.29,35.54,115.68,72.5,35.71,21.48,53.88,59.61,80.71,89.2,11.69,12.89,25.07,21.89,30.31,37.7Z"/>
    <path class="cls-4" d="M2607.65,717.94l-35.32-.36c-3.34-5.71-13.11-9.62-26.92-4.74-7.36-43.34-34.52-70.37-70.3-92.1-26.83-16.29-48.82-45.79-80.46-53.09l-57.34-13.46c-11.53-.58-12.26-5.23-1.47-9.31-14.87-7.18-10.84-14.24,5.07-12.23,9.04,5.4,24.31,1.62,36.87,4.5,52.47,12.07,89.57,49.55,132.49,78.08,48.78,32.42,43.36,77.38,97.37,102.7Z"/>
    <path class="cls-41" d="M2679.33,711.78c-11.68,2.5-11.94-6.48-17.19-13.43l-48.07-63.61-40.76-58.47-87.78-59.58c-40.62-27.58-79.8-42.9-128.89-48.8-22.32-2.68-51.82-26.12-75.66-9.03-12.31,8.83-21.72,18.72-40.89,9.77-18.98-8.87-36.81,14.53-50.8,17.54-35.27,7.58-55.05,18.54-81.5,37.88l-57.3,41.89c-40.43,29.55-85.09,90.33-83.88,97.69l-19.4,1.46c19.17-34.19,45.66-62.02,73.09-94.19l70.44-57.09c26.92-21.82,64.25-32.02,92.79-43.86,60.07-24.93,123.07-34.18,186.24-13.81,28.97,9.34,60.16,7.69,87.12,25.03,66.64,42.85,142.33,80.59,174.12,150.29l29.06,40.24c9.25,12.81,19.02,24.32,19.25,40.1Z"/>
    <path class="cls-50" d="M2279.39,1527.12c9.72,2.88,14.29,12.64,13.68,29.28l43.47.07c16.47-.58,17.08,7.57,2.35,14.29l-2.93,25.54c-4.81,7.31-5.36,15.3-6.71,23.54-17.75-7.42-25.01-18.21-43.62-16.02,1.5-16.72-5.56-14.73-12.66-24.25l-.96-34.98.45-28.73c1.69-5.12,3.67-5.05,5.94,0,16.65,1.32,14.36,3.05.97,11.27Z"/>
    <path class="cls-81" d="M2460.76,1471.03l-.3,50.69-52.15,17.4c-11.23,29.75-43.4,32.31-69.41,31.64l-2.35-14.29-11.71-6.28c3.36-12.47,7.35-25.96,11.98-40.48-13.88-2.96-16.93-15.61-3.17-18.18l.36-26.51c-3.63-3.55-1.68-11.77,3.28-13.82l14.61,1.74c2.26,39.33,29.64,45.2,82.12,17.61,12.82-12.74,21.74-12.58,26.73.48Z"/>
    <path class="cls-55" d="M2278.88,1340.98c13.8,2.15,17.6,12.54,3.48,16.06l-2.73,25.56c11.78-.41,11.8,7.7.07,24.34,16.14.05,15.82,7.36-.95,21.9,17.31-1.21,16.43,18.36.1,22.49-1.82,5.13-3.94,5.04-6.35,0v-11.73s0-46.93,0-46.93c-5.37-15.7-5.59-42.67,0-58.66,1.67-5.13,3.66-5.06,5.96-.03,2.53-.89,2.67,1.44.42,6.99Z"/>
    <path class="cls-101" d="M2278.78,1463.9c15.7,1.12,15.7,10.92,0,29.38,17.14.19,16.15,19.19-.36,22.57h-5.94s.03-64.52.03-64.52h6.35c7.84-4.74,7.82-.55-.08,12.57Z"/>
    <path class="cls-51" d="M2265.62,1333.09c6.11,13.47,5.46,42.71.6,59.57l-.93,5.25c-5.47,11.41-15.72,12.4-30.74,2.96-29.5-24.09-59.72-44.66-90.66-61.73l-.02-53.21,4.13-13.62c37.76,16,75.77,31.77,114.04,47.32l3.57,13.45Z"/>
    <path class="cls-16" d="M2265.3,1397.92c3.82,10.12,6.23,39.54-11.82,40.26-44.18,1.76-68.53-60.32-110.32-63.1l.75-35.92c38.78-23.86,58.65,50.71,121.39,58.76Z"/>
    <path class="cls-16" d="M2272.51,1334.02v58.66s-6.28,0-6.28,0l-.6-59.57c-5.06-1.44-4.81-3.09.37-4.94,1.87-5.13,4.04-5.05,6.51,0,3.83,1.73,3.75,3.69,0,5.87Z"/>
    <path class="cls-84" d="M2266.39,1280.21c5.14,10.2,4.88,35.29-.39,47.94l-.37,4.94-39.12-12.49-69.15-35.8c-4.88-2.53-9.72-1.12-13.47,1.14l.72-64.77c-1-15.16,2.7-17.35,16.12-11.45l70.19,58.27c13.19,2.73,25.01,6.8,35.47,12.22Z"/>
    <path class="cls-44" d="M2272.51,1175.64c5.28,23.42,4.77,57.55,0,82.12-1.57,7.97-3.61,15.46-6.12,22.45-14.91,6.71-31.57,6.35-46.37-5.71l-58.38-47.58c-2.38-1.94-5.16-8.12-9.27-8.66-2.42-.32-5.12.57-7.76,2.91.02-1.37-.4-3.1-.41-4.46l-.29-42.19c5.37-11.34,11.93-12.99,22.06-6.37,27.71,25.81,57.13,48.91,88.25,69.32-3.13-17.79,1.02-28.69,12.46-32.71.34-15.51-4.34-33.96,5.83-46.7,4.93,1.22,3.97,13.49,0,17.6Z"/>
    <path class="cls-53" d="M2459.86,1409.47l.9,61.56c-9.13-3.57-14.74,7.78-22.08,10.24l-49.12,16.47c-10.54,3.53-24.36,3.16-32.74-3.22-14.86-11.29-9.41-31.66-19.52-43.32-4.03-.3-4.98-3.46-2.86-9.48l-9.95-12.13c7.76-2.99,11.76-10.32,11.99-21.98-5.25.04-4.96-1.14.25-3.4,13.15,8.08,2.61,31.36,11.79,38.79,15.99,12.93,65.91-10.68,99.14-33.91,5.13-3.59,8.55-2.73,12.21.38Z"/>
    <path class="cls-19" d="M2335.85,544.89l1.47,9.31-.55,5.94c-17.11,8.39-36.07,14.9-56.85,19.53,17.46,1.62,14.45,13.13-.66,16.21l-6.06.68-.65-13.34.76-26.44c-5.99-37.96,49.63-36.11,62.54-11.89Z"/>
    <path class="cls-14" d="M2278.38,682.93c6.5,17.05,6.5,26.83,0,29.33,4.66,93.3,5.32,187.01,1.99,281.14,5.24,2.46,3.81,15.27-2.14,18.01-1.62,5.12-3.54,5.05-5.72,0-5.14-43.17-5.44-96.41,0-140.78l.02-199.43h5.86c7.51,6.35,11.61,10.83,0,11.73Z"/>
    <path class="cls-77" d="M2336.55,629.89l-.49,18.7c-.93-4.34-5.62-12.18-7.64-10.57l-9.9,7.9-31.24,2.26c-1.69,11.23-6.16,10.83-8.81-.46.05-12.38-1.53-24.38,2.19-36.75,16.93,30.27,46.29-2.46,55.88,18.92Z"/>
    <path class="cls-74" d="M2336.87,577.66l.07,11.42-.13,12.06c-11.65-9.06-32.64,8.05-57.56-5.27l.66-16.21c2.1-2.69,4.31-4.96,6.96-5.71,11.38-3.22,53.97-12.28,49.99,3.69Z"/>
    <path class="cls-75" d="M2337.13,664.97l-.86,49.96-13.99-1.13c-26.96,17.53-42.71-2.34-43.91-30.86v-11.73s.1-23.48.1-23.48l8.81.46c-2.99,10.42-3.79,21.16-.65,31.59,16.29-5.26,32.35-8.74,41.96-27.08,2.2,4.65,4.71,8.44,8.52,12.27Z"/>
    <path class="cls-17" d="M2266.31,870.64c5.23.99,4.28,10.38-.39,13.36-2.29-5.43-8.04-17.99-14.78-19.64-22.2-5.44-21.18-23.44-29.49-36.74-31.38-50.23,4.48-84.48-32.05-106.44,21.6-26.76,48.54-31.77,76.57-37.66l.15,187.12Z"/>
    <path class="cls-10" d="M2265.8,927.74c6.2,27.24,5.37,66.94.57,96.04-8.62-31.37-29.86-52.73-53.3-77.2l-24.75-56.15c-13.56-17.11-26.94-31.64-32.96-50.26,6.78-4.78,20.29-16.37,15.29-26.29l-16.3-33.65c21.5,6.24,28.61,25.28,32.23,48.65,1.85,11.95,14.59,24.42,10.29,40.4l51.16,49.86c5.19,5.06,12.13,7.22,17.77,8.61Z"/>
    <path class="cls-59" d="M2272.51,1011.41c4.94,5.84,4.26,22.18,0,29.33h-5.81s-.32-16.95-.32-16.95l-.57-96.04.11-43.75.39-13.36h6.19s0,140.77,0,140.77Z"/>
    <path class="cls-71" d="M2266.68,1204.75l-1.08,49.75c-64.75-20.61-89.95-83.1-121.7-79.98l-.16-58.28c23.32-17.18,38.03,25.31,89.3,63.23l33.63,25.28Z"/>
    <path class="cls-5" d="M2338.62,485.45l-1.55,15.84-12.55,7.52c-17.39-2.47-34.76-2.57-52.14-.29-.91-7.91,2.16-16.21.47-24.65,7.92-19.12,63.71-18.49,65.77,1.59Z"/>
    <path class="cls-88" d="M2337.07,501.28l.59,8.91-2.14,15.29-12.65,6.54c-16.49-3.5-33.58-3.4-51.28.29l1.96-13.63-1.16-10.17c13.74-20.27,44.56-15.81,64.68-7.22Z"/>
    <path class="cls-78" d="M2335.52,525.48c1.42,1.93,3.07,5.78,5.41,7.17l-5.07,12.23-55-7.43-7.54,19.32-1.17-13.41-.56-11.05c13.25-19.84,45.25-17.56,63.93-6.82Z"/>
    <path class="cls-102" d="M2372.11,954.24c19.21,23.78-31.96,42.33-34.1,5.88-6.46-19.62-5.46-50.01-1.01-71.9,13.69-31.06,34.36-58.39,62.02-82-7.14-37.61,2.18-65.32,27.98-83.13l11.66,7.42c-5.95,13.27-15.42,26.26-18.36,46.32,17.9,13.5,27.92,53.92,10.71,68.25-19.87,16.55-24.07,28.99-33.82,52.02-7.64,18.05-31.56,34.32-25.07,57.15Z"/>
    <path class="cls-47" d="M2436.45,713.01c7.66,1.64,4.36,12.7,2.21,17.5-30.03,12.34-33.35,39-26.32,68.66,1.09,19.59-25.47,33.6-35.16,45.87-13.99,17.71-21.95,34.3-40.18,43.18-3.52-.46-6.28-.98-6.34-1.73-1.87-21.73-2.05-54.49-.37-76.25.11-1.43,2.93-2.66,6.53-3.83,7.42-12.07,17.49-24.2,30.21-36.39,19.8-31.86,13.96-46.41-17.5-43.66l-5.77-12.63c1.43-5.4,8.1-18.87,16.22-17.13l76.46,16.41Z"/>
    <path class="cls-97" d="M2460.41,912.22c-13.56,33.42-31.31,65.3-53.27,95.62-29.9,30.04-64.56,45.27-69.93-8.17-5.69-6.64-4.51-30.03.8-39.54,5.6,4.84,12.32,9.64,18.7,9.2,8.97-.62,10.93-12.04,15.4-15.08,23.6-16.07,63.21-69.43,64.46-77.73,2.18-14.49,8.93-25.38,23.15-26.96l.69,62.66Z"/>
    <path class="cls-13" d="M2336.27,714.92l.33,3.45c17.85,5.27,16.27,24.47-2.32,26.97-44.07,5.39-42.07,29.83-4.71,46.86,3.76,38.42,2.06,75.4-5.11,110.96-1.39,24.64-8.59,32.23-21.61,22.78-10.81-17.64-17.11-38.02-18.9-61.15-1.1-50.57-2.95-101.41-5.57-152.54v-29.33c5.08,15.27,8.55,23.92,20.63,24.87,19.84,1.56,25.47-4.22,30.23-20.87,2.63,13.22,1.33,21.1,7.04,27.99Z"/>
    <path class="cls-22" d="M2336.83,806.4c-15.6-11.21-18.03-49.33-2.55-61.05,2.18-8.94,3.19-17.97,2.32-26.97,1.92-.96,5.79-2.84,7.17-4.65l40.35,5.53c15.4,2,.25,81-47.3,87.14Z"/>
    <path class="cls-104" d="M2460.41,912.22l1.05,69.99c-7.91,12.32-10.19,19.17-11.43,39.84-4,8.1-60.95,65.35-69.77,69.49-34.39,16.15-38.95-4.42-43.48-33.33-6.3-14.68-5.03-42.74.43-58.54l12.89,21.62c35.72,11.02,66.78-41.9,86.33-86.44,5.69-12.97,9.24-21.33,23.98-22.62Z"/>
    <path class="cls-72" d="M2461.46,982.2l-1,81.97-.29,4.92c-7.05,11.48-17.95,21.35-32.68,29.61-24.76,35.15-52.87,51.44-84.32,48.88l-6.16-24.77c-5.8-14.75-4.12-40.99-.09-59.17-5.21-1.07-5.11-2.9-.13-5.44,5.59,1.36,6.02,16.72,9.97,20.23,19.76,17.57,37.24-3.14,49.97-19.36,13.66-17.4,40.48-25.92,44.9-49.03l4.17-21.77c.97-5.05,11.39-6.51,15.66-6.08Z"/>
    <path class="cls-60" d="M2460.16,1069.09l.42,60.16c-12.95,19.65-39.74,46.82-61.22,60.47-30.4,19.32-59.04,21.97-62.57-20.06-7.6-3.59-11.4-5.39-11.4-5.39,6.49-6.41,11.11-16.35,13.85-29.8-12.4,2.1-13.87-6.76-2.25-11.67l11.54,17.61c20.46-3.03,36.46-12.43,48.82-27.74,17.34-21.46,55.58-52.43,62.8-43.59Z"/>
    <path class="cls-92" d="M2460.58,1129.26l-.6,63.83c-25.75,19.5-52.27,37.98-79.54,55.44-26.64,13.88-41.13,1.32-43.45-37.69-6.56-6.97-4.04-25-.04-35.33-5.17-1.52-5.15-3.47-.15-5.84l15.54,22.32c66.89-4.5,74.08-64.32,108.24-62.73Z"/>
    <path class="cls-15" d="M2459.98,1193.08l.26,29.12c-25.48,29.25-50.65,57.97-91.85,63.06-13.34,1.65-25.47-.94-25.64-16.25.39-4.83-1.01-9.53-5.65-11.25-7.55-.39-2.82-11.5.01-17.95-7.4,3.14-7.44-2.64-.15-17.36-15.33-1.77-14.68-7.36.02-11.61,7.46,3.33,6.56,13.15,8.53,21.15,2.56,10.41,15.67,10.87,23.23,9.2,7.42-1.65,11.33-9.3,20.16-14.5l47.49-27.95c5.25-3.09,8.23-10.61,14.1-10.31,2.89.15,6.64,2.17,9.5,4.66Z"/>
    <path class="cls-58" d="M2460.24,1222.2l-1.16,39.11c-21.62-4.77-51.72,33.71-90.89,46.27-6.98-.12-18.25-5.9-21.86-10.46-5.25-6.63-4.2-20.59-3.58-28.12,54.73,22.73,94.32-45.75,108.73-50.15,2.39-.73,6.39,1.3,8.76,3.34Z"/>
    <path class="cls-43" d="M2337.76,1343.87l-2.38,23.27c.84,6.98-.58,11.6-4.24,13.87-10,2.15-21.21-1.48-33.65-10.87-3.47,8.76-6.77,13.4-17.86,12.46l-.75-41.62c.67-28.96,8.97-40.32,24.92-34.1,12.16,10.21,20.76,12.46,25.77,6.74-7.91-24.41-5.48-33.31,7.28-26.71l.9,56.97Z"/>
    <path class="cls-33" d="M2337.1,1257.76l-.24,29.14c-6.84,6.6-7.57,17.38-7.28,26.71-10.14,3.27-15.77-1.84-16.88-15.33-13.42-7.05-19.42-4.34-17.98,8.12l-14.37,7.43c-7.19-5.91-7.77-29.74-.23-35.37.2-13.18,2.68-25.6,7.42-37.25,16.94-1.34,33.47-1.81,49.57-1.41v17.95Z"/>
    <path class="cls-65" d="M2338.21,1387.68l-1.49,16.53-.25,3.4-6.15,28.01c-17.22.19-34.4-2.07-51.57-6.79l.95-21.9,3.42-17.21c10.2-9.03,26.2-11.93,48.01-8.71l4.24-13.87,2.83,20.54Z"/>
    <path class="cls-89" d="M2336.77,560.14l.1,17.52c-11.36-12.75-26.87,15.03-56.96,2.01.36-6.82-3.04-13.75.9-19.59,21.79,14.68,40.26-10.38,55.96.06Z"/>
    <path class="cls-101" d="M2336.55,1556.47c-3.14,4.38-5.49,8.76-7.51,16.79-15.53-6.39-31.12-5.51-50.38-4.46l.74-41.67c4.86-17.46,24-23.26,57.42-17.41l-.26,46.76Z"/>
    <path class="cls-25" d="M2336.81,1509.71c-5.76,5.55-6.61,12.59-7.29,24.24-13.26-16.41-34.12-15.99-50.12-6.83l-.97-11.27.36-22.57,6.11-21.43c16.68-2.25,33.05-4.52,49.11-6.83,5.62,14.47,2.89,29.6,2.81,44.69Z"/>
    <path class="cls-55" d="M2337.29,1451.2l-3.28,13.82-4.55,28.59c-7.15-10.41-13.19-14.07-24.39-14.26s-21.17,2.69-26.28,13.94v-29.38c1.49-23.88,20.04-31.27,55.65-22.19.32,2.53,1.23,7.58,2.86,9.48Z"/>
    <path class="cls-83" d="M2329.58,1313.61c.35,11.47,5.37,23.67-1.85,39.44-4.27-22.25-18.7-37.65-42.29-37.11-.32,12.03-2.38,19.01-6.55,25.03l-.42-6.99c-5.52-4.46-4.77-16.33,1.88-20.14,3.73-9.67,4.92-19.14,3.74-32.95,14.14,1.89,27.36,2.46,38.21,9.41l7.27,23.31Z"/>
    <path class="cls-42" d="M2334.43,1441.72c-3.31,6.04-3.93,11.15-5.13,22.53-7.39-9.65-13.57-13.67-24.17-13.89-11-.23-21.24,2.6-26.34,13.55l.08-12.57-.1-22.49,7.49-10.15,42.44,7.36,7.79-18.44c-.84,11.27,1.11,23.05-2.05,34.11Z"/>
    <path class="cls-30" d="M2331.14,1381c-2.2,7.21,1.06,16.11-2.55,24.02-9.4-11.93-18.19-13.05-29.52-12.94-8.7.08-16.9,3.84-19.37,14.86.33-7.49-2.74-16.9-.07-24.34,2.56-7.15,6.49-13.27,5.89-29.03,17.31,5.69,35.49,11.32,45.61,27.44Z"/>
    <path class="cls-43" d="M2278.37,1216.71c5.44,6.23,2.97,20.48-.04,29.32l11.99,4.11c-7.63,5.15-11.03,14.6-10.2,28.32-3.28,11.31-1.62,23.74.23,35.37-2.33,6.05-2.26,13.76-1.88,20.14l-5.96.03v-5.87c-5.85-19.49-4.61-48.78,0-70.39v-82.12c1.62-5.15,3.62-5.1,5.96-.08,6.39,8.21,4.21,30.36-.1,41.14Z"/>
    <path class="cls-51" d="M2272.51,1328.15h-6.51s.39-47.94.39-47.94c.06-7.93-1.7-17.64,6.12-22.45v70.39Z"/>
    <path class="cls-95" d="M2278.36,1087.66c6.56,20.59,4.44,47.97.68,70.72,15.06,3.37,13.53,11.49-.58,17.18l-5.96.08v-17.6s0-117.31,0-117.31v-29.33s5.72,0,5.72,0c7.1,20.19,4.28,53.84.14,76.25Z"/>
    <path class="cls-103" d="M2283.95,864.8l10.86,46.2c6.16,33.55,1.35,61.02-14.44,82.4l-1.99-281.14c3.65.58,6.44,5.13,6.4,11.41l-.84,141.13Z"/>
    <path class="cls-45" d="M2324.46,903.18c2.29,18.49,4.53,38.92,6.71,61.29,5.38,11.64,4.49,98.27-3.44,99.4-9.24,1.32-13.82-9.06-14.33-18.26-7.05-49.31-21.89-9.28-17.3,22.45l-11.99,7.63c14.49,2.5,14.39,7.42.16,11.97-1.67,5.12-3.64,5.05-5.9,0l-.14-76.25,2.14-18.01c4.99-41.99,3.32-85.62,3.58-128.6,8.58,18.78,13.98,37.29,28.77,56.46,8.29-6.15,8.97-12.95,11.74-18.09Z"/>
    <path class="cls-36" d="M2338.02,960.12l-.8,39.54-.43,58.54.13,5.44c-3.24,72.3-11.72,83.31-25.42,33.04-13.2-4.57-22.34-11.57-27.4-21l2.6-83.3c11.57,15.92,21.48,26.36,37.95,21.66,1.28,15.21-2.95,30.14,4.72,45l1.8-94.58c-4.7-9.72-4.96-75.86-1.72-78.41,1.21-.95,4.14.29,7.56,2.16l1.01,71.9Z"/>
    <path class="cls-35" d="M2334.28,745.35c4.15,19.84,2.46,40.78,2.55,61.05l.18,81.82c-2.97,1.45-6.16,5.16-6.13,11.19l.29,65.06c-3.71-.48-6.06-5.07-6.13-11.27l-.58-50.02-.77-101.54c-.06-8.18-22.63-9.96-28.43-10.32-3.41-14.89-7.82-33.66-.31-45.82l23.26-8.3c6.11-2.18,7.14-13.8,10.04-20.64l6.03,28.79Z"/>
    <path class="cls-6" d="M2337,1122.81l2.25,11.67c-4.29,9.57-6.86,20.23-7.73,31.99-11-.43-18.53-8.38-22.59-23.86-15.53-2.39-20.99-9.2-23.65-24.54-5.93-3.43-5.01-22.98-1.02-30.42l-.16-11.97c10.9-.57,22.12,4.07,30.52,8.8,13.6,7.65,10.12,22.66,12.77,38.75,10.41-17.88-4.15-46.3,9.53-59.59l.09,59.17Z"/>
    <path class="cls-24" d="M2339.25,1134.49l-2.45,35.18.15,5.84-3.25,11.9c3.18,29.45-3.23,36.45-19.22,21.03.55-20.39-17.63-29.5-17.97-8.64l-12.1,10.91c4.97,2.15,4.73,4.17-.5,6.06-1.28,5.16-3.15,5-5.55-.06l.1-41.14c.01-4.66-1.8-13.06.58-17.18,1.06-14.69,3.14-28.13,6.23-40.31,9.71,8.18,20.08,12.44,36.26,15.21,2.49,9.66.95,18.43,9.13,26.73l1.48-20.7c.18-2.49,3.23-5.13,7.1-4.82Z"/>
    <path class="cls-95" d="M2336.95,1175.5l.04,35.33-.02,11.61c-2.51,25.19-12.73,26.6-30.66,4.23-11.47-1.61-18.76-6.93-21.89-15.98.91-11.11-.63-22.62,2.37-32.6,14.59-.42,24.54-3.26,37.54,5.08-.45,10.01-2.45,21.05,6.04,28.14.19-15.16-3.26-28.77,6.58-35.82Z"/>
    <path class="cls-28" d="M2336.96,1222.45l.15,17.36c-8.15,6.31-9.16,17.04-8.17,30.48-6.49-16.51-18.82-23.04-41.14-18.33l-7.68,26.5-1.79-32.44c1.67-10.41,3.54-20.17,5.59-29.27l.5-6.06c18.66.15,37.2,5.21,43.66,25.34l8.89-13.59Z"/>
    <path class="cls-95" d="M2278.33,1246.03l.04-29.32,5.55.06c-.79,9.67,2.79,22.47-5.59,29.27Z"/>
    <path class="cls-36" d="M2285.28,1118.07c.47,13.97.74,28.27-6.23,40.31l-.68-70.72h5.9s1.02,30.41,1.02,30.41Z"/>
  </g>
  <path class="cls-9" d="M3066.09,2259.8c-124.7,105.9-449.29,20.47-573.27-24.14-60.6-21.8-138.46-80.83-163.23-147.68-34.51-93.13-24.19-211.97-21.98-309.69,3.05-134.92-4.44-252.75,0-389.22"/>
  <g>
    <polygon class="cls-8" points="269.87 1683.63 78.91 1688.05 78.91 77.98 277.61 77.98 269.87 1683.63"/>
    <g>
      <path class="cls-9" d="M730.03,2365.14c-124.22,5-228.56-29.99-328.22-106.02-102.54-78.22-178.29-189.06-210.04-317.47-30.98-125.28-22.24-258.53,20.37-379.72,43.44-123.58,120.66-233.25,218.79-316.04,28.1-23.71,58.62-44.16,87.85-66.35,29.7-22.55,60.26-31.08,93.2-47.54,70.85-35.41,146.93-61.42,225.4-69.57,18.53-1.92,37.15-2.83,55.78-2.63"/>
      <path class="cls-9" d="M878.88,1059.78c262.89-6.84,514.93,152.62,638.08,392.71,126.11,245.87,99.3,594.81-94.28,791.32-103.27,104.83-179.04,114.85-416.91,121.79"/>
    </g>
  </g>
  <g>
    <polygon class="cls-8" points="5048.35 2251.88 4953.39 2226 4366.12 910.15 4494.19 861.57 5048.35 2251.88"/>
    <polygon class="cls-8" points="3644.28 2270.23 3502.21 2206.58 4292.05 846.01 4398.3 842.7 3644.28 2270.23"/>
    <polygon class="cls-8" points="5142.04 2266.11 5031.57 2223.77 5805.15 745.24 5954.4 826.93 5142.04 2266.11"/>
    <polygon class="cls-8" points="3554.11 2266.71 3470.44 2252.92 2976.52 1078.93 3121.51 1023.12 3554.11 2266.71"/>
  </g>
  <g>
    <polygon class="cls-27" points="865.89 1423.67 895.55 1863.45 836.22 1863.45 865.89 1423.67"/>
    <polygon class="cls-26" points="1195.51 1581.1 946.79 1916.26 904.84 1867.88 1195.51 1581.1"/>
    <polygon class="cls-27" points="1332.05 1961.17 950.64 1995.38 950.64 1926.97 1332.05 1961.17"/>
    <polygon class="cls-27" points="865.89 2498.68 836.22 2058.9 895.55 2058.9 865.89 2498.68"/>
    <polygon class="cls-27" points="399.72 1961.17 781.13 1926.97 781.13 1995.38 399.72 1961.17"/>
    <polygon class="cls-26" points="536.26 1581.1 826.93 1867.88 784.98 1916.26 536.26 1581.1"/>
  </g>
</svg>