<?xml version="1.0" encoding="UTF-8"?>
<svg id="Layer_1" data-name="Layer 1" xmlns="http://www.w3.org/2000/svg" viewBox="0 0 1536 1024">
  <defs>
    <style>
      .cls-1 {
        fill: #212827;
      }

      .cls-2 {
        fill: #dcb564;
      }

      .cls-3 {
        fill: #3d321b;
      }

      .cls-4 {
        fill: #f9f9fa;
      }

      .cls-5 {
        fill: #bb8618;
      }

      .cls-6 {
        fill: #f3f4f7;
      }

      .cls-7 {
        fill: #6d5a32;
      }

      .cls-8 {
        fill: #47473b;
      }

      .cls-9 {
        fill: #3a433f;
      }

      .cls-10 {
        fill: #dcb968;
      }

      .cls-11 {
        fill: #d4a74f;
      }

      .cls-12 {
        fill: #0a2f56;
      }

      .cls-13 {
        fill: #d5a94f;
      }

      .cls-14 {
        fill: #c8963a;
      }

      .cls-15 {
        fill: #01173f;
      }

      .cls-16 {
        fill: #585038;
      }

      .cls-17 {
        fill: #dab25d;
      }

      .cls-18 {
        fill: #f5f6f8;
      }

      .cls-19 {
        fill: #997737;
      }

      .cls-20 {
        fill: #73643f;
      }

      .cls-21 {
        fill: #283c4a;
      }

      .cls-22 {
        fill: #f1d082;
      }

      .cls-23 {
        fill: #0c274c;
      }

      .cls-24 {
        fill: #c5912b;
      }

      .cls-25 {
        fill: #d4b161;
      }

      .cls-26 {
        fill: #0a2d53;
      }

      .cls-27 {
        fill: #faf9f7;
      }

      .cls-28 {
        fill: #535141;
      }

      .cls-29 {
        fill: #031c44;
      }

      .cls-30 {
        fill: #324047;
      }

      .cls-31 {
        fill: #ac7e2c;
      }

      .cls-32 {
        fill: #11304e;
      }

      .cls-33 {
        fill: #84703d;
      }

      .cls-34 {
        fill: #031542;
      }

      .cls-35 {
        fill: #020d37;
      }

      .cls-36 {
        fill: #eee1c6;
      }

      .cls-37 {
        fill: #041d49;
      }

      .cls-38 {
        fill: #d4ac51;
      }

      .cls-39 {
        fill: #293a46;
      }

      .cls-40 {
        fill: #e2bd6f;
      }

      .cls-41 {
        fill: #00133f;
      }

      .cls-42 {
        fill: #d2a650;
      }

      .cls-43 {
        fill: #d8aa43;
      }

      .cls-44 {
        fill: #13365e;
      }

      .cls-45 {
        fill: #020e38;
      }

      .cls-46 {
        fill: #e0b969;
      }

      .cls-47 {
        fill: #dbb564;
      }

      .cls-48 {
        fill: #0c3561;
      }

      .cls-49 {
        fill: #0e264c;
      }

      .cls-50 {
        fill: #5b4b25;
      }

      .cls-51 {
        fill: #f4f5f7;
      }

      .cls-52 {
        fill: #d1aa5a;
      }

      .cls-53 {
        fill: #fbf9f8;
      }

      .cls-54 {
        fill: #dbb35c;
      }

      .cls-55 {
        fill: #b17f28;
      }

      .cls-56 {
        fill: #072548;
      }

      .cls-57 {
        fill: #916f2f;
      }

      .cls-58 {
        fill: #0e2f51;
      }

      .cls-59 {
        fill: #d7b261;
      }

      .cls-60 {
        fill: #061435;
      }

      .cls-61 {
        fill: #d5af61;
      }

      .cls-62 {
        fill: #4e4f3f;
      }

      .cls-63 {
        fill: #cc9c45;
      }

      .cls-64 {
        fill: #132c52;
      }

      .cls-65 {
        fill: #022550;
      }

      .cls-66 {
        fill: #031940;
      }

      .cls-67 {
        fill: #112951;
      }

      .cls-68 {
        fill: #c4a051;
      }

      .cls-69 {
        fill: #8f7238;
      }

      .cls-70 {
        fill: #907842;
      }

      .cls-71 {
        fill: #f3f4f6;
      }

      .cls-72 {
        fill: #313f45;
      }

      .cls-73 {
        fill: #303c42;
      }

      .cls-74 {
        fill: #d8b470;
      }

      .cls-75 {
        fill: #b6944b;
      }

      .cls-76 {
        fill: #504c37;
      }

      .cls-77 {
        fill: #f4d589;
      }

      .cls-78 {
        fill: #d5a95b;
      }

      .cls-79 {
        fill: #e6c270;
      }

      .cls-80 {
        fill: #d3a851;
      }

      .cls-81 {
        fill: #0c345f;
      }

      .cls-82 {
        fill: #132950;
      }

      .cls-83 {
        fill: #12365f;
      }

      .cls-84 {
        fill: #343930;
      }

      .cls-85 {
        fill: #cb9b42;
      }

      .cls-86 {
        fill: #826b3b;
      }

      .cls-87 {
        fill: #233947;
      }

      .cls-88 {
        fill: #50482b;
      }

      .cls-89 {
        fill: #092c51;
      }

      .cls-90 {
        fill: #233744;
      }

      .cls-91 {
        fill: #6f623e;
      }

      .cls-92 {
        fill: #9c8144;
      }

      .cls-93 {
        fill: #0d3155;
      }

      .cls-94 {
        fill: #ddbe81;
      }

      .cls-95 {
        fill: #565543;
      }

      .cls-96 {
        fill: #edcb7b;
      }

      .cls-97 {
        fill: #1b354b;
      }

      .cls-98 {
        fill: #e7c376;
      }

      .cls-99 {
        fill: #092f57;
      }

      .cls-100 {
        fill: #0e2f50;
      }

      .cls-101 {
        fill: #192f56;
      }

      .cls-102 {
        fill: #a5792c;
      }

      .cls-103 {
        fill: #f5f6f6;
      }

      .cls-104 {
        fill: #031740;
      }

      .cls-105 {
        fill: #cb983f;
      }

      .cls-106 {
        fill: #0b315a;
      }

      .cls-107 {
        fill: #0c345e;
      }

      .cls-108 {
        fill: #a4731c;
      }

      .cls-109 {
        fill: #4c3a1a;
      }

      .cls-110 {
        fill: #0d345f;
      }

      .cls-111 {
        fill: #d5a449;
      }

      .cls-112 {
        fill: #d9af5c;
      }

      .cls-113 {
        fill: #ebc87d;
      }

      .cls-114 {
        fill: #cf9a3a;
      }

      .cls-115 {
        fill: #2a3d47;
      }

      .cls-116 {
        fill: #fbfbfa;
      }

      .cls-117 {
        fill: #f0f1f4;
      }

      .cls-118 {
        fill: #3d4746;
      }

      .cls-119 {
        fill: #967230;
      }

      .cls-120 {
        fill: #203649;
      }

      .cls-121 {
        fill: #79663d;
      }

      .cls-122 {
        fill: #5d583d;
      }

      .cls-123 {
        fill: #1a2224;
      }

      .cls-124 {
        fill: #cfa046;
      }

      .cls-125 {
        fill: #cda045;
      }

      .cls-126 {
        fill: #8d6b2c;
      }

      .cls-127 {
        fill: #ad7a23;
      }

      .cls-128 {
        fill: #4a4d42;
      }

      .cls-129 {
        fill: #8c6b2a;
      }

      .cls-130 {
        fill: #6b5e3d;
      }

      .cls-131 {
        fill: #092b51;
      }

      .cls-132 {
        fill: #0b345e;
      }

      .cls-133 {
        fill: #052851;
      }

      .cls-134 {
        fill: #0d355e;
      }

      .cls-135 {
        fill: #9c7329;
      }

      .cls-136 {
        fill: #0c355f;
      }

      .cls-137 {
        fill: #3a423e;
      }

      .cls-138 {
        fill: #20374a;
      }

      .cls-139 {
        fill: #07132e;
      }

      .cls-140 {
        fill: #14294c;
      }

      .cls-141 {
        fill: #816f40;
      }

      .cls-142 {
        fill: #ce9938;
      }

      .cls-143 {
        fill: #293332;
      }

      .cls-144 {
        fill: #0a2d52;
      }

      .cls-145 {
        fill: #cd9b3b;
      }

      .cls-146 {
        fill: #021b44;
      }

      .cls-147 {
        fill: #755518;
      }

      .cls-148 {
        fill: #18334b;
      }

      .cls-149 {
        fill: #061f4a;
      }

      .cls-150 {
        fill: #f7f8f9;
      }

      .cls-151 {
        fill: #fbfcfc;
      }

      .cls-152 {
        fill: #dbc18d;
      }

      .cls-153 {
        fill: #0a204b;
      }

      .cls-154 {
        fill: #0a355f;
      }

      .cls-155 {
        fill: #5c5235;
      }

      .cls-156 {
        fill: #6a5521;
      }

      .cls-157 {
        fill: #faf8f5;
      }

      .cls-158 {
        fill: #0b2d51;
      }

      .cls-159 {
        fill: #645c41;
      }

      .cls-160 {
        fill: #cda153;
      }

      .cls-161 {
        fill: #79663b;
      }

      .cls-162 {
        fill: #a17930;
      }

      .cls-163 {
        fill: #a68947;
      }

      .cls-164 {
        fill: #d4a74b;
      }

      .cls-165 {
        fill: #e4c06d;
      }

      .cls-166 {
        fill: #45412c;
      }

      .cls-167 {
        fill: #ce9c39;
      }

      .cls-168 {
        fill: #ceab5d;
      }

      .cls-169 {
        fill: #665c3a;
      }

      .cls-170 {
        fill: #10284d;
      }

      .cls-171 {
        fill: #3f4744;
      }

      .cls-172 {
        fill: #7d5b17;
      }

      .cls-173 {
        fill: #ce9c43;
      }

      .cls-174 {
        fill: #19344c;
      }

      .cls-175 {
        fill: #0c2d51;
      }

      .cls-176 {
        fill: #0a3058;
      }

      .cls-177 {
        fill: #1b3347;
      }

      .cls-178 {
        fill: #d4ad54;
      }

      .cls-179 {
        fill: #ae8d48;
      }

      .cls-180 {
        fill: #4c4f45;
      }

      .cls-181 {
        fill: #e6c174;
      }

      .cls-182 {
        fill: #f6f6f5;
      }

      .cls-183 {
        fill: #f6f7f8;
      }

      .cls-184 {
        fill: #ba994f;
      }

      .cls-185 {
        fill: #1e2d32;
      }

      .cls-186 {
        fill: #092238;
      }

      .cls-187 {
        fill: #e2b967;
      }

      .cls-188 {
        fill: #4c4b3b;
      }

      .cls-189 {
        fill: #f1f2f5;
      }

      .cls-190 {
        fill: #fbf9f7;
      }

      .cls-191 {
        fill: #987e42;
      }

      .cls-192 {
        fill: #474739;
      }

      .cls-193 {
        fill: #243744;
      }

      .cls-194 {
        fill: #5f5840;
      }

      .cls-195 {
        fill: #2c3b42;
      }

      .cls-196 {
        fill: #e8c276;
      }

      .cls-197 {
        fill: #dbb868;
      }

      .cls-198 {
        fill: #f0e7d2;
      }

      .cls-199 {
        fill: #be8921;
      }

      .cls-200 {
        fill: #d1a046;
      }

      .cls-201 {
        fill: #d7ab52;
      }

      .cls-202 {
        fill: #c9a657;
      }

      .cls-203 {
        fill: #665734;
      }

      .cls-204 {
        fill: #0d3561;
      }

      .cls-205 {
        fill: #8f7036;
      }

      .cls-206 {
        fill: #113150;
      }

      .cls-207 {
        fill: #cb9c43;
      }

      .cls-208 {
        fill: #3a413e;
      }

      .cls-209 {
        fill: #e7c171;
      }

      .cls-210 {
        fill: #dbae5a;
      }

      .cls-211 {
        fill: #0d2f52;
      }

      .cls-212 {
        fill: #7e622f;
      }

      .cls-213 {
        fill: #e6d6b4;
      }

      .cls-214 {
        fill: #3e4744;
      }

      .cls-215 {
        fill: #d9bc7f;
      }

      .cls-216 {
        fill: #fdfdfd;
      }

      .cls-217 {
        fill: #9e7731;
      }

      .cls-218 {
        fill: #021239;
      }

      .cls-219 {
        fill: #e8cf9d;
      }

      .cls-220 {
        fill: #13304b;
      }

      .cls-221 {
        fill: #fadc8e;
      }

      .cls-222 {
        fill: #04214b;
      }

      .cls-223 {
        fill: #0d355f;
      }

      .cls-224 {
        fill: #152c53;
      }

      .cls-225 {
        fill: #846b39;
      }

      .cls-226 {
        fill: #f5f6f7;
      }

      .cls-227 {
        fill: #112045;
      }

      .cls-228 {
        fill: #02133c;
      }
    </style>
  </defs>
  <g>
    <path class="cls-151" d="M734.01,188l12.07-.7c.71-.27,2.25-.21,2.95.06.63-.95,1.62-.72,2.96.69,4.92.31,10.32-.99,14.89.91.53,4.17,5.66,2.93,5.65,8.01v12.05c0,1.31-1.04,2.89-1.77,2.72l-2.47-.58c-.8,1.6-.51,4.6.09,5.83.98-.68,1.38-1.24,1.59-1.64.57-1.05,1.24-.05,1.02.27-.3.44-.71,2.07-.49,2.46,3.19,5.66-.27,12.67.95,18.79.75,3.73.05,11.73.44,18.62l.7,12.45-.11,8.86c-.03,2.28.31,4.53-.99,6.49-.73,1.17,2.35,4.89,3.56,4.2,1.99-1.14,3.3-3.81,5.41-2.77l5.06,2.47c4.97.71,9.95.71,15.13.22,1.34-.13,3.32-2.8,5.17-.02,5.18.02,10.64,1.43,15.79-.98,2.44,2.17,5.66,1.98,8.5-.18,2.91-1.87,6.55-2.13,8.63,1.11,6.06.56,11.81.72,18.05-.08-.38,1.29-1.22,1.74-2.06,2.41l13.9.68-4.25,8.02c-1.56,2.94-4.63,3.05-7.15,1.49l4.89-7.79-.56-.77s-31.87-.1-95.6-.29c-.9-.05-.67-.69.13-1.22,3.43-3.18,2.08-5.68,0-8.76-.85-29.32-1.21-59.01-1.08-89.1l-57.23-.51c-1.43,1.02-2.03.82-1.81-.61,0-.63-1.01-1.69-.69-2.25.39-.69,2.08-.53,2.69-.52,1.55-.81,3.51-.82,5.05.06l6.23-.49,14.75.41Z"/>
    <g>
      <path class="cls-216" d="M746.09,187.3c-3.77,1.45-8.16.81-12.07.7,3.65-1.95,8.02-1.37,12.07-.7Z"/>
      <path class="cls-216" d="M752.01,188.05c-1.07-.07-2.11-.36-2.96-.69-.29-1.44,1.24-1.99,2.01-.9.31.44.73.92.96,1.6Z"/>
      <path class="cls-216" d="M713.04,188.09l-5.05-.06c.82-1.63,4.36-1.58,5.05.06Z"/>
      <path class="cls-216" d="M766.11,289.76v-8.76s3.18.7,3.18.7c1.76.34-.26,6.73,1.42,7.07.82.17,1.97-.31,3.38.83-2.53.79-5.35.39-7.98.16Z"/>
      <path class="cls-216" d="M808.03,289.73l-14.53.26c-.39-.18-.52-.53-.53-.73l14.53-.26c.39.18.52.53.53.73Z"/>
      <g>
        <path class="cls-35" d="M862.14,292.04l-19.17.32c-25.32.43-50.64.37-75.94-.18-1.7,1.26-2.27.59-1.05-1.2h96.81c.49.9-.43,1.26-.65,1.06Z"/>
        <path class="cls-44" d="M842.98,292.37l-50.01.67-17.77.05c-1,3.41-7.79,2.9-8.16-.9l75.94.18Z"/>
        <path class="cls-218" d="M763.72,289.95l.29-3.96v-92.99c-.87-.28-.86-.61,0-1l1.03-.1-.06,98.89c-.29.39-1.62-.46-1.26-.85Z"/>
        <path class="cls-222" d="M764.01,192v1s-57.06-.11-57.06-.11c-.11-.3.25-.93.55-.93l56.5.04Z"/>
      </g>
    </g>
  </g>
  <g>
    <g>
      <path class="cls-18" d="M432.25,630.94l-5.52.86c-.42-.5-.83-.83-1.6-.83l-6.79-4.39c-.26-1.21-.04-2.47.63-3.59,1.15-2.69,12.83,4.83,13.13,5.54.33.8.43,1.58.15,2.42Z"/>
      <path class="cls-224" d="M358.35,192.93l50.59-.4.1,169.42c1.47-.84,2.47-1.95,3.84-2.4,4.17,3.77-4.94,8.41-7.29,2.8.93-55.32.69-110.62-.7-165.91-15.64-.53-31.4-.69-47.28-.45-.37-1.84-2.13-1.61-3.59-.98,1.32-.3,1.54.78.67,3.22,2.03,1.95,2.12,7.28-.13,9.14l-.08,299.57c-.07,9.18,1.54,14.18,1.42,15.38-.04.45-.32.86-.97.68-.42-.23-.71-.91-.85-2.02-.23-.46,0-1.56-.06-2.07l-.9-7.79c.51-4.53-1.03-7.86-1.03-12.41l-.1-304.4c2.09-1.92,4.28-1.36,6.36-1.37Z"/>
      <path class="cls-99" d="M412.88,359.54c17.5-13.4,38.5-22.04,60.08-26.72,1.93-.08,1.95.67.1,1.41l-21.72,6.11c-3.63,1.02-6.5,2.52-9.08,4.2,6.16,3.63,12.24,1.22,13.54,4.11.54,1.19.2,3.22-1.58,3.59-1.04.22-1.97.68-2.01,1.36-.05.85.02,1.83.52,2.11,2.89,1.64,6.03-5.07,12.52-6.43l2.57,3.75c1.83-1.21,3.03-1.71,5.29-2.32-.81-1.19-1.83-2.27-1.94-3.42-.14-1.33.86-2.9,1.88-4.66.59-1.02,2.46-.04,3.07.86,2.34,3.44-5.22,8.69.11,13.68l4.06-4.3c2.06,1.59,5.39,1.62,7.62,2.18l5.27,9.73c.59,1.1,1.58,1.66,1.61,2.77.03.92-1.52,2.23-1.9,3.27-1.15,3.16-3.81,2.66-6.43,3.73-2.14.87-3.75,4-7.37,2.47l-4.5,6.85,5.61,2.26-2.76,2.87c-32.83,9.89-60.31,34.87-70.03,68.14l-2.83,2.78c2.48.79,2.1,2.25-.57,2.26,1.28,3.58,1.97,9.87-2.35,11.6-.45,1.29.16,2.18,1.55,2.77-.64,6.59-.72,13.2-.22,19.83l-1.93,2.6c-.73,1.76-.67,2.65.19,2.68,2.71-1.28,2.76,6.04,1.44,7.21,2.79,1.13,4.61,5.84,1.56,7.89-.16.49.21,1.4-.8,2.26l-1.6-6.58c-6.79-.37-15.65,2.91-19.91,8.76l-7.63,2.74-2.1-.38c-.67-.12-2.07-1.13-1.36-1.85l2.04-2.06c-1.16-1.35-2.07-2.93-1.97-4.16.28-3.21,5.17-1.99,14.59-6.29,5.96-2.72,7.48-9.76,13.11-11.52l.24-15.45c-3.16.21-4.55,1.79-6.65,3.54-1.22,1.01-4.82-1.01-6.48,1.36-1.03,1.48-2.47,4.02-3.2,6.57-6.4,1.83-10.88,4.3-19.28,3.03-2.57-3.26-3.01-7.24-1.23-10.91-1.75-5.91-.72-11.39,2.61-16.94-2.49-.76-4.73-1.09-5.47-2.62-3.19-6.6,4.2-9.17-1.72-12.62l1.39-8.4c.45-2.72-2.29-5.34-3.85-7.47-.57-76.4-.66-156.02-.11-232.7,4.62-.78,3.83-3.31.13-4.79l-1-5.3c0-.34.12-1.02,1-1.02h52.17c-1.05,6.11.58,11.44.59,17.44l.29,148.28c-.52,1.04-.9,1.94-.57,2.35.67.83,1.36,1.13,2.43.96,2-.32,2.51-2.35,2.97-3.46Z"/>
      <path class="cls-110" d="M354.98,437.79l-.52,69.14-.46-311.93c.84.29,1.62.27,3.12.26l-1.58,1.68c-2.13,2.26,3.88,1.43,4.44,5.64.31,2.35-1.26,4.06-4.91,4.27l-.08,230.95Z"/>
      <g>
        <path class="cls-176" d="M404.24,516.77c2.84-.87,4.19,3.77,1.68,5.17.76,4.3.92,8.58.48,12.83l1.95,2.34c1.96.68,3.56,1.65,4.79,2.89,2.29-1.64,3.13-.49,1.69,1.83,2.67-1.72,4.2,2.66,3.32,4.9,2.4.38,3.39,2.22,1.6,4.11,1.38,2.37.09,4.6-3.86,6.7,1.8,1.94,4.11,3.38,6.93,4.31,3.61,4.73,4.32,5.57,10.14,5.31,1.45-2.13,4.6.47,3.81,2.58,1.56,2.45,4.17,3.75,6.26,5.53,5.12,1.02,10.31,5.28,14.07,8.92,5.2.74,9.15,2.76,11.85,6.04,2.99,1.08,5.67,2.56,8.97,3.14,1.23-2.43,7.09.04,7.15,2.39.29.37.52.74.52,1.11.03,5.24.05,12.33-.4,17.47-.02.25-.53.46-1.19.66-.65,6.28-.82,12.68-.52,19.19-6.19-.26-8.42,1.05-6.69,3.94,5.03-1.23,7.43,1.4,7.2,7.87,1.5.03,1.46,1.65,0,2.03-10.17-1.25-20.13-3.94-29.83-7.18-3.64.1-8.61-.78-10.4-4.06-2.42.6-5.66.04-5.58-2.75l-5.93-3.07-13.28-7.96c-22.75-16.33-41.05-37.76-52.78-63.05-1.17-.03-1.17-1.43-.93-2.15-.85.24-1.55.02-2.27-.42-.83-.51-6.38-17.4-6.45-18.43l.67-4.15-.36-1.89c-3.39-.15-4.3-7.71-1.94-9.9-.79-5.42-.95-10.77-.46-16.05-.09-23.1.08-46.14.52-69.14,7.08-.4,6.09,9.67,4.66,14.88,2.44,2.36,2.69,5.51.75,9.45-.41,2.8,1.05,4.46,4.38,5.01l1.26,1.22c-2.53,5.9-3.22,11.77-2.07,17.61-2.39,8.61-.7,10.13,7.78,8.79,6.73-1.06,9.77-2.27,12.4-8.8,1.77-2.27,4.45-2.18,7.03-1.8,1.71-1.93,6.19-5.01,8.47-3.17.68.55.39,16.55.1,17.47-.35,1.09-14.57,15.26-17.53,14.26-8.55,1.07-11.14,3.29-7.77,6.65-2.12,3.01,0,3.1,6.33.27,4.59-5.9,14.59-10.79,21.61-8.28.92,6.08,1.53,7.89,1.84,5.42Z"/>
        <g>
          <path class="cls-151" d="M365.27,557.77c-1.37,1.56-2.47,3.42-4.92,3.04.48-3.17-.31-5.78-3.11-7.12l-.37-6.51c-3.21-1.81-4.04-6.28-1.59-8.86,1.18-1.24,1.86-2.12,1.94-3.56l8.05,23Z"/>
          <path class="cls-151" d="M354.92,522.98l1.94,9.9c-.4,1.24-.84,2.37-1.65,2.8-1.19.65-3.6.59-3.85-1.01-.42-2.76-.98-6.64.25-9.03,1.47-1.38,3.17-2.51,2.45-4.69.32.61.7,1.26.85,2.02Z"/>
          <g>
            <path class="cls-26" d="M423.88,555.6c.38.44.84,1.04,1.21,1.51,2.91-.7,9.65,6.94,7.88,10.03-1.19,1.97-3.47,2.13-5.39,1.79-4.34-.77-3.01-5.44-8.96-6.84-2.24-.53-4.09-3.31-5.8-4.88,3.05-2.14,5.62-3.51,6.95-6.39,2.55-1.67,5.88,2.46,4.12,4.78Z"/>
            <path class="cls-228" d="M486.64,597.04c.23,14.46,0,28.77-.65,42.94v7.77c-.41.35-1.82.35-1.99.27v-2.03c-1.23.34-1.4-.92-.51-3.76-1.31-2.65-3.01-7.75,0-9.39-.25-6.03-.08-11.98.52-17.85l-.06-17.08c0-1.11.51-1.8,1.13-2.16,1.13-.71,1.81.03,1.57,1.3Z"/>
            <path class="cls-51" d="M468.96,590.21c-9.4-3.41-18.26-8.45-25.92-14.96,1.75-1.4,3.46-1.04,5.35.27l8.81,6.07c-1.84,1.65-.44,3.01,1.01,1.5l9.12,2.55c2.08.58,2.65,2.84,1.63,4.57Z"/>
            <path class="cls-6" d="M454.16,640.82c-3.31,1.7-8.14.94-10.63-1.87l.43-1.54c.11-.41-1.06-.49-1.33-.19l-1.36,1.53c-2.23-.5-3.88-2.07-5.5-3.29l2.4-1.46,15.98,6.82Z"/>
            <path class="cls-136" d="M484,645.97c-1.11,0-2.4.45-4.04-.55.79-.32,2.49-.45,2.87-1.19.49-.94.14-2.61-.33-3.33-.52-.81-2.17-1.09-3.45-.83-2.75.56-4.37-.41-4.89-2.77-.33-1.5.36-2.94,2.17-4.07,2.11-1.32,4.02-1.22,6.65-.1v-16.23c-.01-1.05.36-1.81,1.04-1.92v31Z"/>
            <path class="cls-89" d="M406.27,523.83c2.55.03,3.46,1.82,2.74,5.36l.11.72c1.36-.34,1.97.34,2.69,1.34s3.32,8.31,1.34,8.74c-3.16,1.04-6.24-1.04-7.77-3.05-2.52-3.32-.25-6.54.33-9.91.29-1.67-1.1-4.24.22-5.1l.35,1.9Z"/>
            <path class="cls-99" d="M369.34,503.02c-1.68.78-4.51,2.67-6.32,2.05-2.23-.76-1.44-4.47.66-4.99,1.97-.49,4.63-1.14,5.65,2.93Z"/>
          </g>
        </g>
      </g>
      <path class="cls-41" d="M401.23,501.67c-.15.9.18,1.95-.71,3.41-.96-1.86-.98-4.69.52-6.09.01.8.04,1.91.19,2.68Z"/>
      <g>
        <path class="cls-176" d="M511.01,330.95c3.43,2.11,6.87,3.21,10.31,3.3l4.28-.51c-5.53-2.07-.56-4.33,3.69-3.08,28.92,3.06,55.95,15.33,79.48,32.42l3.03,2.2c2.78-1.43,13.29,9.41,13.27,10.28,0,.47-.19.95-.42,1.42l2.3,2.25c2.24-1.15,5.87,2.93,6.08,5.39,2.93,1.78,8.3,6.42,6.76,9.76l2.12,2.67c.69-.35,1.65-.74,2.12-.31,2.26,2.11,5.68,8.61,6.47,11.76,2.22.27,2.56,1.82,1.09,3.59l9.08,17.87c1.27,1.67,2.65,4.05,2.26,6.07l2.02,5.9c2.94.54,3.92,3.62,2.96,9.23.1.3.18.73.23,1.05l2.13.83c.17,2.02,0,4.09-.5,6.22.44-.05.85-.06,1.2.09.64.27,1.33,11.8,1.25,13.78,1.13.15,1.21,1.24.24,3.25l.23,3.76c.22.63.19,1.34.19,1.94.51.34,1.09.87,1.26,1.44.34,1.18.59,17.13.19,17.94-.32.66-.72,1.17-1.44,1.44,0,1.17-.13,2.77-.28,3.88-.43,2.43-.03,4.17,1.2,5.22.31,2.61-.52,4.06-2.5,4.35-1.22-2.48-1.32-1.3-.3,3.54.86.28.81.59-.08.93l-3.04,14.23c1.72,1.64,1.49,4.91-1.26,4.86l-2.83,7.91c1.63,3.53.99,5.28-1.91,5.26-.27.75-.75,2.21-1.1,2.93,2.34,1.71.86,4.62-1.91,4.1.41,2.94.75,6.26-2.98,5.82l-2.89,5.01c.61,1.25.39,2.57-1.14,2.24,1.76,2.07.8,2.93-1.74,2.89.06.38-.21.61-.35.8.64.79.92,1.63.56,2.6-.39,1.06-11.16,15.21-12.33,16.26-.58.52-1.54.31-2.33.05,2.09,2.26,1.1,2.75-1.72,2.16,1.61,1.28.93,1.86-2.05,1.74-20.46,21.95-46.35,37.25-75.4,44.89.92,1.87-2.25,2.03-3.66.96l-2.9.4c-1.65-.53-2.23-.43-1.73.27l-15.26,2.81c.03,1.14-2.54,1.23-2.8-.1l-.12-.85c.17-.81.49-1.16.95-1.06.59-4.31.75-8.71.49-13.2l5.34-.64c-1.18-4.33-2.94-8.04-5.27-11.13l.56-19.97c3.76-3.33,7.48-6.63,11.15-9.92,1.01-.93,2.34-1.66,3.67-2.06.74-2.96,4.47-3.44,7.2-3.1l1.79-.95c.03-.8.15-1.5.56-1.81,2.67-2.05,13.4-9.53,15.73-10.14.57-.15,1.21-.05,1.87.13.52-2,2.98-3.98,5.02-4.5.16-.27.73-.68,1.02-.83-.32-1.71.73-3.17,3.13-4.39.64-2.6,1.86-3.39,3.67-2.39-.77-1.88,1.62-2.96,3.27-3.65.27-.87,1.5-2.11,2.12-2.77-.8-3.28,3.13-9.04,6.54-9.48-2.61-1.5,1.26-8.93,4.23-8.09-.58-3.47-.72-6.36,3.28-7.46-.91-1.96-.57-3.38,1.63-3.72-.71-3.57-.24-7.28,1.41-11.13.26-4.4,1.6-7.91,4.02-10.51.53-2.98.03-4.91-1.49-5.77-.28-3.18.71-4.9,2.98-5.19.57.31.41,1.36.41,1.29.19-3.14.34-7.44-.41-9.7-2.65-.04-3.61-2.18-2.87-6.43,1.57-.74,2-2.33,1.3-4.79-1.25-.68-1.98-2.87-.13-2.75-.06-1.8-.44-2.46-1.16-2l-2.4-2.93c-2.41-15.31-9.61-29.34-18.93-41.58l-.41-3.77-3.9-1.56c-8.99-10.06-19.44-18.41-31.36-25.05l-1.08-2.01-2.29,1.23c-1.58-.05-12.87-4.34-11.98-7.01.18-1.34,2.24-.85,2.12-.7-.31.39-8.96-.26-7.79-3.22.72-1.82-.28-3.76-2.53-4.19-1.66-.32-4.89,1.65-5.46,3.33-2.9.27-5.91.44-9.02.52l-.99-.06c-.74,3.94-8.76,2.1-11.23.15.13,2.09-5.49,2.44-5.77-.05-1-2.18,1-2.83,6.01-1.97-.01-1.32-.52-6.63-1.05-6.9-2.41-1.2-10.17,3.71-8.71,7.62-.58,1.3-2.84.84-4.2.3l.17,1.08-8.24,1.43.37.68c.27,2.88-1.74,3.31-3.15.85-10.67,1.26-7.06-5.81-1.65-10.77,2.15.26,10.37-3.12,11.67-4.08.33-.25,2.35-3.37,2.37-3.58.05-.63-5.21-10.84-5.77-11.13-2.48-1.25-7.6-1.31-9.11,1.72-3.98.88-4.84-1.75-5.66-5.19-3.74,2.13-5.24,1.76-8.01-1.38-10.25,8.08-14.54,8.05-12.89-.1,4.95-1.81,3.63-2.88-3.95-3.19-1.18-.29-7.98-2.18-6.26-3.97,4.57-4.74,25.33-9.2,32.12-10.23,4.76-2.28,12.29-2.76,17.94-2.35-.23-1.29.86-1.36,2-.89,4.87-.91,12.04-1.41,17.35-.92.25.02.46.4.67.89Z"/>
        <g>
          <path class="cls-150" d="M648.03,398.15l2.93,4.87c.99,1.64.92,3.08.34,4.94,1.67-.84,4.2.31,3.56,1.93l-3.27,2.19-9.67-15.04c.41-.96,1.96-2.94,3.09-2.62.89,2.01,1.94,2.93,3.03,3.73Z"/>
          <path class="cls-216" d="M672.89,502.89l-.02-20.82c7.09,2.12.25,8.67,3.35,16.04.47,1.13.2,2.83-.77,3.69-.58.52-1.39.78-2.56,1.08Z"/>
          <path class="cls-18" d="M669.98,457.98c1.27.86,1.33,1.14-.21,1.27-1.12-2.18-1.29-4.68-1.64-7.05.06-1.63,1.48-4.31,3.72-2.74,1.4.98,1.36,5.36.43,6.78-.38.59-1.47.32-1.84.33-.43.01-.63,1.06-.46,1.41Z"/>
          <path class="cls-18" d="M667.9,451.15l-2.96-9.23c1.1-.85,2.66-2.22,3.64-1.79,3.63,1.6.16,6.07-.68,11.02Z"/>
          <path class="cls-18" d="M655.91,565.91l4.89-9.91c1.13.43,2.31.44,2.35.54,1.78,1.82.55,3.21.39,3.57-1.53,1.38-2.87.75-4.57.01.92,2.58,2.39,4.06,2,6.74-2.01.21-3.48-.27-5.06-.95Z"/>
          <path class="cls-18" d="M661.9,553.06l1.91-5.26c.04,1.57,2.56,2.68,3.07,4,.78,2.02-1.14,2.58-2.31,2.13-.68-.26-1.81-.17-2.67-.88Z"/>
          <path class="cls-37" d="M523.05,330.21c-3.93,1.5-7.98.73-12.04.74l-18.01.04c-.89-.19-.87-.51-.02-.95l8.11-.86h12.84c3.26,0,6.15,1.43,9.12,1.04Z"/>
          <path class="cls-99" d="M492.97,330.03l.02.95c-.58.31-1.36.81-2,.89-.84-1.35-2.61-.87-3.96-.93,1.43-1.36,4.05-.72,5.94-.92Z"/>
          <path class="cls-150" d="M639.79,394.37l-12.84-15.14,2.8-2.36c1.11,2.4,2.54,3.39,5.06,3.58l-.9,3.44c3.94-.01,5.13,2.83,6.77,5.58.54.91,2.98,1.47,2.4,3.03-.53,1.42-1.64,2.08-3.28,1.86Z"/>
          <path class="cls-183" d="M624.66,376.98l-12.85-11.7c2.04-2.49,9.12.6,10.77,5.34.69,1.98,3.52,3.23,5.48,4.52-.6,1.6-2.1,1.64-3.4,1.83Z"/>
          <g>
            <path class="cls-216" d="M672.07,463.52c.61,3.18,1.72,6.47.15,9.6l-2.46-13.87c.13-.31.35-.99.21-1.27.81.5,2.81,1.18,2.69,1.94l-.6,3.6Z"/>
            <path class="cls-216" d="M666.64,539.9l1.26-4.86c1.22.4,1.87,1.18,2.39,2.21s.58,2-.77,2.89c-.67.44-1.98,1.29-2.87-.24Z"/>
            <path class="cls-150" d="M654.06,574.18c.18.74,1.78,2.2-.17,3-1.11.45-3.03-.67-3.74-1.13.28-1.17.95-2.04,1.74-2.89.96-1.51,1.59-.44,2.18,1.02Z"/>
            <path class="cls-216" d="M662.93,436.02c-1.32-1.73-1.86-3.87-2.26-6.07,2.92,1.16,4,5.69,2.26,6.07Z"/>
            <path class="cls-153" d="M487.03,330.96c1.68-.53,4.12-1.1,3.96.93l-17.94,2.35-.1-1.41c4.64-1.01,9.28-2.07,14.08-1.86Z"/>
            <g>
              <path class="cls-204" d="M543.26,592.11c.54.59,1.18.94,2.01,1.37-5.72,5.7-12.64,8.52-12.69,10.68l-.47,17.44,3.86,1.49c-.61,5.17,5.79,10.14,1.08,12.47-1.34.66-2.98.13-5.08-.8l.04,7.19c.01,2.37,1.26,3.74,3.12,4.57-1.75.81-2.97.45-4.12.45-.3-16.96-.64-34.07-1.02-51.33l9.23-2.71c1.58-.46,2.6-2.12,4.05-.82Z"/>
              <path class="cls-150" d="M645.95,590.23c-3.16.4-2.91,4.42-6.68,6.72-1.21.74-2.95.46-3.58-1.2l14.11-18.91c.73.72,2.75,2.8,2.08,4.02-2.07,3.81-6.63,6.15-5.92,9.37Z"/>
              <path class="cls-29" d="M549.96,645.89l-1.73.27c-.85-.13-1.85.17-3.32-.64,1.51-1.04,3.89-.92,5.05.37Z"/>
              <path class="cls-216" d="M654.06,574.18c-.86-.13-1.58-.43-2.18-1.02.48-.51.78-1.62,1.14-2.24,1.33.62.83,2.36,1.04,3.26Z"/>
              <path class="cls-132" d="M529.29,330.66c-1.4-.15-3.51.17-5.41.77l7.95,1.25c-5.2,4.34-10.8,3.75-16.69,3.16-1.21-2.15-2.49-3.62-4.14-4.89l.66-.88c3.81.37,7.6.42,11.38.15,1.82-.69,4.56-.32,6.24.45Z"/>
              <path class="cls-99" d="M505.02,381.08c-3.16-.24-6.06.19-8.69,1.31l-1.07-.58c-1.05-.74-2.02-.9-3.17-1.24l5.7-7.8c3.44.65,6.27-.33,8.23-2.3,1.64-1.64,1.92-4.5,2.19-7.26,2.46-1.28,4.72-2.51,6.91-2.73,2.88,2.24,5.73,5.88,4.41,9.7-2.63,7.64-19.09-.19-11.36,8.94-.96,1.02-2.29,1.24-3.16,1.96Z"/>
              <path class="cls-99" d="M522.97,352.38c5.24-1.28,10.13,1.59,10.34,6.64-4.67-.57-8.16.56-11.39,4.35-2.66-2.58-2.5-4.88-4.06-7.69,2.33-1.61,3.66-3.32,3.35-6.19-.26-2.42-2.27-4.07-5.75-5.88,3.14-1.89,5.28.09,8.33,1.67,2.14,1.1,5.58.21,7.21,3.49-3.12.19-6.33.26-8.05,3.61Z"/>
              <path class="cls-99" d="M512.87,338.45c-1.06,3.92-5.93-.82-12.81-1.76.17,3.25.22,5.72-1.95,6.87-1.97,1.04-5.08,2.75-6.81.41-.85-1.16-1.22-2.59-1.45-3.49-.37-1.47,1.8-1.66,2.45-2.4,6.3-7.16,16.14-7.12,18-5.89.82.54,2.69,5.79,2.57,6.26Z"/>
              <path class="cls-99" d="M539.69,387.25l-3.31-.54c-4.24,1-7.4.32-9.48-2.04l-5.66-1.06c-1.65.28-3.07.08-4.25-.62,3.76-2.57,8.09.88,7.78-3.25,1.93-.7,4.1-2.67,6.3-2.63,3.21.06,5.27,3.58,6.69,6.39-.87.21-1.91.11-2.89,1.16l7.17,1.71c-.94.96-1.83.69-2.36.86Z"/>
              <path class="cls-23" d="M505.02,381.08l9,.2c-.01.17-.1.52-.51.78l-12.58-.13c-1.1-.01-1.84.41-1.92,1.12l-4.61.15c-1.55.7-4.63.91-3.35-1.1l4.2-.3c1.87-.13,2.35-2.12,5.23-3.64,1.1,2.92,2.38,2.87,4.53,2.92Z"/>
              <path class="cls-227" d="M614.9,494.3v-8.4c0-2.19-.09-4.22.44-5.92.16.01.5.16.68.51l-.34,19.57c-1.12-1.91-.78-4-.78-5.75Z"/>
              <path class="cls-99" d="M502.05,356.46c-.1,1.14-1.3,1.92-1.51,1.67l-1.68-1.9c-.74-.84-2-1.2-1.95-1.84.09-1.34,1.52-2.16,3.11-1.84,1.25.25,1.82.56,2.65,1.34.47.45.31,1.26-.62,2.56Z"/>
              <path class="cls-99" d="M494.4,383.19c0,.19,0,.42.05.65l-11.11,1.45c-.49-.19-1.49.12-2.39-.91l10.1-2.28c.66,1.05,2.11,1.14,3.35,1.1Z"/>
              <path class="cls-104" d="M613.2,471.93c-1.34-.06-1.07-1.13-1.16-2,.64-.66.9-1.42,1.37-3.07,1.15,1.61.76,3.66-.22,5.07Z"/>
              <path class="cls-15" d="M671.32,516.34c-.15,1.11-.2,2.42-.3,3.54-1.43-1.39-1.43-4.17-.52-5.99.96,1.08.6,1.93.82,2.45Z"/>
              <path class="cls-189" d="M521.25,383.62c-1.74.55-4.12.88-5.24-.68l.99.06c1.52.09,2.89.37,4.25.62Z"/>
              <g>
                <path class="cls-226" d="M573.69,572.73c1.67-.58,1.8-.1.39,1.45-5.37,4.83-11.8,8.43-18.16,11.82-.54-.61-.96-1.67-.63-2.29.43-.79,1.27-1.29,1.94-1.68,1.36-.78,2.86-2.07,3.85-3.18l2.6-1.14c2.76-3.07,6.76-5.34,10.01-4.97Z"/>
                <path class="cls-226" d="M585.88,560.84c1.73-.93,2.24-.32,1.03,1.23-1.95,2.36-3.99,5.31-6.8,6.78-.77-.52-1.72-.69-3.13-.89.77-2.59,3.87-3.36,5.45-4.49.55-.44-.38-2.87.3-3.02.77-.17,2.39.24,3.14.4Z"/>
                <path class="cls-226" d="M554.13,586.95c-2.32,1.24-4.69,2.35-7.2,3.1-.64-.56-1.29-2.83-.22-3.18l5.78-1.9c.02.8.04,1.21.14,1.46.22.52,1.06.72,1.5.52Z"/>
                <path class="cls-216" d="M579.1,569.67c-.86,2.08-3.47,3.11-5.02,4.5l-.39-1.45c1.16-.99,2.69-4.62,5.41-3.06Z"/>
                <path class="cls-216" d="M586.91,562.07l-1.03-1.23c.22-2.07,2.32-2.72,4.3-2.43-.44,1.44-2.39,2.58-3.27,3.65Z"/>
                <path class="cls-150" d="M590.3,421.65c-1.39.93-2.46,2.01-4.09,2.14l-3.85-5.93c-3.08-1.74-3.87-4.25-6.37-6.11l-9.01-6.67-15.18-9.72c.63-1.5,1.51-1.81,2.17-2.34,14.1,6.75,26.62,16.48,36.33,28.62Z"/>
                <path class="cls-51" d="M613.33,474.68c1.62,4.17-.35,8.5,1.58,11.22.89,1.92.68,5.96,0,8.4-1.22,2.37-.76,5.82-1.5,10.96l-.68-5.71c-1.01,1.37-.82,2.56-.92,4.55-1.82-1.05-2.13-2.91-2.14-5.08l-.04-18.1c0-2.85,1.33-5.61,1.92-8.01l.88,6.42c1.01-1.4.69-3.11.9-4.65Z"/>
                <path class="cls-189" d="M499.01,383.04l5.77.05c.4.56,1.04.82,2.53,1.45-4.61,2.16-9.77,2.42-14.61,1.13,1.5-1.04,1.69-1.34,1.76-1.83-.91-.15-.93-.37-.05-.65,1.1-.92,4.27-2.47,4.61-.15Z"/>
                <path class="cls-226" d="M607.98,526.9c-1.48,3.73-3.06,7.63-4.91,11.18.86-2-2.77-3.55-2.79-4.94-.04-2.43,3.91-2.94,6.04-2.56-2.51-3.11-3.82-5.53-1.45-8.03,2.26,1.21,2.17,2.98,3.12,4.35Z"/>
                <path class="cls-51" d="M607.56,461.02c2.38-.73,3.02,5.42,2.89,9.6-5.33-3.21-4.11-9.22-2.89-9.6Z"/>
                <path class="cls-226" d="M598.14,538.77c.71-1.38,2.24-.68,2.51-.1.43.9.02,1.5-.47,1.93-1.13,1-3.01.06-2.04-1.82Z"/>
              </g>
            </g>
          </g>
        </g>
      </g>
      <g>
        <path class="cls-113" d="M514.12,528.92l1.95,1.33c-.39,4.29-.2,7.83,2.26,11.47l-.21.64c3.11-.18,5.96.42,3.26,3.61-.8,2.92-.52,5.33.84,7.21l-7.38,1.72c-.44,1.99-2.41,2.86-5.91,2.61-1.81,1.35-3.28,3.08-4.42,5.19l-2.45.15c-.54-2.22-.94-2.72-1.19-1.52l-1.42-6.8c-7.37-2.49-15.3-.31-18.54-2.63.09-1.13,2.03-.37,1.92-.39-3.96-.74-9.89-3.05-7.29-7.55,7.05-.23,13.44-.98,19.16-2.27-.07-2.79,3.55-3.68,5.34-1.64,1-2.45,3.47-3.17,7.42-2.17,1.1-3.65,2.82-6.42,5.16-8.32-1.19-2.9-1.46-4.96-.79-6.2l1.38-.5c4.1-.32,3.29,3.47.91,6.06Z"/>
        <path class="cls-196" d="M518.33,541.73c.17-.76.45-1.85,1.04-1.92,2.76-.33,12.27.2,12.95,3.08,2.27.67,5.33,1.12,9.16,1.35,3.92.45,9.02,1.77,5.54,5.8-2.74.42-3.08.73-1.02.93l.02,1.04c-1.22,1.12-4.22.52-6.01-.04l-17.78,1.22c-1.44.1-2.84-.14-4.16-.58,2.08-3.14.1-7.19,2.52-8.64.62-.37.21-1.06-.15-1.03l-2.81.21c-2.24.56-1.73-2.42.71-1.42Z"/>
        <path class="cls-181" d="M514.84,554.9l-.79,13.07c1.65.57,2.08,2.81-.03,3h-1.05c-.29-1-.59-.34-.9,1.97-5.74-.18-12.47-3.24-10-10.1,6.17-10.11,6.66-6.68,12.78-7.95Z"/>
        <path class="cls-182" d="M598.84,546.17c-1.73,3.3-3.97,6.77-6.54,9.48l-9.7-4.28c-1.23-.54-2.13-1.34-2.45-2.28.92-.39,2.06-.78,3.43-1.15,2.08-.32,3.04-.62,2.87-.93-1.63-.57-3.35-.75-5.16-.56-3.76,1.77-6.46,1.57-8.12-.61-.95-.12-1.6-.46-1.94-1.03-1.19-3.85,2.93-4.25,6.19-4.11l15.74,3.89c1.85-4.09,5.98-2.4,5.68,1.58Z"/>
        <path class="cls-187" d="M467.82,543.81l6.96-.08c.91,3.23-1.21,3.44-3.87,3.45,1.21.68,3.06,1.06,5.55,1.13,3.74,4.23-5.45,3.23-8.56,2.72l-11.81.2c-1.75.86-2.03.12-.43-1.12-4.88-1.63-10.28-2.17-16.21-1.62l-.31-1.21c3.24-.95,4.06-1.48,2.48-1.59-.1-3.22,2.96-3.44,4.41-.64,6.7-1.79,13.36-2.73,20.28-3.1l1.52,1.86Z"/>
        <path class="cls-209" d="M494.7,541.69c.72.09,1.96-.42,2.43,1.29-3.48-.36-6.03.76-9.21.86l-10.57.3c-1.14.03-1.42,1.68-.97,1.93,2.63,1.45,2.89,5.63,10.67,5.18-2.21,1.53-4.41.64-6.14.65l-11,.09c-1.06,0-1.73-.38-2.02-.96l9.21-.52c-3.26-1.12-6.31-.3-10.11-.64,1.24-1.56,1.92-2.65,2.4-4.63l4.1-.24c.34-.16.51-.47.53-.74l-6.21-.45c.03-.78.18-1.95.74-2.06,3.76-.74,21.22-2.35,24.54-1.93l1.6,1.88Z"/>
        <path class="cls-173" d="M504.16,591.33c1.87.48,3.68,1.18,5.42,2.08l.26,1.6c.44,3.14.82,6.47,1.16,9.97l.05,1.19c2.23-.15,2.44,6.32-.02,6.81h-1.05c-.45-.28-.8-.56-.81-.86-.73-12.5,1.66-.11-.16,1.69-1.77.33-2.81-1.27-3.14-4.77-1.29-.97-1.75-2.9-1.38-5.77l-.44.68c-.24.89-.58.9-1.01.06l-.17-1.88-1.21-2.33c.53-3.71.99-7.32,1.39-10.84-.07-.71-.54-1.86.5-3.06.76,1.75.59,3.63.61,5.43Z"/>
        <path class="cls-14" d="M505.87,609.04c2.27,3.77,2.31,5.74.13,5.92.86,4.56,1.54,6.19,2.05,4.91.32-.86.65-.83.99.05.86,1.31.74,4.52-.03,6.06,1.05,1.32.57,4.18,0,6v1c2,.22.96,3.94.25,5.62-.25-.89-1.01-.71-1.23-.63-.91-2.69-1.68-5.67-2.34-8.94-2.88-3.32-4.31-10.72-1.84-15.02l.16-3.02c-.6-2.2-.92-5.07.03-7.03,0-2.3-.76-4.79.7-7.12.56,4.64-.39,8.44,1.13,12.21Z"/>
        <path class="cls-80" d="M573.16,545.84l11.82.19c.69.01,1.09.52,1.46.98-3.98.41-4.94.72-2.87.93-.4,1.31-2.03,1.17-3.43,1.15l-9.15-.11c-2.35-.03-4.76.46-7.11-.45,1.5-1.04,2.57-.73,4.34-.69l-2.46-1.77,7.4-.22Z"/>
        <path class="cls-85" d="M509.99,612.97l.05,7.01c-.34.85-.67.82-1.01-.06l-.99-.05c-.86-1.08-1.54-2.72-2.05-4.91-.09-1.8.55-4.22-.13-5.92.8.99.29,2.62,2.36,3.63l1.31-6.82c.97,2.77.43,4.97.45,7.12Z"/>
        <path class="cls-216" d="M511.13,632.95c-.05,2.05-.04,4.33-1.87,5.64l-.25-5.62,2.12-.02Z"/>
        <path class="cls-116" d="M501.13,525.9l1.93,1.17c-.9,2.29-1.7,4.53-2.41,6.71-.52,2.31-.1,3.84,1.28,4.59l-1.89,1.68c-1.54.62-3.67,1.54-5.34,1.64l-26.88,2.12-21.8,1.24,11.4-4.36c4.47-.09,8.72.74,12.64-3.14-1.15-.57-2.19-1.08-2.96-2.2,1.7-.17,2.99-.5,3.67-1.64.15-1.5,1.48-1.68,4-.53l-.52-1.75c.22-1-.11-1.32-1.54-1.9,3.14-3.29,6.49,2.9,11.61-.16,2.51-1.5,4.92,1.24,6.64,1.17,2.82-.12,4.59-3.88,4.98-6.52-1.25-1.02-3.25-1.04-3.61-2.66l3.46-.99c.51-.15.64-1.37-.63-1.39-2.41-.08-2.36-1.87.06-2.14-1.7-3.89-.25-8.39,4.17-5.51-.53,5.63.05,10.49,1.72,14.58Z"/>
        <path class="cls-46" d="M513,516.72c.43,1.91,1.16,3.52,2.17,4.82l-1.96,1.32-.59,6.7c-6.29-2.54-9.34.33-9.17,8.62-2.57,1.67-3.5.2-2.8-4.4l.47-7.87c-2.18-1.22-2.29-5.63,0-6.8-.03-1.18.31-1.88,1.01-2.09l1.15-8.71c3.17.67,6.13.17,8.88-1.5,1.59,3.21.72,6.65.84,9.93Z"/>
        <path class="cls-98" d="M512.62,529.56c-.04.5.47,1.76.18,2.38-.21.46-.83.57-1.94,1.22.52,2.3-1.15,6.9-3.65,6.73-3.02-.2-4.73-.85-7.18.15-.43-2.3.49-4.27.61-6.27.26,1.37-.27,3.06,1.14,4.35.32-3.92.23-7.23,1.97-10.48l7.84-1.37,1.01,3.29Z"/>
        <path class="cls-5" d="M586.44,547.01c1.12-.03,2.36-.46,3.62.53-1.98.83-4.04.39-6.49.39-1.44,0-3.03.58-4.66-.5,2.36-.92,4.74-.36,7.53-.42Z"/>
        <path class="cls-112" d="M441.61,545.69c1.09.13,2.54-.31,3.46,1.11-1.99.19-3.81-.49-5.24,1.13,7.43-.1,13.69,0,20.3,1.56-1.78,1-3.28.66-4.48.63l-4.65-.14c-1.84-1.66-4.66-.93-6.96-1-4.51-.14-8.76.67-13.23-.78,4.21-.51,6.27-1.26,6.21-2.24,1.42-.01,3.26.25,4.59-.27Z"/>
        <path class="cls-127" d="M508.03,637.96l.05,11.35c-1.91-1.51-1.03-3.77-1.04-5.28-.31-3.05-.65-6.07-1.04-9.05l-.31-5.95c1.11-1.71,2.1.15,1.14.77l1.19,8.17Z"/>
        <path class="cls-173" d="M508.05,619.87c.66,1.81-.84,2.55-1.76,1.05l-.29-5.96c1.58,1.09,2.14,3.02,2.05,4.91Z"/>
        <path class="cls-14" d="M507.04,644.03c-1.48-1.76-1.01-3.97-1.02-6.04v-3.01c.67.11,1.05.85,1.04,1.92l-.02,7.13Z"/>
        <path class="cls-11" d="M505.05,479.16c.56-2.07,2.07-2.18,4.53-.34.92,6.91,1.2,13.89.83,20.91-.31-3.6-.09-6.97.66-10.09l1.1,17.15-.25,7.61c-1.43-1.62-1.09-3.21-1.24-5.34-1.66,2.03-3.85,1.95-6.64.56l-1.9,7.38c-.09-3.53-.8-6.73-2.12-9.61l1.98-1.38c.25-2.26,1.12-1.35,1.45.73.43-5.27.29-10.53-.43-15.76l-.03-10.08c0-1.04.42-1.82.96-2.3.19.86.54,1.1,1.11.56Z"/>
        <path class="cls-43" d="M525.01,513.11c-.34,2.47-1.55,5.18-3.68,6.96-1.97-1.77-1.01-4.46-.18-6.2l1.89-3.92c.72.55,2.12,2.11,1.97,3.16Z"/>
        <path class="cls-46" d="M503.44,506.75c-.43-1.05-1.22-.78-1.45-.73l-.07-6.99c0-.86.22-1.73,1.08-2.04l.44,9.76Z"/>
        <g>
          <path class="cls-216" d="M516.01,382.94c1.63.81,3.47.76,5.24.68,1.28-1.12,5.76-2.42,5.66,1.06,2.29,2.32,5.45,3,9.48,2.04.58-1.2,2.79-.64,3.31.54l14.27,5.78,1.12,2.43c11.73,6.87,23.91,14.38,31.81,25.71l3.41.48c11.15,13.92,19.8,30.4,21.74,48.28.92,0,1.31.67,1.16,2,.02.82-.17,1.99.13,2.75.77,3.4.22,5.18-1.65,5.32-.32,6.97-.13,13.22.59,18.75,1.18,1.35,1.56,3.52,1.14,6.51-1.05,7.38-2.67,14.7-5.43,21.64-1.71-.8-2.23.43-1.57,3.68-.78,1.39-2.09,2.18-3.93,2.37,1.48,1.16,1.68,2.87.59,5.13l-4.23,8.09c-1.45-.19-2.3-1.15-2.75-2.8l-1.14,2.18c-2.28,4.34-18.49-7.54-23.73-.74l-12.08.08c-3.05-.65-5.17-.15-6.37,1.53-6.9-1.09-13.72-2.27-20.45-3.54l-13.99-1.16c-4.9-.29-4.49-5.56-4.21-12.8.16-5.46,10.18-7.33,14.75-7.1l1.24,1.98c-1.06,1.94-.21,1.97,2.54.11l1.29.86c4.02-2.91,13.28.35,10.08,5.4,1.12,2.25-1.16,2.39-3.1,1.92l-.62,1.16c-3.18.23-1.87.22,3.92-.01-.13-.48-.2-.95-.09-1.36.35-1.36,24.09-6.43,26.94-6.71.1-1.26,2.86-1.83,3.95-1.13.18-1.2,2.81-1.69,3.94-1.11.36-1.11,2.8-1.65,4.02-1.06.04-.64-.39-.92-1.05-1.06.14,1.11-2.11,1.63-3,.95-.4,1.12-2.95,1.69-4,.97-.24,1.21-2.95,1.83-3.98,1.02-3.25,1.98-9.62,3.66-14.03,4.47-.23.04-.56-.39-.9-.97-1.95-.45-2.38-.78-1.28-.99-5.25,1.35-15.97-1.54-13.7-8.18-2.28-1.82,3.81-7.17,6.02-5.86.66-2.55.26-3.65-1.22-3.3.02,3.42-7.15,10.41-10.59,9.27-2.29,2.34-9.88-2.03-9.26-5.1-1.97-3.05,1.5-12.11,4.95-12.83l-.33-3.86,15.34-35.06,1.15-.26c.17-1.2.23-2.36-1.11-2.1.54.66.34,1.31.11,2.02-1.31,4.08-13.86,34.31-15.71,34.8-.47.12-.97.11-1.49.05.48,4.32-1.55,13.11-5.87,14.1,1.18,1.95.77,4.5-1.89,3.92-.71.78-1.61,1.14-2.68,1.08-.66,5.8-4.32,9.69-5.46,1.77-2.01-1.31-2.86-2.31-.51-2.51l-.32-7.42c-3.09.07-3.12-6.1-.93-7.29l-.17-9.86c-.25-3.9-1.05-7.74-2.42-11.54,1.71-1.11,2.29-3.61,1.73-7.49-1.1-2.17-1.72-7.77-.41-9.65-.3-3.69-.57-7.47-.83-11.34-1.06-2.62-.83-6.63-.13-9.65l-.86-.45c.47-3.31.44-6.49-.1-9.54-.7-4.15-.92-8.62-.66-13.4l-.6.38c-.25,6.05-.51,12.05-.77,18.01,1.41.02,1.03,3.14.01,4.01-.36,2.99-.7,5.98-1,8.99l1.12,1.02c-.58,10.04-1.31,19.9-2.2,29.6-.63,2.94-.71,5.96-.24,9.06,2.28.8,1.55,2.64-.69,3.33.72,2.3.72,4.3,0,6-.2.93-.56,1.61-1.08,2.04-4.29,6.78-6.2,6.72-13.33,3.08-.47.13-.94.22-1.4.17-.64-.07-5.84-9.01-3.43-10.13-.6-1.56-.57-2.9.07-4.02-1.74-2.2-2.1-4.87-1.06-8.03-2.58-2.84-4.65-6.23-6.19-10.17-1.28.85-2.49.85-3.63.02-.64.16-1.15.26-1.24.11-1.94-3.37-4.33-8.6-4.74-12.06-.39.1-.71.16-.78.05-3.75-6.03-1.96-6.24.07.16.07.21-.14.52-.43.84.44-.03.8-.02.88.13,1.31,2.66,10.53,21.53,10.06,22.67-.17.42-.51.76-.89,1.09.43-.22.86-.4,1.28-.4,1.59-.01,13.15,26.96,13.49,28.73.2,1.02.15,2.04-.36,2.98l1.49.12c.68,1.96,1.8,3.5,3.38,4.6l1.21-.93c2.37,8.29.22,17.73-10.6,12.86-3.01,1.62-6.34,1.42-9.98-.62l-1.55,1.14c-.58,2.49-8.6-.08-8.84-2.33-.24.4-.61.56-1.05.65-2.91.57-14.73-3.59-17.41-4.99-1.12.3-1.44.7-.95,1.21,4.82.33,11.49,1.97,16.26,3.67.23.08.27.66.27,1.39,2.71-.47,7.79-.55,8.24,2.68,3.21,8.72-6.52,8.96-13.06,8.82l-11.7,2.52c-1.6.09-2.89.04-4.41.64-1.9,1.98-2.86,2.7-4.59.27-.19.83-.52.85-.99.11l-8.99.9c-1.27,1.17-4.25.48-6.02-.24h-2.87c-2.05-.83-2.03-3.51-3.32-4.9l-.68-2.09c1.08-.53.63-1.98-1.35-4.36.14-2.58-1.1-4.4-3.7-5.46-.89.04-.9-.21-.11-.72l-.89-3.08c1.07-.87.46-1.63-1.85-2.28-.81.04-.59-1.09-.35-1.9l-1.68-5.17-1.56-7.89.99-1.37c-.28-10.03-.24-20.12.1-30.25-2.48.98-2.41-1.29-2.12-3.47l2.35-11.6c1.17-.49,1.35-1.24.57-2.26,9.18-36.46,39.22-64.02,75.62-73.79l3.15-.85c2.61-1.97,7.62-2.26,11.11-1.45,3.89.97,8.11,1.18,12.65.62-1.73.54-3.51.59-2.33-1.36l11.23-.15Z"/>
          <g>
            <path class="cls-71" d="M414.84,541.82l-1.69-1.83-4.03-10.08c1.32-1.02,5.33-.3,5.37,1.68.03,1.34-.88,3.21.12,4.22.52.53,2,.99,2.39,2.27.47,1.54-1.37,2.98-2.16,3.74Z"/>
            <path class="cls-157" d="M521.15,513.87l1.33,1.53c.28-1.61,1.12-2.37,2.52-2.29.26-.88.59-.88.99-.03l9.26,5.1c2.37,1.58-2.92,6.82-5.15,5.61-5.29-.04-12.9,1.59-15.99,5.12.08-2.07.19-4.33-.91-6.06l-.21-6.14c.72.8,1.1,1.68,1.37,3.24,3.08-2.51,1.18-10.04,4.67-7.56l2.11,1.47Z"/>
            <path class="cls-40" d="M532.32,542.89l26.82,2.01c-1.51.01-3.17-.46-5.45.58l6.52,1.07c-4.17,3.19-8.86,3.14-13.19,3.49-.74-6.6-11.21-5.73-20.06-6.33,1.85-1.27,3.88-.91,5.36-.83Z"/>
            <path class="cls-125" d="M430.81,548.19c-2.82-.92-7.5,1.24-9.79-1.47l6.02.24c2.96-.25,5.95-.55,8.99-.9.23-.15.71-.1.99-.11l1.05,1.94-7.25.3Z"/>
            <path class="cls-18" d="M402.68,508.88l-1.44-7.21c-.84-.48-.9-1.37-.19-2.68-.15-8.45-1.07-16.93.61-25.2-.56,2.98,2.6,2.53,1.44-.54.91,0,2.66,2.48,2.65,3.91l-.26,22.63c-.02,1.81-1.87,5.3-.62,7.02l.21,2.67c.34-.19-1.28,1.78-1.45-.85l-.94.25Z"/>
            <path class="cls-117" d="M404,462.19l.57-2.26c1.69.06,2.91.68,3.14,1.09,1.28,2.45-.57,4.07-2.6,3.94-.36-1.32-.63-2.13-1.11-2.77Z"/>
            <path class="cls-114" d="M547.11,461.08l-16.16,39.18c-2.31.97-2.99-.5-2.04-4.41l17.08-36.87c1.83-.52,1.6.54,1.11,2.1Z"/>
            <path class="cls-190" d="M483.78,492.14c-2.86.48-6.72-8.49-5.52-11.14-.49.16-.97.26-1.4.16-.55-.12-4.19-8.63-4.68-10.12-.08-.25.29-.65.79-1.1.99-1.01,3.09-2.64,4.56-1.69,2.81,1.81,2.64,5.61,4.28,7.97,1.26,1.8,3.9,2.53,2.84,5.67-.36,1.07-1.18,3.06-.21,4.05l2.72,2.77c-2.03.74-3.21,1.86-3.38,3.44Z"/>
            <path class="cls-111" d="M483.78,492.14l4.83,9.96c2.74-1.49,6.04,6.86,3.52,8.56.89,1.85.71,4.66-1.81,3.59l-14.41-31.3c-.52-2.56-.1-2.77,2.36-1.94l5.52,11.14Z"/>
            <path class="cls-27" d="M501.93,499.02c.99,1.56,1.16,5.44.07,6.99l.14,11-1.01,2.09-1.41-.83c.63-7.59-.88-9.94-4.55-7.06l-2.12-.58c-.17.89-.49.87-.93.03l-3.52-8.56c1.24-1.17,1.75-2.72,3.6-2.91.33,2.3,1.72,4.01,3.11,3.69,3.7-.84,4.06-6.22,6.62-3.86Z"/>
            <path class="cls-53" d="M556.02,527.26c.09.64.14,1.16,0,1.21-3,1.17-10.01,3.53-11.99,1.71-3.86-7.67-6.73-2.44-10.08-5.4-1.47-2.69,4.31-8.17,7.09-6.69,1.35.26,1.65,2.68,2.13,3.78,2.36,1.1,5.88,3.08,8.71,3.07h3.44c.61,0,.96,1.39.7,2.33Z"/>
            <path class="cls-145" d="M508.04,429.99c.07,7.35-.16,14.73-.69,22.13.77,3.13.35,5.42-1.25,6.88,1.55,1.98,1.86,18.25,1.09,19.14-.54.63-1.36.87-2.15,1.02-.35,2.7.35,5.6-.57,8.92-.68-3.15-.59-6.36-.54-9.48l.24-17.64c.06-4.59.87-8.72.83-12.99.35-2.99.69-5.99,1-8.99v-4.01c.32-5.91.57-11.91.76-18.01.25-.82-.4-2.35,1.15-3.09l.12,16.11Z"/>
            <path class="cls-200" d="M510.37,470.62l.7,19.02-.31,10.36c-.26,0-.58-.16-.74-.54l-.3-17.26c-.04-2.11-3.14-2.74-4.67-3.05l.8-6.24.26-13.92c1.24-1.19,2.25-.17,3.01,3.06l.56,12.52c-.32-1.72-.09-3.04.69-3.96Z"/>
            <path class="cls-167" d="M547.07,512.22c-3.08.42-2.92-1.14-1.22-3.3l24.84-21.64,1.04,1.1-24.67,23.84Z"/>
            <path class="cls-164" d="M471.38,510.95c1.04,3.15-.11,3.74-2.81,1.93l-22.81-21.9c-.87-1.65-.26-1.7,1.33-.8,8.03,6.84,16.45,13.27,24.29,20.77Z"/>
            <path class="cls-38" d="M547.07,512.22l-6.02,5.86c-2.24,2.18-5.21,4.26-7.09,6.69-2.39,1.04-3.9,2.82-5.02,1.91-.37-.3-.29-1.37-.45-1.96-.12-.44,1.18-.59,1.63-.91l5.15-5.61,10.59-9.27,1.22,3.3Z"/>
            <path class="cls-13" d="M570.96,523.75c1.93.05,1.97.81.12,1.42l-26.85,8.07c-2.57.59-3.67.21-3.3-1.15,1.19-.15,2.25-1.56,3.1-1.92l11.99-2.92,14.94-3.5Z"/>
            <path class="cls-54" d="M468.57,512.88c1.27-.36,1.98-1.01,2.81-1.93l14.1,13.49c.71.68.56,1.91-.13,2.16-.85.3-1.49-.17-2.18-.78l-14.6-12.94Z"/>
            <path class="cls-142" d="M472.96,469.95l5.3,11.05c-.76.94-1.47,1.53-2.36,1.94l-10.04-23.9c-.41-1.69-.43-2.04,1.13-1.05l5.98,11.95Z"/>
            <path class="cls-63" d="M509.12,449.63c.23,3.85.51,7.63.83,11.34l.41,9.65c-.47,2.2.19,4.69-.95,7.44l-.67-12.86c-.13-2.42-.98-4.94-2.65-6.21.04-2.31-1.22-5.73,1.25-6.88l.24-10.24c-.06-1.37.4-2,1.4-1.89l.13,9.65Z"/>
            <path class="cls-210" d="M530.95,500.26l-4.95,12.83-.99.03c-2.45.62-2.45-1.15-1.97-3.16l5.87-14.1c.48,1.57,1.02,3.01,2.04,4.41Z"/>
            <path class="cls-2" d="M474.26,531.43l5.51,1.78c.8.26-.25,2.72-1.07,2.51l-7.92-2.02-8.24-2.68c-.07-1.22.89-1.86,2.89-1.92l8.84,2.33Z"/>
            <path class="cls-201" d="M465.42,529.1c-.36,1.04-1.29,1.89-2.89,1.92l-16.53-5.06c-1.39-1.35-.89-1.94.95-1.21l18.47,4.34Z"/>
            <path class="cls-71" d="M409.01,529.19c-1.3-1.47-2.39-3.43-2.74-5.36.69-.18,1.4-.63,2.22-1.32,1.14-.97,2.39-.6,3.06.39,1.54,2.3-2.64,2.88-2.53,6.29Z"/>
            <path class="cls-18" d="M406.72,517.88c-1.21-.48-1.83-5.68-.42-6.52,1.74-1.04,2.69,1.05,2.75,2.21.09,1.58.06,4.13-2.33,4.31Z"/>
            <path class="cls-17" d="M495.24,516.83c-.33.47-.16,1.58-.06,2.14-.23.24-1.5,1-1.88.73-1.94-1.39-2.21-3.77-2.99-5.45,1.17-.95,1.63-2.27,1.81-3.59l.93-.03c1.7.82,2.43,2.89,2.19,6.2Z"/>
            <path class="cls-189" d="M536.39,386.72c-3.25,1.61-6.55,2.12-10.35,0l.87-2.05c3.2.6,6.3,1.53,9.48,2.04Z"/>
            <path class="cls-47" d="M540.93,532.09c.86.13,1.99,1.36,3.3,1.15l-6.12,1.94c-.91.29-1.52.65-2.19.38s-1.08-1.83-.49-2.13c1.6-.82,3.96-1.57,5.5-1.33Z"/>
            <path class="cls-160" d="M447.09,490.18l-1.33.8c-3.1-2.97-6.64-5.32-8.47-9.15l9.81,8.35Z"/>
            <path class="cls-207" d="M506,434.98c-.02-6.01-.97-12.13.77-18.01l.28,16.08c0,1.08-.39,1.83-1.06,1.92Z"/>
            <path class="cls-124" d="M503.44,506.75c-1.3-2.63-1.19-6.84-.44-9.76v-6c1.91,3.56,1.11,11.31.44,15.76Z"/>
            <path class="cls-52" d="M549.89,451.09c1.23-4.97,3.79-2.23-1.04,5.5-1.89-2.38.65-3.97,1.04-5.5Z"/>
            <path class="cls-200" d="M509.96,460.97c-.42.03-.87-.33-.86-1l.03-10.34c1.49,3.53.67,7.56.83,11.34Z"/>
            <path class="cls-178" d="M446.96,524.76l-.95,1.21c-1.68-.51-3.6-.47-5.72-1.93,2.86-2.76,4.95.31,6.67.72Z"/>
            <path class="cls-74" d="M575.2,483.81c.97-2.01,2.87-3.28,4.33-4.81.54-.21,1.03-.02,1.26.17-1.49,2.37-3.88,5.19-5.58,4.64Z"/>
            <path class="cls-200" d="M509,439.98c-2.51,2.92.28,8.94-1.64,12.13l-.25-9.14c.03-4.65.97-8.74.94-12.99.63.1,1.03.85,1.02,1.92l-.06,8.08Z"/>
            <path class="cls-112" d="M436.03,546.06c-2.62,1.74-6,1.05-8.99.9.07-.65.82-1.04,1.89-1.03l7.1.13Z"/>
            <path class="cls-78" d="M466.98,458l-1.13,1.05-2.6-5.99c.36-.1.86-.13,1.31-.08l2.41,5.03Z"/>
            <path class="cls-200" d="M505.01,447.97l-.06-7.05c0-1.08.41-1.85,1.06-1.94l.05,7.08c0,1.07-.38,1.82-1.05,1.91Z"/>
            <path class="cls-215" d="M555.01,442.28c-.62,2.03-.88,4.4-3.19,4.43l2.39-5.97c1-.54,1.26-.03.8,1.54Z"/>
            <path class="cls-199" d="M574.94,522.73c1.95-.23,1.99.61.09,1.31l-3.95,1.13-.12-1.42,3.98-1.02Z"/>
            <path class="cls-36" d="M555.01,442.28l-.8-1.54c.61-1.53,1.21-2.96,2.58-3.89.66,2.46-1.27,3.73-1.78,5.42Z"/>
            <path class="cls-189" d="M522.1,385.63c-2.22.67-4.44.35-6.58.33-.34-.22-.51-.52-.52-.57,2.54-.64,5.85-.8,7.11.25Z"/>
            <path class="cls-219" d="M582.99,521.87c-1.39.15-1.74-.21-1.05-1.06,1.49-.74,3.43-1.58,5.19-.24l-4.15,1.3Z"/>
            <path class="cls-94" d="M436.44,521.95c.8.86.27,1.13-1.62.81l-3.99-1c-1.28-.9-.82-1.23,1.37-1,1.95.36,2.79.49,4.24,1.19Z"/>
            <path class="cls-42" d="M434.82,522.76l1.62-.81c.51.25,1.66.05,2.06.03.5-.03,1.07,1.44.17,1.81-1.06.44-2.73-.74-3.85-1.02Z"/>
            <path class="cls-24" d="M578.94,521.76c1.89-.25,1.87.48.03,1.16l-3.94,1.11-.09-1.31,4-.97Z"/>
            <path class="cls-198" d="M458.99,441.02c-.34.86-.7.83-1.08-.04-1.09-1.46-2.28-1.98-1.68-4.16,1.66,1.21,2.13,2.63,2.76,4.2Z"/>
            <path class="cls-152" d="M457.91,440.98l1.08.04c.53,1.31,1.85,2.49,1.67,4.28-2.85-.64-2.08-3.42-2.75-4.32Z"/>
            <path class="cls-105" d="M547.11,461.08c0-.86-.33-1.71-1.11-2.1.37-.81.77-1.47,1.72-2.12,1.05,2.27-.14,3.1-.6,4.22Z"/>
            <path class="cls-61" d="M581.94,520.81l1.05,1.06-4.02,1.06-.03-1.16c.78-.19,2.26-.59,3-.95Z"/>
            <path class="cls-213" d="M432.2,520.76l-1.37,1-2.95-1.13c1.42-1.67,3.17-.08,4.32.13Z"/>
          </g>
        </g>
        <path class="cls-216" d="M501.13,519.1c.31,2.27.13,4.6,0,6.8-5.89-.29-1.57-6.78-3.27-14.21-2.97,1.62-1.64,3.72-2.62,5.14-1.92-1.48-2.17-3.98-2.19-6.2.98-1.75,5.36-3.58,7.21-1.87,1.69,3,.45,7.3.87,10.35Z"/>
      </g>
    </g>
    <g>
      <g>
        <path class="cls-34" d="M845.94,388.96l-.98,1.17-38.94.18c-.17-.63-.74-1.16-1.02-1.42l40.94.07Z"/>
        <g>
          <path class="cls-176" d="M1035.63,359.1l2.29.34c4.81,11.88,9.61,23.77,14.42,35.65l-1.42,1.83c-.14,2.19.26,3.77,1.45,3.82l2.12-.11c18.88,45.62,37.6,91.33,56.16,137.13l-.63,3.2c1.72.01,2.57,1.02,3.22,2.38l3.67-8.72,2.39-.52c-2.66-1.75.91-9.45,3.92-8.93-1.55-3.11-.41-4.95,1.66-7.81.15-2.5,1.16-3.57,3.03-3.2-1.45-2.86-1.04-3.84,1.23-2.96-1.04-3.12-.39-4.53,1.96-4.23l-1.55-1.44c19.92-45.45,39.84-90.91,59.76-136.38l2.32-.32c1.37-.91,1.81-2.03,1.29-2.85-2.76-.84,2.5-11.69,3.4-12.58l2.38-.44c19.72.36,39.36.78,58.92,1.24.21,1.35-.04,2.76-.72,4.21.53,1.63.86,3.18.99,4.65,2.67,1.69-.79,9.46-3.84,9l-1.19,1.83,1.14,2.27c-39.52,83.89-79.03,167.79-118.55,251.69l-2.34.27c-.56.06-1.64,1.17-3.22,3.33-2.93-.74-4.54-.26-4.85,1.44,3.65.52,4.93,1.91,3.86,4.17,2.74,3.17-2.82,6.75-5.72,8.2-6.86,3.41-17.18,2.44-24.48.93l-.75-2.32c-2.97,1.2-5.15.67-4.94-2.86l-.27-1.28c-2.43,1.25-4.55-1.47-2.59-3.67l-.45-1.66c-1.83-.78-2.07-2.82-2.19-4.65-.28-.4-.34-1.07-.46-1.6-3.59-.69-4.05-4.42-2.85-7.33-2.2,1.14-2.27-1.28-1.18-2.76l-4.85-12.25c-1.86,1.14-2.12-1.21-1.17-2.73l-4.65-11.38c-2.38.58-1.9-1.96-1.32-3.76l-22.75-56.96c-1.52.19-2.03-1.92-1.2-3.02l-7.76-19.16c-1.71.29-1.94-2.49-1.31-3.92l-4.6-10.92c-1.04-1.01-2.34-2.39-1.34-3.73l-1.79-4.39c-.97.33-1.91-1.94-1.06-2.92l-6.32-16.81c-1.84-2.54-1.11-3.68,2.18-3.43,5.25-4.85-1.83-8.35-5.74-5.43l-2.18-.05-6.39-15.58c-2.35,4.58-4.46,9.49-6.35,14.75l-2.39.59c.95,2.05-.23,4.99-2.12,6.06-.33,2.09-1.21,1.84-.99-.4l-2.29,2.77c-3.55-.73-4.59-.11-3.13,1.85,2.11.27,2.97,1.87,2.56,4.79,1.43,2.46,1.17,6.3-2.36,6.04,1.99,1.12,1.69,3.13-.88,6.01,0,2.57-.6,6.14-3.67,5.87l-.06.98c-.66.85-1.01.75-1.06-.32-1.08,1.18-1.43,2.87-1.06,4.46,2.72,1.01,1.78,3.19-1,3l-1.16,3c2.28,1.25,1.79,2.15-.77,1.89l-7.04,16.98c.94,1.38-.15,3.09-1.43,3.98l-9.59,24.21c.97.79.07,2.78-1.16,2.7l-12,30.03c.76,1.11-.23,2.36-1.14,3.13l-4.75,11.86c.64,1.12-.31,2.38-1.35,3.02l-10.8,26.79c-.14.85-.39.81-.74-.03l-1.65,1.48c-1.92-1.46-3.41-1.46-4.49.02,2.12,2.1,2.7,3.96,1.72,5.56,1.01,2.91-.61,3.24-4.87.97-4.42,1.1-3.58,3.4,2.51,6.92l-.12,2.29c-3.57,3.81-13.92,3.77-19.09.03l-1.57-2.41c6.04-4.83,4.31-7.63-5.21-8.4-1.95,1.21-2.86-.41-1.34-2.01-3.58.23-6.63-8.42-4.74-11.14-2.49,1.15-2.41-.89-1.28-2.87l-7.52-17.26c-1.16-.07-1.89-1.9-1.17-2.88l-4.91-10.87c-2.19,1.16-2.34-1.47-1.29-2.95l-5.99-15.04c-1.66-2.99-.26-4.61,2.6-2.32,5.91-6.3-1.46-13.26-7.14-9.03-.99-.41-1.24-1.12-1.57-1.88-2.24.48-3.32-1-3.23-4.43-2.52-2.21-2.97-3.92-1.36-5.13l-.16-1.4c-1.34.54-1.6-1.66-1.12-2.93l-1.76-3.78c-2.28.72-2.94-1.59-1.4-3.15l-4.5-10.01c-.89-.83-1.84-1.89-1.27-3.09l-3.83-8.99c-1.28-.23-2.65-3.4-2.15-4.97l-1.91-4.02c-2.15-.21-2.1-1.27-1.11-2.96l-4.85-10.95c-2.03.36-2.76-1.84-1.2-3.12l-1.78-3.84c-2.28.75-2.51-1.35-1.31-3.01l-7.61-17.34c-1.32.02-1.96-2.49-1.33-3.9-.3-.89-.28-3.05-2.01-2.64-2.04-.49-2.2-2.54-1.15-4.18l-4.56-9.95c-.83-.84-1.76-1.94-1.1-3.17l-10.68-24.99c-2.37-1.21-3.52-3.81-3.44-7.82l-2.08-6.06c-.85-2.48-.95-5.46-1.04-7.32.25-2.9,4.14-3.32,6.05-1.8,1.38.16,1.72.63,1.02,1.42l14.85.39c5.4,4.34,17.44,1.21,24.09-.57-.69-.55-.36-.94.98-1.17,1.76-1.95,3.17-1.93,3.29.81-.16,1.59,2.58,1.4,3.89,1.27,1.67-2.5,6.92,1.13,5.76,3.85.36.24.84.78,1.04,1.17,1.05-.64,4.13,4.23,2.68,5.11l29.12,70.81c1.34-.48,2.12,1.72,1.25,2.81l9.8,24.2c3.11-.73,6.4,8.02,4.13,9.89,1.9-.56,2.77,2.07.79,2.89.77,2.55-.15,5.19-2.78,7.9,2.2.22,4.29.58,6.26,1.11l2.27.27,3.13,7.54,6.76-17.19,2.38-.6c1.48-.38,1.63-1.74,1.35-3.85-.87-.27-.86-.6,0-.97-.29-1.1.06-2.45,1.12-2.77-1.41-3.25-.85-4.6,1.7-4.05l1.42-4.23c-2-2.13-1.4-4.09,1.64-3.77l1.41-4.13c-2.26-1.63-.88-5.61,2.08-5.06l21.99-56.99c-2.42-1.56-1.31-4.38,1.55-3.95.48-1.22.39-2.88,1.25-3.98-1.83-1.99-.75-4.22,1.95-4,.24-.92.58-2.04.96-2.91-1.7-3.1-1.09-4.5,1.82-4.21l1.35-3.87c-.65-.48-1.62-1.26-1.43-1.82,4.69-13.57,10.72-27.12,16.93-40.04,2.01-3.39,4.09-4.47,6.25-3.24.22-2.85,5.92-4.59,8.05-2.95,4.38,1.04,5.25.89,2.61-.45-.02-.6.03-1.11.31-1.33,1.15-.92,26.93-.68,29.39-.06,3.81.96,8.35,2.8,6.25,6.95Z"/>
          <g>
            <path class="cls-216" d="M1155.73,593.11l-2.25,4.2c-2.9,2.13-1.95,6.06-3.1,8.19-3.35,6.21-7.64,11.54-8.11,18.9-3.29,2.28-5.09,6.31-4.2,10.36l7.66,4.2c-4.71,7.14-9.78-1.68-14.05,2.61l-4.49,4.51c1.83.64,3.08,1.02,3.52,1.74.58.95.53,2.74,0,4.19-4.76.17-9.06-2.83-13.69-2.89l-12.58-.18c-.64,6-7.12.45-10,7.08-2.75-.35-2.79-2.55-1.7-3.87l2.96-3.57c.49-.59-.78-3-.1-3.34l2.35-1.4c10.17,3.33,26.24,3.21,30.96-6.81-2.77-3.28,1.35-7.05,4.21-8.94l119.74-254.22c-.16.91.29,1.7.95,1.84l2.16.43c1.3,1.91,1.27,3.95,1.86,6.53-4.8,2.16-6.11,6.72-8.49,10.69-1.67,2.77-2.38,5.55-1.73,8.35-3.56,2.35-5.59,6.14-6.94,10.1l-2.58,7.58-3.19,5.51-3.19,5.9c-2.33,4.31-1.42,8.38,2.14,11.45.11,1.14-2.15,2.67-3.14,1.77l-2.95-2.69c-2.66,2.82-4.53,6.06-3.93,10.21-3.52.41-2.53,4.23-3.58,5.58-4.16,5.32-4.74,11.35-6.47,12.73-1.89,1.51-2.01,3.01-2.94,5.08l-6.53,14.63c-.88,1.96-2.21,3.76-1.8,5.97-5.3,6.58-9.58,17.7-12.81,26.24-.59,1.57-2.86,3.43-3.27,5.84-.26,1.54-2.08,4.56-3.1,5.87-1.49,1.9-1.57,3.86-2.78,6.29l-6.29,12.61c-1.36,2.73-1.46,4.34-2.15,7.15l-1.85,7.53c-4.49,2.57-7.99,7.35-6.89,12l-5.9,9.06c-.27,2.11.24,3.98-1.73,4.99Z"/>
            <path class="cls-151" d="M994.03,350.15h8.05c.22.8.07,1.42-.61,1.77-6.44.51-10.59,2.19-12.46,5.03-3.89,2.44-6.31,6.47-8.12,11l-13.63,34.11c-1.29.73-2.05.29-2.44-.38l-1.66-2.85c.76-1.48.73-4.47,3.79-5.19l-.47-4.09,3.15-3.87c1.78-2.06-1.85-4.91-2.46-6.63-.97-2.74,2.37-2.77,3.56-3.3,3.8-1.68,3.47-6.33,1.5-9.14,0-1.26,1.01-3.63,1.7-4.24.55-.49,2.28.14,3.37.55,2.56-2.9,6.15-5.84,7.8-9.04-.99-4.09,5.56-4.85,8.91-3.73Z"/>
            <path class="cls-226" d="M1007.13,350.11l11.88.13c2.67.03,6.26-.68,8.81.02l7.76,2.11c.74,4.02,6.13,5.34,2.18,6.89-.63.25-.83-.42-2.14-.16-1.03-2.54-3.1-5.5-6.36-5.5l-29.59-.05c-.09,1.33-1.5.91-2.61.45-2.75.48-5.68,1.46-8.05,2.95-.41-.58-.67-1.13-.74-1.58-.19-1.23,3.94-3.73,8.86-3.1,1.22-.96,3.39-2.12,4.95-2.13l5.05-.03Z"/>
            <path class="cls-18" d="M907.92,507.92c1.15,1.57.57,2.09-1.04.97l-4.13-9.89c1.25-1.4,1.9-3.07,4.34-3.03.13,4.08,1.21,7.5,3.41,11.02-.37.93-2,1.18-2.59.93Z"/>
            <path class="cls-226" d="M936.41,481.98l-2.08,5.06c-2.07-.79-4.12-3.18-2.59-5.41.84-1.23,3.81-.67,4.67.35Z"/>
            <path class="cls-18" d="M959.95,421.04l-1.55,3.95c-1.56-.46-2.25-.73-2.68-1.53-.64-1.19-.86-3.62.46-4.24,1.86-.87,3.28.51,3.77,1.83Z"/>
            <path class="cls-18" d="M965.92,405.93l-1.82,4.21c.13-.43-.15-1.4-.54-1.6-.24-.12-.91-.07-1.47-.04-1.33-1.32-1.4-3.81.12-5.5,1.59.7,2.7,1.75,3.71,2.92Z"/>
            <path class="cls-226" d="M932.92,491.17l-1.64,3.77-2.82-2.36c-1.54-1.27.03-3.64,2.01-3.73,1.25-.06,2,.75,2.45,2.32Z"/>
            <path class="cls-216" d="M862.59,401.18l-2.68-5.11c0-.97.85-1.62,1.86-1.27.1,2.46,1,3.8,3.24,4.57-.58.9-1.32,1.42-2.42,1.81Z"/>
            <g>
              <path class="cls-216" d="M928.16,503.23c-.32.75-.08,2.14-1.12,2.77-.4-.21-.73-.55-.93-.94.31-1.21.97-2.34,1.92-3.15l.13,1.33Z"/>
              <path class="cls-216" d="M892.96,474.8l-1.25-2.81c1.03-1.5,2.04-.11,2.27.59.34,1.04.18,2.13-1.02,2.22Z"/>
              <path class="cls-183" d="M997.98,479.72c-.27,1.92-3.13,3.42-3.96,4.86.73,2.28,1.92,4.72-.6,6.18-1.23.71-3.36,1.87-4.28-.81l4.55-11.88c1.51.63,3.19.14,4.29,1.66Z"/>
              <path class="cls-18" d="M866.89,553.83c-.51.94-1.02,1.59-1.7,1.88-1.29.55-2.46-.03-2.83-.67-1.26-2.22,2.09-5.52-1.25-6.17-1.69-.33-2.24-1.85-1.86-3.11.2-.66.72-1.4,1.73-1.7.35-.11.73-.51,1.16-1.2l4.76,10.97Z"/>
              <g>
                <path class="cls-183" d="M926.11,505.05c.83-.2,1.14.11.93.94v.97c.53,1.42.06,3.43-1.35,3.85l-9.15,23.26-5.4-13.29c-2.77,1.32-4.8-5.63-2.15-6.94-.88-1.9-.17-2.96,1.97-2.9,1.33.73,3.41,1.15,5.05,3.51,7.3-6.57,5.73-12.34,10.1-9.4Z"/>
                <path class="cls-51" d="M899.9,630.05c1.03,1.59.46,2.12-1.09.96-.97.23-1.84,1.08-3.34.56-.19-5.51-4.75-7.05-3.2-9.68.47-.8,1.79-1.28,2.9-1.98-.87-.28-.86-.61,0-.99l4.74,11.14Z"/>
                <path class="cls-216" d="M895.16,618.91v.99s-3.78.16-3.78.16c.57-1.93,1.29-3.21,2.5-4.03l1.28,2.87Z"/>
                <path class="cls-82" d="M849.23,389.77l3.89,1.27c-1.27,1.47-3.07.46-5.17-.01-1.1-.2-.82-1.1-.41-1.1l1.7-.15Z"/>
                <g>
                  <path class="cls-4" d="M1019.33,457.24c2.82-.73,3.1,1.57.65,2.85.57,2.1.03,2.61-2.07,2-4.28,1.87-6.72-5.2-10.88-2.13-1.41,1.04-2.92.9-3.76-.29-.98-.23-1.39-1.14-1.24-2.73l8.49-21.19,8.82,21.49Z"/>
                  <path class="cls-134" d="M873.01,567.05l-1.86-3.06c-1.89.07-2.13-1.56-1.13-3.07-.58-1.57-1.73-3.52-1.56-5.21.11-1.04.99-2.27-.33-4.47,3.2.86,7.74,1.23,10.24,4.28,4.45,5.44-2.28,10.98-2.36,12.98-.04.88-.72.78-1.02,0l-.85-2.18c-.12-2-2.17-.83-1.13.75Z"/>
                  <path class="cls-81" d="M908.02,642.87l-3.92-2.83c-.96,1.14-3.8-6.32-3.91-6.94-.05-.27.42-.64,1.04-1.04.74-3.02,9.24-.5,10.45,1.79,2.37,4.48-4.09,5.14-3.67,9.02Z"/>
                  <path class="cls-223" d="M1022.89,466.1l-1.67-3c-2.16.73-2.72-1.62-1.24-3.01l-.65-2.85c.4-1.1.74-2.61,1.52-3.09,1.38-.84,8.23.72,8.2,5.33-.02,3.25-6.01,8.4-5.55,4.5-.98.38-.86,1.33-.62,2.12Z"/>
                  <path class="cls-136" d="M929.59,632.67c1.9-1.11,1.61.52,1.16,2.23.88.28.87.63.02,1.04l-.9,1.95c.95.91.28,2.75-.97,3.05l-1.78,1.9c-3.01-1.9-5.98-3.58-7.79-7.21,1.3-3.01,5.34-5.38,8.14-3.03l1.08.91c.25.21.9-.44,1.05-.84Z"/>
                  <path class="cls-183" d="M1087.04,628.14c-1.63.84-5.31.07-5.8-2.14-.46-2.06,1.99-3.3,2.94-4.06-1.93.15-1.92-.61.02-1.14,1.03,2.41,2.25,4.75,2.85,7.33Z"/>
                  <path class="cls-183" d="M1090.13,636.04l2.59,3.67-.76,1.71c-.21.48-1.45.42-2.03-.56-2.04.17-3.85-1.21-2.23-3.59.05-.31,1.25-.97,2.43-1.24Z"/>
                  <path class="cls-216" d="M805.51,411.88c-1.56.76-3.19.26-3.64-.49-.14-.23-.51-4.83.2-7.33.93,2.71,3.03,5.05,3.44,7.82Z"/>
                  <path class="cls-216" d="M1003.27,459.67c-.2,1.39-1.08,2.56-2.21,3.3-.3.49-.86.51-1.16.03l2.12-6.06c.96.53,1.39,1.68,1.24,2.73Z"/>
                  <path class="cls-216" d="M1078.16,605.8c-.02.32.26,1.58-.31,2.23-1.39.4-2.58-1.01-2.44-2.44.08-.83.43-1.91,1.59-2.52l1.17,2.73Z"/>
                  <path class="cls-216" d="M859.26,536.15c-.38,1.56-1.54,1.34-2.68.89-1.21-.47-1.17-2.03-.21-2.98.4-.39.62-.66,1.5-1.07l1.4,3.15Z"/>
                  <path class="cls-216" d="M835.26,481.05c.09.65-.36,1.2-.77,1.21s-1.77.16-2.41-.69c-.74-.98.88-3,1.87-3.52l1.31,3.01Z"/>
                  <path class="cls-216" d="M1072.34,591.69c.08.34-.53,1.32-.82,1.22s-.58-1.12-2.15-.9c-.25-1.24.71-2.98,1.66-4.08l1.32,3.76Z"/>
                  <path class="cls-216" d="M823,454.17c-1.08.26-3.22.18-3.15-1.4.04-.9,1.18-2.14,2-2.78.66,1.43,1.31,2.56,1.15,4.18Z"/>
                  <path class="cls-216" d="M880.29,585.03c-.12.96-1.25,1.79-2.74,1.07-1.14-.57.06-3.38,1.46-4.02l1.29,2.95Z"/>
                  <path class="cls-216" d="M838.24,488.01c-.64,1.39-1.47.55-2.12.46-1.18-.16-1.61-1.65-.74-2.47.39-.37.92-.85,1.66-1.11l1.2,3.12Z"/>
                  <path class="cls-216" d="M1039.32,508.79c.07.56-.59,1.23-.91,1.05-1.47-.83-1.6-2.17-1.42-3.26.09-.55,0-1.37,1.03-1.71l1.31,3.92Z"/>
                  <path class="cls-216" d="M848.26,510.91c-.69,1.62-2.1.41-1.37-.65-1.46-1.3-2.37-3.49-.79-4.32l2.15,4.97Z"/>
                  <path class="cls-216" d="M964.79,550.81l1.16-2.7c1.07.14,1.25.9,1.08,1.36l-.94,2.62c-.37,1.01-1.12.8-1.12.36l-.18-1.64Z"/>
                  <path class="cls-216" d="M862.14,542.86c.02.33.07,1.53-.56,2.05-.22.18-.89-.24-.59-.86-.92-1.21-1.33-3.26.04-4.13l1.12,2.93Z"/>
                  <path class="cls-216" d="M826.35,460.7c-.39,1.93-2.12.85-1.45-.29-1.38-1.31-.94-3.05.12-3.61l1.33,3.9Z"/>
                  <path class="cls-216" d="M975.54,523.91c.31-1.42.89-2.68,1.43-3.98,1.2.25,1.38,1.47.96,2.45-.35.81-1.3,1.39-2.4,1.53Z"/>
                  <path class="cls-216" d="M1048.27,530.97c-1.06,1.49-2.05.1-2.26-.64-.27-.91-.08-2.38,1.07-2.37l1.2,3.02Z"/>
                  <path class="cls-216" d="M1089.69,634.38l-1.92-.43c-.67-1.24-.75-2.67-.28-4.22l2.19,4.65Z"/>
                  <path class="cls-216" d="M1033.41,493.96c-.75-.31-1.96-.63-2.34-1.55-.35-.85-.42-2.03,1-2.18.44,1.09,1.35,2.28,1.34,3.73Z"/>
                  <path class="cls-216" d="M817.29,440.03c-.51-.38-2.02-.65-2.16-1.64-.07-.47.44-1.19,1.06-1.53.84.74,1.11,1.95,1.1,3.17Z"/>
                  <path class="cls-216" d="M853.36,522.99c-.56-.36-2.05-.52-2.24-1.62-.08-.47.54-1.17.98-1.47.93.71,1.23,1.87,1.27,3.09Z"/>
                  <path class="cls-216" d="M951.65,583.97c.07-1.14.31-2.37,1.14-3.13.9.45,1.37,1.47.81,2.13-.41.49-1.37.79-1.95,1Z"/>
                  <path class="cls-216" d="M945.55,598.85c.16-1.05.42-2.24,1.35-3.02.58.47,1.4,1.42.7,2.15-.46.48-1.28.82-2.05.87Z"/>
                  <path class="cls-107" d="M844.97,390.13c-1.89,3.63-5.75,3.66-10.04,4l-9.85.79c-2.46.2-4.03-.98-4.56-3.77-5.03-.62-9.97.75-14.49-.85.02-.4.04-.71.07-.71,12.83-.26,26.4-.36,38.87.53Z"/>
                  <path class="cls-154" d="M1024.99,355.23c-6.04,5.52-13.97,6.68-18.99-.08l18.99.08Z"/>
                  <path class="cls-158" d="M1133.1,628.11l-4.21,8.94c-.69-1.74-3.02-1.55-4.46-2.27-2.2-1.1-1.57-3.37-.47-4.34,4.02-3.58,7.62,2.4,8.22-4.6,1.41.35,1.19,1.43.93,2.28Z"/>
                  <path class="cls-158" d="M934.01,625.61l-2.11,7.34c-.21.7-.73,1.36-1.16,1.95-.54-.64-.63-1.59-1.16-2.23l-4.12-5.01c-.21-1.31,3.03-4.33,4.62-3.67l3.93,1.63Z"/>
                  <path class="cls-131" d="M908.99,513.84l2.15,6.94c.42.63-.11,2.27-.84,1.81-2.71-1.69-5.02.61-6.83-1.57-2.33-2.8,3.32-5.66,4.19-9.25l1.32,2.07Z"/>
                  <path class="cls-175" d="M998.9,462.6l-2.85,9.42-1.75-2.59c-1.96,0-2.76-1.26-3.13-2.27-.59-1.6.04-4.03,1.91-3.89,2.39.18,4.06.39,5.82-.67Z"/>
                  <path class="cls-67" d="M925.69,510.81l1.35-3.85c.8.71,1.47,1.99.09,3.48.64.85-.81,2.26-1.44.37Z"/>
                  <path class="cls-140" d="M988.01,490.6c.1,1.77-.58,3.05-1.06,4.46-1.12-.34-.99-1.93-.6-2.95.25-.65.24-2.28,1.66-1.51Z"/>
                </g>
              </g>
            </g>
            <path class="cls-146" d="M999.68,353.55c.5.35,1.28.04,2.43.88-1.48,1.05-4.05.97-5.04-.43l2.61-.45Z"/>
          </g>
        </g>
      </g>
      <g>
        <path class="cls-12" d="M862.14,292.04c2.81,1.34-2,8.79-4.89,7.79-.38.61-1.07,1.44-1.48,2.02.52.63,1.27,1.6.95,2.12-4.1,6.66-11.28,16.92-16.29,22.77-1.3,2.88-2.98,4.09-5.05,3.62-2.31,2.92-5.68,1.24-8.48-.26-5.34-2.86-10.24-9.46-12.38-14.98-4.06-3.8-7.72-8.05-10.97-12.75-3.46-2.68-7.23-4.94-11.29-6.79l.71-2.55c16.49-.56,33.16-.79,50.01-.67,5.59-1.26,13.24-1,19.17-.32Z"/>
        <path class="cls-106" d="M762.95,514.1l.87.45c-.01,7.14.2,14.25.64,21.33l.57-.9c.31-.88.67-.86,1.09,0,2.18,1.88,1.85,5.5.72,8.04l1.07,3.98c2.69-.83,2.85,1.61.81,2.95l1.26,3.98c2.66-1.4,3.99,2.42,1.68,4.06l3,6.17c1.77,1.11,3.18,2.89,3.19,5.03.53.37,1.17,1.46,1.54,2.08,2.58-.33,3.41.68,3.15,3.16,3.33,1.86,8.1,5.8,8.43,9.5l4.19,1.24c.75-.87.98-.14.7,2.17,1.28-.41,2.47-.29,3.62.35,5.05,2.83,8.89,4.61,14.08,6.97,1.17.53,1.83,1.69,2.31,2.84,5.75,2.11,11.77,3.24,17.94,3.99,3.45-.4,6.87-.66,10.26-.78l.96,1.02,1.05,1.1c2.3-.73,2.85.74.78,2.11l.9,2.23c1.15.71,1.84,1.78,1.1,2.93.28.49.1,1.54.95,1.86.88.25.88.58.02.97.82,2.88.21,4.34-1.82,4.39-7.29-2.47,3.09,8.09,6.09,5.56,2.72-1,3.7.87,1.72,2.93,3.05-.53,2.88,2.91,2.24,5.11l.73,1.89c2.35-.42,3.09,1.9.98,3.1l.69,1.98c-3.81,2.81-7.54,5.5-11.19,8.07l-.3.52c-13.33,0-26.65-.16-39.96-.49-.27,1.48-1.82,1.69-1.99-.03-2.29.83-5.82,1.21-6.98-1.15-2.76-1.24-6.12-.88-8.8-2.04-2.66.55-3.84.04-3.54-1.54-.86-2.09-4.79-2.21-7.09-1.82l-5.57-2.53c-1.45.93-3.79-.88-4.93-2.18l-12.96-7.57c-2.89-.29-6.51-3.07-7.85-5.34-.36.28-.71.49-1.05.46-2.14-.16-12.54-10.23-12.49-11.08.03-.48.2-.96.42-1.43-1.46.58-2.69-1.54-2.24-2.84-2.18,1.14-3.05-.11-2.64-2.4l-.15-.48c-2.21,1.73-6.71-4.84-4.94-6.97-.54-.76-.84-1.88-1.98-2.25-1.56-.97-1.91-1.92-1.05-2.87l-7.87-15.94c-3.18-.04-2.95-3.37-2.29-5.9-1.92-.31-1.88-1.09.06-1.44-.3-3.82-1.15-7.73-2.53-11.73l.61-.8c.21-2.46,1.11-4.73,2.71-6.81,1.37-5.34.21-8.35-3.47-9.02l-1.27-3.31c-.97-10.22-.9-22.7-.06-33.34,1.31-1.1,2.58-1.4,3.33.1l4.11,11.79,5.98,1.69c2.93,2.86,6.08,5.39,9.45,7.61,2.53,11.59,9.32,6.41,8.39-3.02,3.12-1.66,6.61-2.73,10.45-3.23l6.96-5.6c2.63-1.02,4.38-.64,5.24,1.14Z"/>
        <path class="cls-183" d="M809.01,645.96c1.65-.68,2.99-.67,4.02,0l4.95,1.01c2-1.15,6.68-.89,9.03,0,11.29.31,22.5.69,33.64,1.13,1.05.99,3.63,0,4.42,2.41l-43,.26c-3.37.02-6.91-1.04-10.33-1.99-.17-3.96-3.12.06-6.67.06.03,2.88-2.21,2.79-2.95.11l-.97-1.84c1.68-.53,3.64-.93,5.87-1.19l1.99.03Z"/>
        <path class="cls-26" d="M851.17,616.11l.98.85c2.59-.84,4.07,4.75,1.95,5.91.57.89-.75,3.52-2.03,2.95-3.95-1.78-10.42-7.4-8.62-9.89,1.43-1.97,5.02,0,5.35-.76l1.03-2.25c1.53-.14,1.88,1.82,1.34,3.2Z"/>
        <path class="cls-49" d="M787.69,641.19c-1.78-.77-3.78-1.04-5.7-1.09-.38-.02-1.01-.55-1.39-.72.4-1.08,1.52-1.67,3.03-1.18l6.47,2.07c-.71.99-1.61.85-2.42.92Z"/>
        <path class="cls-12" d="M765.03,191.9c-.21.9-.55.92-1.03.1-.4.33-.4.66,0,1,.9,29.92.84,62.68,0,92.99l-2.24.34c-5.28-3.65-11.26-5.92-17.92-6.79l-2.55-2.06c-.86-2.63-3.11-3.35-6.75-2.16-3.7,3.33-8.63,4.82-14.79,4.44-2.91,2.97-8.36,8.02-11.78,4.23l-.43-.17c.13-2.79-.05-3.73-.52-2.82-.28.87-.62.86-1.01,0l.02-80.96-.04-9.24,59.04,1.12Z"/>
        <path class="cls-211" d="M792.97,293.04c1.17,2.79,4.32,2.91,6.89,4.13,5.78,2.74,8.73,8.69,12.56,13.51,1.45,1.82,4.18,2.39,4.6,5.43.29,2.14,2.44,3.59,3.53,5.28,3.41,5.27,8.68,8.87,14.83,8.98l-4.72,7.44c.18,1-.45,2.04-1.89,3.12-.14.3-.54.79-.79,1.02-.91.83-1.62,1.85-1.97,3.05h-1.01c-2.47-.34-4.85-.68-7.15-1.04-.08-1.49-1.39-2.85-3.91-4.09-5.25-4.81-8.47-10.38-9.64-16.71-.34.26-.79-.09-.97-.41-5.35-9.04-14.39-17.92-23.15-23.8-5.1-1.49-6.76-3.45-4.99-5.87,5.53-.75,12.12-.65,17.77-.05Z"/>
        <path class="cls-220" d="M766.12,281c2.96.77,2.95,8.03,0,8.76l-.13,1.22c-.04.35.71,1.01,1.05,1.2,2.4,1.32,5.51.91,8.16.9.78,2.92,4.29,2.82,6.3,4.35l7.87,5.99c3.51,2.67,5.86,6.08,9.15,9.16,2.87,2.69,3.69,7.38,7.42,9.62.59,6.22,4.34,10.28,8.1,14.71,1.62,1.9,2.77,3.6,5.93,3.23.84,1.63-.71,3.3-2.11,3.79-2.31.89-6.35.83-8.77.01l-5.18-1.54c-8.13-18.87-21.23-31.97-38.91-42.37-6.91-4.06-16.16-4.96-24.04-4.12-3.91.38-7.58-.1-11.02-1.43-.98-.02-17.81,3.95-19.12,4.47-13.97,5.51-30.76,19.64-38.25,32.59-1.48,4.81-3.71,8.61-6.69,11.4-.07.85-1.31.74-1.85.02-1.96.58-7.18.8-9.72.22-2.98-.68,10.86-23.8,14.21-25.4,5.06-11.37,15.27-21.57,27.5-24.74-.87-.31-.86-.67,0-1.08,3.23-.37,6.54-.78,9.93-1.22l-.03-5.01.1-4.76h1.01c.38,2.45.79,4.7,1.22,6.74-.07-1.89,1.15-2.81,3.67-2.76,6.53,1.47,13.21,1.15,20.04-.97,10.36.72,20.61,1.7,30.77,2.95l1,3,.64-.37c-.11-32.72.11-65.27.67-97.67l1.08,89.1Z"/>
        <path class="cls-216" d="M828.77,340.93c.07-1.35,1.28-2.17,1.89-3.12.62-.08,1.25.32,1.28.81-1.2,1.35-2.06,1.91-3.17,2.31Z"/>
        <path class="cls-45" d="M705.94,290.77c0,.47.06,1.23-.86,1.23h-9.08c-23.48,1.06-49.28.88-73,0v-.99s82.94-.24,82.94-.24Z"/>
        <path class="cls-93" d="M762.95,514.1l-4.96.79-6.4,5.59-9.9,2.14c.79,3.74.68,6.98-1.56,8.98-1.68,1.49-5.26,2.61-7.44.71l-2.49-6.51c-.68-1.77-4.37-1.75-5.41-3.48-2.17-3.62-5.17-4.87-9.53-4.3l-3.7-10.48c-.63-1.79-.48-3.63-2.51-3.93-.89-1.99-.83-5.74.01-7.83,1.66-.72,3.43-.24,5.32,1.43,5.21,2.49,10.48,3.69,15.83,3.6.47.25.83.68,1.17,1.18.29.42,1.54,7.98,1.74,9.53-.15,3.06,2.12,4.1,6.83,3.11l.1-7.33,2.02-1.32c-2.86.28-2.79-2.06-.08-2.83l.95-3.68c4.24.97,8.07.75,11.5-.66,3.04-3.72,5.88-5.03,8.52-3.95.84,5.7,1.02,12.51.85,18.6,0,.23-.38.45-.85.66Z"/>
        <path class="cls-48" d="M711.14,556.1c-1.45-.15-1.49-2.9-1.1-4.21-.49-1.88-.91-2.75-1.25-2.61-.81-1.58-.75-3.65-.88-5.27.09-2.36.48-4.97,1.2-7.06,1.14,1.83,4.35,1.91,6.18,2.7,1.01,3.32,1.41,8.42-.02,11.7l-4.12,4.75Z"/>
        <path class="cls-144" d="M861.09,637.89l3.08,8.19c-2.07-.26-4.17-.19-6.29.21-2.97.47-5.85.35-8.62-.35l-3.47-1.65c3.14-.29,4.47-1.45,6.56-2.93l7.42-5.46,1.32,1.99Z"/>
        <path class="cls-133" d="M709.15,466.58c3.3,1.87,2.52,7.4-.13,9.49,2.97.1,2.88,3.31.13,4.12,2.08,4.1,2.72,8.84,1.91,14.23l-2.01,1.37v7.83s.05,33.34.05,33.34c0,2.36.34,5.19-1.2,7.06-1.15-1.26-.94-2.43.07-4.07-1.02-8.11-.78-17,.02-24.96-.84-7.41-.78-16.39,0-24.01-.82-7.89-.79-17.02,0-25-.86-.97-.7-3.76,0-5,.28-.87.6-.86.97,0,3,.01,2.96,4.92.17,5.59Z"/>
        <path class="cls-56" d="M764.58,509.07l.45,25.91c.02,1.31.56,2.82-.87,4.14l-.96-9.22-.25-15.8v-19.26c.43-.83.78-.77,1.04.14.47,4.59.67,9.29.6,14.09Z"/>
        <path class="cls-170" d="M864.17,646.08c.09.24,0,.64-.02.89-11.46.99-25.1.79-37.14,0h-9.03s-4.95-1.01-4.95-1.01h-4.02c3.49-2.3,7.89-.24,12.02-.21l28.24.18c3.56.02,7.86.79,11.22-1.65,1.11.44,2.39,1.7,3.69,1.8Z"/>
        <path class="cls-64" d="M711.14,556.1l2.71,11.2c.35.8.12,1.48-.79,1.34l-3.9-13.68c-.26-.93-.17-2.01-.17-2.98.23-.89.58-.91,1.05-.08,1.1,1.31.75,2.76,1.1,4.21Z"/>
        <path class="cls-106" d="M864.15,646.97l-.15,1.17-3.35-.03-32.58-.16c-.7,0-1.11-.56-1.06-.97h37.14Z"/>
        <path class="cls-203" d="M731.16,324.12l1.97.85c-1.07.9-1.79,2.28-2.16,4.14l-2.61-.41c-8.89,3.89-16.28,9.35-22.17,16.38h-6.18c-.85-.26-1.46-.67-1.82-1.21,1.01-5.98,6.26-12.41,12.28-14.8,4.35-4.99,17-13.63,20.69-4.95Z"/>
        <path class="cls-57" d="M730.97,329.11c.89,1.58.81,5.07.04,6.88.18,1.94-.61,1.94-1.19,0-.74-1.66-1.1-1.36-1.1.89-3.77.35-17.77,5.46-13.54,9.63l.16,1.61c-3.73,3.34-5.8,3.08-6.34-2.18-.23.9-.61.92-1.11.11-.4-.41-1.11-.96-1.71-.96l-2.11-1.49c4.52-5.56,9.78-8.78,15.42-12.18,3.24-1.95,5.84-4.26,10.16-5.12.24.82.58,1.96,1.32,2.82Z"/>
        <path class="cls-50" d="M708.98,391.89c2.66,1.58,3.18,8.38-.06,9.34,2.96,1.34,3.28,9.5.16,10.63-.42,5.78-.78,11.49-1.08,17.13,1.04,9.91.78,21.73,0,32v5c-.29.87-.62.86-1,0l.51-54.46.5-22.54c.28-.87.62-.86.99,0,2.91-.05,2.65,2.24-.04,2.9Z"/>
        <path class="cls-60" d="M643.01,343.99l1.12-2c1.84-.3,9.26-.31,11.3,0,.24.04.4.62.54,1.35,2.85-.21,5.53,0,8.03.65,2.88-.26,5.67-.71,8.37-1.33l.63,1.33c.87.28.86.62,0,1h-57.01c.07-.44.56-.99,1.02-.99.21-.78.52-1.91,1.15-2,1.85-.28,18.96-.37,20.19,0,.88,1.14,2.43,1.8,4.66,2Z"/>
        <path class="cls-147" d="M708.96,353.99c2.12,2.22,3.58,8.79.07,10,.43.1.78.23.89.47.35.8.74,2.64.9,3.58.53,3.26,1.04,12.05-1.93,13.24,2.72,1.45,3.23,6.73.13,7.7h-.99s-.12-42.95-.12-42.95l1.11-.11c2.79,3.85,2.77,6.53-.06,8.06Z"/>
        <path class="cls-138" d="M708.01,490.98c-.28.87-.61.86-.99,0v-25s.99,0,.99,0v25Z"/>
        <path class="cls-101" d="M707.98,539.95c-.74-.33-1.06-1.15-1.22-2l.22-22.97c.3-.87.64-.85,1.02.01l-.02,24.96Z"/>
        <polygon class="cls-206" points="708 514.99 706.98 514.98 707.01 490.98 708.01 490.98 708 514.99"/>
        <path class="cls-123" d="M676.01,343.99c2.2-1.96,5.98-3.83,7.4-.2,1.73-2.17,4.81-3.23,5.78.12.71.47.64.83-.18,1.08h-16s0-1,0-1c.06-2.86,2.32-2.73,3,0Z"/>
        <path class="cls-3" d="M692.88,343.93c2.03-1.76,3.09-1.8,3.18-.13,1.02-1.65,1.68-2.01,2.12.06.9.03,1.64.29,1.82,1.22l-11-.1c-.05-.36.05-.81.18-1.08,1.72-2.2,2.67-3.08,3.7.02Z"/>
        <path class="cls-126" d="M766.18,343.85c.13.53-.26.94-1.17,1.23l-.24,101.95c-1.78-.8-1.33-5.07-.91-7.05-.92-4.43-.73-10.47.11-15-.82-6.71-.76-15.06,0-22-.75-8.24-.68-17.66-.03-26.01-.72-10.49-.92-21.21-.6-32.18l-2.25-.36c-1.49-2.61-4.13-4.5-7.9-5.69-.39.76-.94,1.34-1.62,1.17-3.67-.91-6.66-2.69-9.57-5-1.41-2.03-1.47-2.97-.18-2.79.55-4.28,4.08-2.86,7.15-1.45,4.71,1.67,17.04,8.32,17.2,13.16Z"/>
        <path class="cls-185" d="M764.78,447.03l-.19,62.04-.6-14.09c-.32-12.94-.65-25.94-.97-39-2.88-.37-2.88-2.49-.17-3.39-3.02-.05-2.93-6.81.02-7.49-2.65-1.34-2.95-4.08.15-5.12.18-.88.47-.86.85,0l.91,7.05Z"/>
        <path class="cls-139" d="M802.08,343.97c.51-2.48,2.84-2.48,7.01,0h8.77c2.39-.02,5.25-.53,7.15,1.02h-29c-.87-.29-.86-.63,0-1.01.17-.42.66-.46,1.46-.13.63-.97,2.17-.93,4.61.12Z"/>
        <path class="cls-109" d="M770.2,343.91c-.3-1.61,1.11-1.65,4.22-.11-.15-2.72,2.17-2.71,3.15-.35l4.48.45c.86.35.83.72-.05,1.1l-16.99.08c0-.66.47-1.24,1.17-1.23-.35-1.46.99-1.44,4.02.06Z"/>
        <path class="cls-1" d="M788.07,343.96c-.42-2.84,1.18-1.97,2.69-.2.75-3.32,3.58-1.94,5.25.22v1.01s-14,0-14,0l.05-1.1c.21-1.77,2.21-1.75,6.01.06Z"/>
        <path class="cls-106" d="M817.98,646.99c-1.68,0-3.8.48-4.95-1.01,1.68,0,3.81-.44,4.95,1.01Z"/>
        <path class="cls-149" d="M710.04,551.89l-1.05.08c0-.76.14-2.01-.2-2.69,0-.82-.12-1.81.85-2.39l.4,5Z"/>
        <path class="cls-100" d="M764.01,285.99c.82.65.69,3.22-.29,3.96-2.29-2.7-5.65-1.31-8.43-1.71-3.48-.5-5.9-1.51-9.54-.89l-13.72-1.36c-5.7.68-11.08,3.19-16.82,1.68-2.53-.66-4.9-1.64-6.96.06-.92-.25-.82-2.74-.27-3.74,4.22-.21,6.87-1.99,9.92-5.29,2.88-3.12,11.5.98,15.07-4.76,2.17-1.43,6.04-.88,8.72-.93.34,3.12,2.2,5.03,5.05,5.25,5.2.4,15.56,4.46,17.28,7.74Z"/>
        <path class="cls-65" d="M707.97,283.99l.27,3.74c-.06.8.19,2.06-.89,3.3l-.33-10.04.06-86.07c.36-.09.93.3.93.58l-.04,88.49Z"/>
        <g>
          <path class="cls-66" d="M623.01,291c.87.28.86.61,0,.99-2.64.49-4.61,1.84-5.91,4.06.79.09,1.97.37,2,.93.59,13.07.57,28.98-.08,42.03.58,2.77-.09,4.43-2.01,4.98.27.41-.07.74-1.02.99-1.13,0-1.04-1.27-1.04-2.04l.06-42.96v-9s8,0,8,0Z"/>
          <path class="cls-103" d="M611.56,316.71c1.83-5.11-2.51-10.27,2.32-11.94l-.04,14.98c0,.57-2.37.5-2.51-.47-.11-.78-.26-1.22.23-2.58Z"/>
          <path class="cls-103" d="M612.1,333.26c-.11,2.65.18,4.32-.49,5.75h-1.41s-.31-6.39-.31-6.39c.11-.93,2.28-1.17,2.21.64Z"/>
          <path class="cls-103" d="M610.51,330.01c-.79-.95-.84-2.91-.06-3.99.96.7,1.41,1.16,1.54,1.51s.15,1.5-1.48,2.48Z"/>
        </g>
        <path class="cls-12" d="M690.03,293.19l-.63,2.09c-7.53,1.21-14.41,3.67-20.62,7.37-8.39,7.12-12.27,16.96-15.27,26.98-3.48,3.83-7.04,7.55-10.67,11.14.49,1.11.54,2.18.16,3.22h-26s.09-47.93.09-47.93c.48-2.77,2.82-3.95,7.02-3.54,22.16-.29,44.14-.07,65.92.68Z"/>
        <path class="cls-83" d="M623.01,292h73s0,1.07,0,1.07c-1.64,1.38-5.12,2.69-5.97.13l-65.89-.16c-3,.22-5.38,1.11-7.05,3.02l.04-4.01,5.87-.05Z"/>
        <path class="cls-177" d="M809.09,343.97h-7.01s-1.81-1.06-1.81-1.06c-5.05-7.18-10.24-14.47-15.56-21.86-10.66-11.58-28.63-20.07-44.19-22.28-4.7-.67-7.53-.93-12.08,1.23-20.53,2.32-39.16,16.39-50.46,33.49l-2.36,1.45c2.07-.12-1.52,6.94-1.82,7.24-1.83,1.8-5.55,1.58-7.94.78-.86-2.27,1.45-4.05,2.07-5.89,2.28-6.77,5.97-11.54,10.32-16.9,3.5-4.31,7.12-7.64,12.01-10.97l7.65-5.2,12.25-6.91,7.57-1.39,8.58-2.33c2.85-.78,3.71-1.46,6.27,0,4.48,2.54,10.63-.62,15,.09,3.96.64,6.41,1.32,10.1,1.4,5.59.12,17.04,9.82,23.8,14.38,6.26,4.22,11.01,9.1,14.76,15.61l4.71,8.19c1.7,2.95,4.26,4.6,4.68,8.52.52.96,2.75,1.81,3.45,2.41Z"/>
        <path class="cls-58" d="M696,293.07c-.97,2.92-4.19,3.04-6.71,4.31-4.27,2.16-15.68,13.47-16.52,15.99-1.24,3.71-2.4,5.72-5.01,8.37-5.69,5.79-9.08,13.52-12.19,20.95l8.43.31c.87.29.86.63,0,1h-21c-.85-1.02-2.09-1.18-4.03-1.31l4.92-6.74c5.88-3.23,10.19-8.72,10.39-15.73.09-3.31,3.14-5.2,4.26-7.56,4.02-8.49,10.47-14.42,19.68-16.63l11.8-2.84c1.97-.47,4-.16,5.97-.13Z"/>
        <path class="cls-87" d="M678.93,334.7c1.84-.24,1.83.81-.05,3.17,3.03,2.87.9,5.55-2.87,6.12h-3s-9,0-9,0v-1s1.86-.02,1.86-.02l6.01-.17c-.44-3.87,2.47-5.57,3.75-7.85,1.84-2.03,2.94-2.11,3.3-.25Z"/>
        <path class="cls-206" d="M730.92,484.88c.69.68.89,2.06.62,4.13,2.28.27,1.68.93-.46,1.83-.02,3.26.71,5.46,2.19,6.59l.71,7.4c3.01-.15,5.71.23,8.08,1.12l-.15,10.95-9.48-.38c-2.04-4.44-1.37-8.5-1.24-14.25-3.22,1.69-5.48.5-8.26-.23-5.18-1.35-10.34-2.49-13.88-6.28l.1-15.6,2.17-.72c4.63,4.94,9.89,7.86,15.78,8.76,1.05-2.82,2.32-3.93,3.81-3.34Z"/>
        <path class="cls-32" d="M763.01,480.98c.86,3.96.81,9.7-.05,13.85-7.01,3.07-6.02,9.48-19,6.43-1.08-.25-1.84,1.4-1.97,1.87-1.88.16-2.58-1.4-2.09-4.68,1.27-.75,1.9-2.34,1.91-4.76-3.08-.26-2.28-3.65.5-4.35,1.84-1.64,4.44-2.77,7.8-3.38,2.49-3.65,9.24-7.98,12.9-4.98Z"/>
        <path class="cls-97" d="M741.81,493.7l.17,9.44.08,2.83c-2.64,1.8-6.26,1.04-9.83.71-1.03-5.54-1.01-10.59-1.15-15.83l2.55.64c-.02,4.09,2.71,4.83,8.17,2.22Z"/>
        <path class="cls-148" d="M731.01,468.98c.94,3.02.84,7.84,0,11,.96.64.86,3.89-.08,4.9-.92.47-.8,2.63-1.42,3.67-3.19,5.4-13.83-2.33-20.35-8.37l-.13-4.12c.65-4.72,3.78-4.11,7.63-2.98,3.55,2,7.23,3.49,11.05,4.46-.23-3.08.59-4.95,2.47-5.62-3.56-.82-2.85-5.4.83-4.94.88.23.78,1.49,0,2Z"/>
        <path class="cls-21" d="M729.78,459.88c-.83-.35-.76-.65.16-.9.31-.87.66-.86,1.07,0,1.06,2,.82,5.86,0,8-1.73,1.15-.76,3.38-.83,4.94-1.31,5.89-16.39-.96-20.39-2.99l-.63-2.35-.17-5.59c-.84-1-.72-3.78,0-5,1.66-2.14,4.05-1.75,7.19,1.16,8.26,8.27,12.25,9.74,11.96,4.39l1.64-1.66Z"/>
        <path class="cls-138" d="M730.18,471.92c-.11,2.62-.54,5.2.12,7.73-9.79.51-15.48-9.22-21.27-3.59l.13-9.49,16.07,5.96c1.53.6,3.75-.51,4.95-.61Z"/>
        <path class="cls-143" d="M709.23,429.75c3,1.11,3,10.02-.12,11.04,3.21.71,2.84,7.96,0,9.07,3,.1,2.73,5.67-.13,6.12v5s-.98,0-.98,0v-32c-.18-1.93.59-1.93,1.15,0,.89-.03.87.23.07.76Z"/>
        <path class="cls-186" d="M763.98,494.98c-.36-.1-.77-.07-1.03-.14l.05-13.85c-3.18-.52-2.74-7.44.05-8.64-3.21-.2-3.1-9.65-.15-10.49-2.97-.07-2.79-5.25.11-5.87.37-.06.99.36.99,1.07l-.03,37.93Z"/>
        <path class="cls-155" d="M729.79,319.17c.57.14.98.75,1.23,1.82,1,0,.85,1.64.11,2.27.89.15.88.44.03.86-6.11-5.62-12.87-.28-19.97,6.1-9.08,3.41-8.89,10.67-13,13.65l-2.12-.06c-.93-4.91,3.38-9.97,7.11-13.36,4.45-4.05,19.06-14.62,24.9-13.18.86.21,1.37,1.07,1.72,1.91Z"/>
        <path class="cls-184" d="M741.96,324.05c2.85.45,2.82,2.56.07,3.4,1.91.34,1.82,1.1-.12,1.5l-7.81.78c.04,1.37-.62,1.92-2.08,2.26,1.19.14.72,3.03-.02,4-.28.87-.62.86-1,0l-.04-6.88.19-4.99-.03-.86c.2-.9.54-.93,1.03-.12.61-.92,1.85-1.14,3.74-.66,4.09-1.5,6.11-.98,6.06,1.56Z"/>
        <path class="cls-162" d="M729.82,335.99c.9.38.87,1.57.1,2.1-.76,2.05-2.98,3.36-6.65,3.93-3.28.89-3.8,2.88-1.54,5.96-.08,6.96.62,16,7.2,19.78l.95,4.5c.96,1.39.87,5.57-.02,7.46-2.26,3.57-9.31-4.25-11.23-6.68-2.11-2.67-4.21-7.99-3.76-11.42-.12-2.85-1.98-5.17-3.99-7.05-1.14,2.41-1.52,1.95-1.93-.58l.06-8.06c.6.64,1.08,1.37,1.49,2.76.97-.64,1.85-.79,3.68-.98-1.19-.98-2.11-2.01-2.21-3.25-.09-1.1,1.13-2.47,2.35-3.14l9.23-5.05c1.48-.81,4.81.66,5.97-2.41.34.85.34,1.35.3,2.12Z"/>
        <path class="cls-108" d="M731.01,369.99c-.3.87-.65.86-1.05,0-.87-.31-1.71-1.15-2-2.11-.41-1.36-.69-27.09-.02-28.34.41-.78,1.19-1.19,2-1.45l-.1-2.1h1.19c.78,10.84,1,23.16,0,34Z"/>
        <path class="cls-86" d="M729.84,403.73c1.06,1.94.9,6.66.17,9.26l-2.01,1.09c-8.91-3.21-15.14-14.3-19.03-22.19l.04-2.9-.13-7.7c1.5-2.76,3.72-.93,5.63.95,3.88,7.32,8.67,13.55,14.35,18.7l.97,2.8Z"/>
        <path class="cls-20" d="M731.01,418.99c-.36,2.72-.69,5.37-.99,7.96l-2.05.96c-6.47-5.19-12.77-10.54-18.88-16.05l-.16-10.63c1.16-1.82,2.32-2,3.92-.66,4.5,5.54,9.45,10.55,14.84,15.05.19-1.5.58-2.35,2.34-2.63l-.17-9.26c-2.11-1.86-3.08-3.84.18-4.74.28-.87.61-.86.99,0,.75,6.2.89,13.77,0,20Z"/>
        <path class="cls-121" d="M730.01,412.99l-.35,5.76c-4.42-1.66-8.02-4.65-10.39-9.02-4.43-2.94-6.32-8.49-10.36-8.49l.06-9.34c5.28-.05,5.83,11.38,12.51,15.63l8.52,5.46Z"/>
        <path class="cls-166" d="M709.11,421.79c2.91.66,3.02,6.43.05,7.19h-1.16s-.07-15.07-.07-15.07c0-1.23.58-1.64,1.15-2.06,3.15.58,2.99,9.14.03,9.93Z"/>
        <path class="cls-69" d="M711.06,364.8l2.3.43c3.81,5.14,6.86,10.67,9.16,16.6,4.66,3.95,7.05,8.12,7.44,14.27.9-.02.75,2.17.05,2.89l-.18,4.74c-12.78-6.08-12.65-21.07-20.95-22.44l.14-17.3c1.29-2.67,2.59-2.12,2.04.81Z"/>
        <path class="cls-57" d="M710.89,354.58c3.81,2.49,6.99,12.3.17,10.22-.2-.62-1.44-.89-2.04-.81l-.07-10,1.93.58Z"/>
        <path class="cls-195" d="M731.06,304.05c2.23.22,2.21,1.62-.08,4.2,1.96.15,2.02.96.2,1.73-5.25-.61-8.34.87-13.07,3.34l-4.38.63c-12.72,6.55-21.7,15.63-27.37,28.67l-2.95,1.16-7.4.2c1.84-1.46,2.4-3.86,2.87-6.12,3.1-7.99,7.85-12.69,14.12-18.07,8.06-6.91,19.69-15.05,30.24-17.16,1.64-.33,8.35-.43,7.82,1.41Z"/>
        <path class="cls-137" d="M731.18,309.99c1.08-.24.97.54-.33,2.32,2.67-.09,2.7.54.09,1.88-4.95-1.14-11.15,1.61-15.91,4.08-10.08,5.23-19.95,13.13-23.29,24.45l-2.56,1.19-5.78-.12,4.07-7.22c2.39-4.21,3.65-7.59,7.32-10.97,1.35-1.24,2.03-4.08,4.94-3.88,3.91-4.02,8.44-6.96,13.42-9.64,3.88-.06,7.22-1.34,10.16-3.62,3.1-.91,6.11-.72,7.86,1.54Z"/>
        <path class="cls-192" d="M730.94,314.2c.58.07.65.83.2,2.29l1.33.06c-.64,1.38-1.13,2.86-1.46,4.45-.8-.19-1.24-1.01-1.23-1.82-3.2-2.66-6.96-1.28-11.1.51-6.73,2.91-16.22,10.76-20.69,16.72-.96,3.86-2.67,6.37-5.12,7.54l-3.7-.02c2.69-5.45,4.42-12.05,9.57-16.17l10.53-8.43c2.99-2.39,5.98-2.53,9.24-4.02l6.81-3.12c2.39-1.1,4.54-.27,5.61,2.03Z"/>
        <path class="cls-76" d="M729.79,319.17c-7.4-.48-15.07,2.43-19.97,8.72-7.04,3.01-11.27,9.2-13.75,15.92l-3.18.13c2.23-1.69,2.39-4.87,3.48-7.56,2.17-5.4,7.63-7.86,11.68-11.29,6.62-5.61,13.07-8.57,21.84-10l-.1,4.09Z"/>
        <path class="cls-119" d="M763.36,344.8c.19,7.3.04,14.5-.47,21.6-1.69,5.01-4.26,9.52-7.7,13.52-2.21,3.53-4.62,4.97-7.21,4.33-.93,0-2.13-.35-2.17-1.13-.2-3.74,8.65-16.74,11.51-19.93l.06-3.05c-2.45-5.51-3.12-9.83,1.93-14.03-1.86-1.33-1.87-1.44-.38-2.98l-1.84-1.1c-4.06-.73-5.35-1.81-3.88-3.26,3.02.81,9.13,2.15,10.15,6.05Z"/>
        <path class="cls-212" d="M770.2,343.91l-4.02-.06c-3.57-5.11-9.08-6.91-14.67-9.45-3.15-1.43-6.08-5.1-9.68-2.27-1.96-2.32-1.93-3.38.08-3.19l.12-1.5c.34-.84.87-1.53,1.68-1.96,3.47-1.85,27.13,11.97,26.5,18.42Z"/>
        <path class="cls-135" d="M753.2,338.75c.56,2.59,4.58,1.28,5.72,4.37l-1.51,1.72-11.61-2.88c-.11.91-1,1.34-2.66,1.28,1.02,1.72.36,2.12-1.22.79-.88.16-.87-.05-.06-.59l-1.88-7.22,2.02-1.3c2.65-2.44,3.97,1.87,11.19,3.82Z"/>
        <path class="cls-197" d="M741.83,332.14l.18,2.79c-5.5,5.6-12.25,5.69-8.49-2.86.6-2.86,9.07-4.49,8.3.07Z"/>
        <path class="cls-172" d="M763.96,376.98c-.18.9-.5.92-.96.1-3.45-.77-2.58-8.74-.12-10.68l.47-21.6.6,32.18Z"/>
        <path class="cls-156" d="M763.99,402.99c-.28.87-.61.86-.98,0-.77-.02-1.52-.24-1.99-.9-.4-.56-.02-12.64,2.16-13.08-3.39-.9-2.86-9.89-.18-11.93l.96-.1.03,26.01Z"/>
        <path class="cls-88" d="M763.98,424.99c-.33.87-.68.84-1.06-.03-3.05-1.08-2.99-9.47.1-10.88-3.13.27-3.07-9.52-.07-10.26-.87-.23-.83-.51.05-.84h.98s0,22.01,0,22.01Z"/>
        <path class="cls-84" d="M763.87,439.98h-.85c-2.89-.31-2.93-2.42-.25-3.39-3.06.3-2.64-6.14.2-6.67-2.93-.27-2.84-4.31-.04-4.96l1.06.03-.11,15Z"/>
        <path class="cls-171" d="M742.97,437.9c1.49.45,2.21,1.64,2.16,3.58l2.03,1.05,12.92-7.64c1.35-.66,2.17.27,2.69,1.7l.25,3.39-.15,5.12c-2.04,2.22-9.02,7.57-14.02,9.51-5.11,1.98-6.26,1.79-6.73-3.95-1.05-2.6-1.02-6.7-.15-9.71l-1.99-.79c.18-1.48.86-2.87,2.03-4.18,2.69-1.42,3.43.12.96,1.92Z"/>
        <path class="cls-39" d="M762.85,452.59l.17,3.39-.11,5.87c-1.63,2.62-5.21,4.56-8.04,5.76-9.42,3.98-12.34,4.67-12.92-6.65-1.02.06-.71-2.33.25-2.82,1.73-.57,3.75-.82,6.08-.77l12.25-6.98c1.61-.51,2.34.49,2.32,2.21Z"/>
        <path class="cls-72" d="M762.87,445.1l-.02,7.49c-1.31-.79-2.19-.27-3.61.59l-8.73,5.29c-3.06,1.86-5.74,1.59-8.32-.34-.83-.06-.99-1.23-.48-3.5-3.42-.78-1.74-2.25.4-3.97.51,1.08,1.41,3.1,2.46,3.16,1.3.08,2.81-.65,3.94-1.32l11.36-6.72,1.58-1.55c.24-.24,1.08.51,1.42.87Z"/>
        <path class="cls-193" d="M800.27,342.91c.67-.14,1.58.32,1.81,1.06l-4.61-.12-4.7-1.63c-11.17-16.52-27.6-34.51-48.58-36.17l-1.92-1.73c-3.76-.34-7.5-.43-11.2-.27-7.47-2.29-22.99,4.67-29.78,10.41l-16.65,14.06c.04,4.48-2.91,7.05-5.75,9.34.2-.94.2-2.27.05-3.17-.7-.25-1.24-.49-1.23-.69.56-7.26,25.01-25.25,31.71-28.5,5.06-2.45,13.26-5.57,18.68-5.44,7.3-3.58,17.77-.62,25.42,1.73,11.5,3.54,22.92,11.54,31.58,19.69l15.18,21.42Z"/>
        <path class="cls-73" d="M797.47,343.85l-1.46.13-5.25-.22c-2.18-.93-4.13-2.35-5.87-4.28-9.78-13.79-23.5-27.99-41.3-29.32l-1.49-1.61c-1.94-.07-1.96-.84-.1-1.52-2.57-1.21-2.57-2.09.26-2.7,6.1-1.06,12.59.67,18.18,4.34l13.8,9.05c9.23,6.05,12.34,14.51,17.91,20.19,1.87,1.91,2.68,5.08,5.31,5.95Z"/>
        <path class="cls-16" d="M782.05,343.9l-7.63-.1c-3.48-.55-6.29-2.88-8.44-6.97-7.21-6.73-15.21-11.68-24-14.84-2.65-.29-2.55-1.19-.01-1.95-2.91-.45-2.71-2.21-.02-2.99-.84-.37-.8-.71.09-1.01,1.28-2.56,8.35-.46,10.97.55,8.54,3.26,23.36,15.27,26.29,24.14,2.1-.13,3.73,1.04,2.75,3.17Z"/>
        <path class="cls-7" d="M774.42,343.8l-4.22.11c-1.71-.69-3.25-2.06-4.04-3.99-1.3-3.15-4.63-3.47-6.93-5.14-5.4-3.95-10.66-7.49-17.21-7.33l-.07-3.4c-2.63-.83-2.57-1.17.02-2.06,2.7-2.2,5.16-.41,7.85.91,5.61,2.75,17.44,11.61,20.57,16.59,1.2,1.9,1.57,3.93,4.02,4.3Z"/>
        <path class="cls-208" d="M790.75,343.76l-2.69.2c-5.84-1.11-10.18-4.9-13.02-11.38-7.49-8.58-21.02-17.01-32.14-18.66l-.25-1.55c-1.68,1.12-2.12.47-.92-1.22-2.57-1.36-2.5-1.96.36-2.61,3.59-1.39,6.49-.04,10.06,1.23,7.6,2.69,14.52,6.06,19.7,12.36,6.08,3.66,9.17,10.16,13.74,15.21,1.99,2.2,4.27,3.73,5.16,6.43Z"/>
        <path class="cls-8" d="M788.07,343.96l-6.01-.06c-.57-.97-2.23-1.64-4.58-.81-1.25-7.39-5.88-12-11.97-15.7-4.57-2.78-8.31-7.81-13.7-9.05l-9.76-2.29c-1.96-.1-2.09-.89-.25-1.59-2.53-1.22-1.85-2.43.86-2.08,1.54.92,4.14.28,6.28.77,8.93,2.06,15.25,8.45,22.56,13.31,8.31,5.53,7.38,13.19,16.58,17.51Z"/>
        <path class="cls-90" d="M800.27,342.91c-1.99.43-2.03-1.11-2.93-2.29l-8.18-10.84-6.94-9.97-14.94-10.16c-6.92-4.7-13.59-7.31-21.94-8.32-3.8-.46-8.82-4.45-12.88-1.54-2.1,1.51-3.7,3.19-6.96,1.67-3.23-1.51-6.27,2.48-8.65,2.99-6,1.29-9.37,3.16-13.88,6.46l-9.76,7.14c-6.88,5.04-14.49,15.4-14.28,16.65l-3.3.25c3.26-5.83,7.77-10.57,12.44-16.06l11.99-9.73c4.58-3.72,10.94-5.46,15.8-7.48,10.23-4.25,20.95-5.83,31.71-2.35,4.93,1.59,10.24,1.31,14.83,4.27,11.35,7.31,24.23,13.74,29.64,25.62l4.95,6.86c1.58,2.18,3.24,4.15,3.28,6.84Z"/>
        <path class="cls-115" d="M732.18,481.9c1.66.49,2.43,2.15,2.33,4.99h7.4c2.8-.09,2.91,1.3.4,2.45l-.5,4.35c-.82,1.25-.91,2.61-1.14,4.01-3.02-1.27-5.57-.79-8.74-.41.26-2.85.36-4.83-.84-6.45l-.16-5.96.08-4.9c.29-.87.63-.86,1.01,0,2.83.22,2.44.52.17,1.92Z"/>
        <path class="cls-174" d="M763.06,472.34l-.05,8.64-8.88,2.97c-1.91,5.07-7.39,5.51-11.82,5.39l-.4-2.44-1.99-1.07c.57-2.13,1.25-4.43,2.04-6.9-2.36-.5-2.88-2.66-.54-3.1l.06-4.52c-.62-.6-.29-2.01.56-2.36l2.49.3c.38,6.7,5.05,7.7,13.98,3,2.18-2.17,3.7-2.14,4.55.08Z"/>
        <path class="cls-122" d="M732.09,450.17c2.35.37,3,2.14.59,2.74l-.46,4.36c2.01-.07,2.01,1.31.01,4.15,2.75,0,2.69,1.25-.16,3.73,2.95-.21,2.8,3.13.02,3.83-.31.87-.67.86-1.08,0v-2s0-8,0-8c-.91-2.68-.95-7.27,0-10,.28-.87.62-.86,1.01,0,.43-.15.45.25.07,1.19Z"/>
        <path class="cls-214" d="M732.07,471.13c2.67.19,2.67,1.86,0,5.01,2.92.03,2.75,3.27-.06,3.85h-1.01s0-11,0-11h1.08c1.34-.81,1.33-.09-.01,2.14Z"/>
        <path class="cls-118" d="M729.83,448.83c1.04,2.3.93,7.28.1,10.16l-.16.9c-.93,1.95-2.68,2.11-5.23.51-5.02-4.11-10.17-7.61-15.43-10.52v-9.07s.7-2.32.7-2.32c6.43,2.73,12.9,5.42,19.42,8.07l.61,2.29Z"/>
        <path class="cls-30" d="M729.78,459.88c.65,1.73,1.06,6.74-2.01,6.86-7.52.3-11.67-10.28-18.78-10.76l.13-6.12c6.6-4.07,9.99,8.65,20.67,10.02Z"/>
        <path class="cls-30" d="M731.01,448.98v10s-1.07,0-1.07,0l-.1-10.16c-.86-.25-.82-.53.06-.84.32-.87.69-.86,1.11,0,.65.29.64.63,0,1Z"/>
        <path class="cls-180" d="M729.96,439.81c.88,1.74.83,6.02-.07,8.17l-.06.84-6.66-2.13-11.77-6.1c-.83-.43-1.66-.19-2.29.19l.12-11.04c-.17-2.58.46-2.96,2.75-1.95l11.95,9.93c2.25.46,4.26,1.16,6.04,2.08Z"/>
        <path class="cls-95" d="M731.01,421.99c.9,3.99.81,9.81,0,14-.27,1.36-.61,2.63-1.04,3.83-2.54,1.14-5.37,1.08-7.89-.97l-9.94-8.11c-.41-.33-.88-1.38-1.58-1.48-.41-.05-.87.1-1.32.5,0-.23-.07-.53-.07-.76l-.05-7.19c.91-1.93,2.03-2.21,3.76-1.09,4.72,4.4,9.73,8.34,15.03,11.82-.53-3.03.17-4.89,2.12-5.58.06-2.64-.74-5.79.99-7.96.84.21.68,2.3,0,3Z"/>
        <path class="cls-120" d="M762.9,461.85l.15,10.49c-1.55-.61-2.51,1.33-3.76,1.75l-8.36,2.81c-1.79.6-4.15.54-5.57-.55-2.53-1.93-1.6-5.4-3.32-7.38-.69-.05-.85-.59-.49-1.62l-1.69-2.07c1.32-.51,2-1.76,2.04-3.75-.89,0-.84-.19.04-.58,2.24,1.38.44,5.35,2.01,6.61,2.72,2.2,11.22-1.82,16.88-5.78.87-.61,1.46-.47,2.08.06Z"/>
        <path class="cls-33" d="M741.79,314.46l.25,1.59-.09,1.01c-2.91,1.43-6.14,2.54-9.68,3.33,2.97.28,2.46,2.24-.11,2.76l-1.03.12-.11-2.27.13-4.51c-1.02-6.47,8.45-6.16,10.65-2.03Z"/>
        <path class="cls-25" d="M732.01,337.99c1.11,2.91,1.11,4.57,0,5,.79,15.9.91,31.88.34,47.93.89.42.65,2.6-.36,3.07-.28.87-.6.86-.97,0-.88-7.36-.93-16.43,0-24v-34s1,0,1,0c1.28,1.08,1.98,1.85,0,2Z"/>
        <path class="cls-168" d="M741.91,328.95l-.08,3.19c-.16-.74-.96-2.08-1.3-1.8l-1.69,1.35-5.32.38c-.29,1.91-1.05,1.85-1.5-.08,0-2.11-.26-4.16.37-6.26,2.88,5.16,7.88-.42,9.51,3.23Z"/>
        <path class="cls-163" d="M741.96,320.04v1.95s0,2.06,0,2.06c-1.98-1.55-5.56,1.37-9.8-.9l.11-2.76c.36-.46.73-.84,1.19-.97,1.94-.55,9.19-2.09,8.51.63Z"/>
        <path class="cls-165" d="M742.01,334.93l-.15,8.52-2.38-.19c-4.59,2.99-7.27-.4-7.48-5.26v-2s.02-4,.02-4l1.5.08c-.51,1.78-.64,3.61-.11,5.39,2.77-.9,5.51-1.49,7.14-4.62.37.79.8,1.44,1.45,2.09Z"/>
        <path class="cls-31" d="M729.95,369.99c.89.17.73,1.77-.07,2.28-.39-.93-1.37-3.07-2.52-3.35-3.78-.93-3.61-4-5.02-6.26-5.34-8.56.76-14.4-5.46-18.15,3.68-4.56,8.26-5.42,13.04-6.42l.03,31.9Z"/>
        <path class="cls-19" d="M729.87,379.73c1.06,4.64.91,11.41.1,16.37-1.47-5.35-5.08-8.99-9.07-13.16l-4.21-9.57c-2.31-2.92-4.59-5.39-5.61-8.57,1.15-.81,3.45-2.79,2.6-4.48l-2.78-5.74c3.66,1.06,4.87,4.31,5.49,8.29.31,2.04,2.48,4.16,1.75,6.89l8.71,8.5c.88.86,2.07,1.23,3.03,1.47Z"/>
        <path class="cls-129" d="M731.01,393.99c.84,1,.73,3.78,0,5h-.99s-.05-2.89-.05-2.89l-.1-16.37.02-7.46.07-2.28h1.05s0,24,0,24Z"/>
        <path class="cls-159" d="M730.01,426.95l-.18,8.48c-11.02-3.51-15.32-14.17-20.72-13.63l-.03-9.93c3.97-2.93,6.47,4.31,15.2,10.78l5.73,4.31Z"/>
        <path class="cls-9" d="M742.26,304.32l-.26,2.7-2.14,1.28c-2.96-.42-5.92-.44-8.88-.05-.15-1.35.37-2.76.08-4.2,1.35-3.26,10.85-3.15,11.2.27Z"/>
        <path class="cls-188" d="M742,307.02l.1,1.52-.36,2.61-2.15,1.11c-2.81-.6-5.72-.58-8.73.05l.33-2.32-.2-1.73c2.34-3.45,7.59-2.69,11.01-1.23Z"/>
        <path class="cls-169" d="M741.73,311.15c.24.33.52.99.92,1.22l-.86,2.08-9.36-1.27-1.28,3.29-.2-2.29-.09-1.88c2.26-3.38,7.7-2.99,10.88-1.16Z"/>
        <path class="cls-217" d="M747.96,384.24c3.27,4.05-5.44,7.22-5.81,1-1.1-3.34-.93-8.52-.17-12.26,2.33-5.29,5.85-9.95,10.56-13.98-1.22-6.41.37-11.14,4.76-14.17l1.99,1.27c-1.01,2.26-2.63,4.48-3.13,7.9,3.05,2.3,4.75,9.19,1.82,11.63-3.38,2.82-4.1,4.94-5.76,8.87-1.3,3.08-5.37,5.85-4.27,9.74Z"/>
        <path class="cls-102" d="M758.92,343.12c1.3.28.74,2.16.38,2.98-5.11,2.1-5.68,6.65-4.48,11.71.18,3.34-4.34,5.73-5.99,7.82-2.38,3.02-3.74,5.85-6.84,7.36-.6-.08-1.07-.17-1.08-.3-.32-3.7-.35-9.29-.06-13,.02-.24.5-.45,1.11-.65,1.26-2.06,2.98-4.13,5.14-6.2,3.37-5.43,2.38-7.91-2.98-7.44l-.98-2.15c.24-.92,1.38-3.22,2.76-2.92l13.02,2.8Z"/>
        <path class="cls-205" d="M763,377.08c-2.31,5.7-5.33,11.13-9.07,16.3-5.09,5.12-10.99,7.72-11.91-1.39-.97-1.13-.77-5.12.14-6.74.95.83,2.1,1.64,3.18,1.57,1.53-.11,1.86-2.05,2.62-2.57,4.02-2.74,10.76-11.84,10.98-13.25.37-2.47,1.52-4.33,3.94-4.6l.12,10.68Z"/>
        <path class="cls-22" d="M741.86,343.44l.06.59c3.04.9,2.77,4.17-.4,4.6-7.5.92-7.16,5.09-.8,7.99.64,6.55.35,12.85-.87,18.92-.24,4.2-1.46,5.49-3.68,3.88-1.84-3.01-2.91-6.48-3.22-10.42-.19-8.62-.5-17.29-.95-26v-5c.86,2.6,1.46,4.08,3.51,4.24,3.38.27,4.34-.72,5.15-3.56.45,2.25.23,3.6,1.2,4.77Z"/>
        <path class="cls-55" d="M741.96,359.04c-2.66-1.91-3.07-8.41-.43-10.41.37-1.52.54-3.06.4-4.6.33-.16.99-.48,1.22-.79l6.87.94c2.62.34.04,13.81-8.05,14.86Z"/>
        <path class="cls-225" d="M763,377.08l.18,11.93c-1.35,2.1-1.73,3.27-1.95,6.79-.68,1.38-10.38,11.14-11.88,11.85-5.85,2.75-6.63-.75-7.4-5.68-1.07-2.5-.86-7.29.07-9.98l2.2,3.69c6.08,1.88,11.37-7.14,14.7-14.74.97-2.21,1.57-3.64,4.08-3.86Z"/>
        <path class="cls-161" d="M763.18,389.01l-.17,13.97-.05.84c-1.2,1.96-3.06,3.64-5.56,5.05-4.22,5.99-9,8.77-14.36,8.33l-1.05-4.22c-.99-2.51-.7-6.99-.01-10.09-.89-.18-.87-.49-.02-.93.95.23,1.03,2.85,1.7,3.45,3.36,3,6.34-.53,8.51-3.3,2.33-2.97,6.89-4.42,7.65-8.36l.71-3.71c.16-.86,1.94-1.11,2.67-1.04Z"/>
        <path class="cls-130" d="M762.96,403.82l.07,10.26c-2.2,3.35-6.77,7.98-10.42,10.31-5.18,3.29-10.05,3.75-10.65-3.42l-1.94-.92c1.11-1.09,1.89-2.79,2.36-5.08-2.11.36-2.36-1.15-.38-1.99l1.96,3c3.48-.52,6.21-2.12,8.31-4.73,2.95-3.66,9.46-8.94,10.69-7.43Z"/>
        <path class="cls-194" d="M763.03,414.08l-.1,10.88c-4.38,3.32-8.9,6.47-13.54,9.45-4.54,2.37-7,.22-7.4-6.43-1.12-1.19-.69-4.26,0-6.02-.88-.26-.88-.59-.03-.99l2.65,3.8c11.39-.77,12.61-10.97,18.43-10.69Z"/>
        <path class="cls-28" d="M762.92,424.96l.04,4.96c-4.34,4.99-8.62,9.88-15.64,10.75-2.27.28-4.34-.16-4.37-2.77.07-.82-.17-1.63-.96-1.92-1.29-.07-.48-1.96,0-3.06-1.26.54-1.27-.45-.02-2.96-2.61-.3-2.5-1.25,0-1.98,1.27.57,1.12,2.24,1.45,3.6.44,1.77,2.67,1.85,3.96,1.57s1.93-1.59,3.43-2.47l8.08-4.76c.89-.53,1.4-1.81,2.4-1.76.49.03,1.13.37,1.62.79Z"/>
        <path class="cls-128" d="M762.97,429.92l-.2,6.67c-3.68-.81-8.81,5.75-15.47,7.89-1.19-.02-3.11-1.01-3.72-1.78-.89-1.13-.72-3.51-.61-4.79,9.32,3.87,16.06-7.8,18.51-8.55.41-.12,1.09.22,1.49.57Z"/>
        <path class="cls-92" d="M742.12,450.66l-.4,3.97c.14,1.19-.1,1.98-.72,2.36-1.7.37-3.61-.25-5.73-1.85-.59,1.49-1.15,2.28-3.04,2.12l-.13-7.09c.11-4.94,1.53-6.87,4.24-5.81,2.07,1.74,3.53,2.12,4.39,1.15-1.35-4.16-.93-5.68,1.24-4.55l.15,9.71Z"/>
        <path class="cls-75" d="M742,435.99l-.04,4.97c-1.17,1.12-1.29,2.96-1.24,4.55-1.73.56-2.68-.31-2.87-2.61-2.29-1.2-3.31-.74-3.06,1.38l-2.45,1.27c-1.22-1.01-1.32-5.07-.04-6.03.03-2.25.46-4.36,1.26-6.35,2.88-.23,5.7-.31,8.44-.24v3.06Z"/>
        <path class="cls-141" d="M742.19,458.13l-.25,2.82-.04.58-1.05,4.78c-2.93.03-5.86-.35-8.78-1.16l.16-3.73.58-2.93c1.74-1.54,4.46-2.03,8.17-1.49l.72-2.36.48,3.5Z"/>
        <path class="cls-191" d="M741.95,317.06l.02,2.99c-1.93-2.17-4.57,2.56-9.7.34.06-1.16-.52-2.34.15-3.34,3.71,2.5,6.86-1.77,9.53.01Z"/>
        <path class="cls-214" d="M741.91,486.91c-.54.75-.93,1.49-1.28,2.86-2.64-1.09-5.3-.94-8.58-.76l.13-7.1c.83-2.98,4.09-3.97,9.78-2.97l-.04,7.97Z"/>
        <path class="cls-62" d="M741.95,478.94c-.98.95-1.12,2.15-1.24,4.13-2.26-2.8-5.81-2.73-8.53-1.16l-.17-1.92.06-3.85,1.04-3.65c2.84-.38,5.63-.77,8.36-1.16.96,2.47.49,5.05.48,7.62Z"/>
        <path class="cls-122" d="M742.04,468.96l-.56,2.36-.77,4.87c-1.22-1.77-2.25-2.4-4.15-2.43s-3.6.46-4.47,2.38v-5.01c.25-4.07,3.41-5.33,9.47-3.78.05.43.21,1.29.49,1.62Z"/>
        <path class="cls-179" d="M740.72,445.51c.06,1.96.91,4.04-.32,6.72-.73-3.79-3.18-6.42-7.2-6.33-.05,2.05-.4,3.24-1.12,4.27l-.07-1.19c-.94-.76-.81-2.78.32-3.43.64-1.65.84-3.26.64-5.62,2.41.32,4.66.42,6.51,1.6l1.24,3.97Z"/>
        <path class="cls-91" d="M741.55,467.34c-.56,1.03-.67,1.9-.87,3.84-1.26-1.65-2.31-2.33-4.12-2.37s-3.62.44-4.49,2.31v-2.14s0-3.83,0-3.83l1.28-1.73,7.23,1.25,1.33-3.14c-.14,1.92.19,3.93-.35,5.81Z"/>
        <path class="cls-70" d="M740.99,456.99c-.37,1.23.18,2.75-.43,4.09-1.6-2.03-3.1-2.22-5.03-2.21-1.48.01-2.88.65-3.3,2.53.06-1.28-.47-2.88-.01-4.15s1.11-2.26,1-4.95c2.95.97,6.04,1.93,7.77,4.68Z"/>
        <path class="cls-92" d="M732,428.99c.93,1.06.51,3.49,0,5l2.04.7c-1.3.88-1.88,2.49-1.74,4.83-.56,1.93-.28,4.05.04,6.03-.4,1.03-.39,2.35-.32,3.43h-1.01s0-.99,0-.99c-1-3.32-.78-8.32,0-12v-14c.28-.88.62-.87,1.01-.01,1.09,1.4.72,5.18-.02,7.01Z"/>
        <path class="cls-118" d="M731.01,447.98h-1.11s.07-8.17.07-8.17c.01-1.35-.29-3.01,1.04-3.83v12Z"/>
        <path class="cls-202" d="M732,406.99c1.12,3.51.76,8.18.12,12.06,2.56.57,2.3,1.96-.1,2.93h-1.01s0-2.99,0-2.99v-20s0-5,0-5h.97c1.21,3.44.73,9.18.02,13Z"/>
        <path class="cls-221" d="M732.95,368.99l1.85,7.88c1.05,5.72.23,10.4-2.46,14.05l-.34-47.93c.62.1,1.1.87,1.09,1.95l-.14,24.06Z"/>
        <path class="cls-96" d="M739.85,375.54c.39,3.15.77,6.63,1.14,10.45.92,1.98.76,16.75-.59,16.95-1.57.22-2.35-1.54-2.44-3.11-1.2-8.41-3.73-1.58-2.95,3.83l-2.04,1.3c2.47.43,2.45,1.26.03,2.04-.28.87-.62.86-1,0l-.02-13,.36-3.07c.85-7.16.57-14.6.61-21.92,1.46,3.2,2.38,6.36,4.9,9.63,1.41-1.05,1.53-2.21,2-3.08Z"/>
        <path class="cls-79" d="M742.16,385.24l-.14,6.74-.07,9.98.02.93c-.55,12.32-1.99,14.2-4.33,5.63-2.25-.78-3.8-1.97-4.66-3.58l.44-14.2c1.97,2.71,3.66,4.49,6.46,3.69.22,2.59-.5,5.14.8,7.67l.31-16.12c-.8-1.66-.84-12.93-.29-13.37.21-.16.7.05,1.29.37l.17,12.26Z"/>
        <path class="cls-77" d="M741.52,348.63c.71,3.38.42,6.95.43,10.41l.03,13.95c-.51.25-1.05.88-1.04,1.91l.05,11.09c-.63-.08-1.03-.86-1.04-1.92l-.1-8.53-.13-17.31c-.01-1.39-3.85-1.7-4.84-1.76-.58-2.54-1.33-5.74-.05-7.81l3.96-1.41c1.04-.37,1.22-2.35,1.71-3.52l1.03,4.91Z"/>
        <path class="cls-10" d="M741.99,412.98l.38,1.99c-.73,1.63-1.17,3.45-1.32,5.45-1.87-.07-3.16-1.43-3.85-4.07-2.64-.41-3.57-1.57-4.03-4.18-1.01-.58-.85-3.92-.17-5.19l-.03-2.04c1.86-.1,3.77.69,5.2,1.5,2.32,1.3,1.72,3.86,2.17,6.61,1.77-3.05-.71-7.89,1.62-10.16v10.09Z"/>
        <path class="cls-59" d="M742.37,414.97l-.42,6,.03.99-.55,2.03c.54,5.02-.55,6.21-3.27,3.58.09-3.48-3-5.03-3.06-1.47l-2.06,1.86c.85.37.8.71-.08,1.03-.22.88-.54.85-.94,0l.02-7.01c0-.79-.31-2.23.1-2.93.18-2.5.53-4.8,1.06-6.87,1.65,1.39,3.42,2.12,6.17,2.59.42,1.65.16,3.14,1.55,4.56l.25-3.53c.03-.42.55-.88,1.21-.82Z"/>
        <path class="cls-202" d="M741.98,421.96v6.02s0,1.98,0,1.98c-.43,4.3-2.17,4.54-5.22.72-1.95-.27-3.19-1.18-3.73-2.72.16-1.89-.11-3.86.4-5.56,2.48-.07,4.18-.56,6.39.87-.08,1.71-.42,3.59,1.03,4.8.03-2.58-.55-4.9,1.12-6.11Z"/>
        <path class="cls-68" d="M741.98,429.97l.02,2.96c-1.39,1.08-1.56,2.91-1.39,5.2-1.1-2.82-3.2-3.93-7-3.13l-1.31,4.52-.3-5.53c.29-1.77.6-3.44.95-4.99l.08-1.03c3.18.03,6.33.89,7.43,4.32l1.51-2.32Z"/>
        <path class="cls-202" d="M732,433.99v-5s.95,0,.95,0c-.14,1.65.48,3.83-.95,4.99Z"/>
        <path class="cls-79" d="M733.18,412.17c.08,2.38.13,4.82-1.06,6.87l-.12-12.06h1s.17,5.18.17,5.18Z"/>
      </g>
    </g>
  </g>
</svg>