<?xml version="1.0" encoding="UTF-8"?>
<svg id="Layer_1" data-name="Layer 1" xmlns="http://www.w3.org/2000/svg" viewBox="0 0 1722.59 1024">
  <defs>
    <style>
      .cls-1 {
        fill: #212827;
      }

      .cls-2 {
        fill: #3d321b;
      }

      .cls-3 {
        fill: #6d5a32;
      }

      .cls-4 {
        fill: #47473b;
      }

      .cls-5 {
        fill: #3a433f;
      }

      .cls-6 {
        fill: #dcb968;
      }

      .cls-7 {
        fill: #585038;
      }

      .cls-8 {
        fill: #997737;
      }

      .cls-9 {
        fill: #73643f;
      }

      .cls-10 {
        fill: #283c4a;
      }

      .cls-11 {
        fill: #f1d082;
      }

      .cls-12 {
        fill: #d4b161;
      }

      .cls-13 {
        fill: #535141;
      }

      .cls-14 {
        fill: #324047;
      }

      .cls-15 {
        fill: #ac7e2c;
      }

      .cls-16 {
        fill: #11304e;
      }

      .cls-17 {
        fill: #84703d;
      }

      .cls-18 {
        fill: #293a46;
      }

      .cls-19 {
        fill: #5b4b25;
      }

      .cls-20 {
        fill: #b17f28;
      }

      .cls-21 {
        fill: #916f2f;
      }

      .cls-22 {
        fill: #d7b261;
      }

      .cls-23 {
        fill: #4e4f3f;
      }

      .cls-24 {
        isolation: isolate;
        opacity: .75;
      }

      .cls-24, .cls-25 {
        fill: #c8a047;
      }

      .cls-26 {
        fill: #c4a051;
      }

      .cls-27 {
        fill: #8f7238;
      }

      .cls-28 {
        fill: #907842;
      }

      .cls-29 {
        fill: #313f45;
      }

      .cls-30 {
        fill: #092f57;
        stroke-width: 27px;
      }

      .cls-30, .cls-31 {
        stroke: #0a3058;
        stroke-miterlimit: 10;
      }

      .cls-32 {
        fill: #303c42;
      }

      .cls-33 {
        fill: #b6944b;
      }

      .cls-34 {
        fill: #504c37;
      }

      .cls-35 {
        fill: #f4d589;
      }

      .cls-36 {
        fill: #e6c270;
      }

      .cls-37 {
        fill: #343930;
      }

      .cls-38 {
        fill: #826b3b;
      }

      .cls-39 {
        fill: #233947;
      }

      .cls-40 {
        fill: #50482b;
      }

      .cls-41 {
        fill: #233744;
      }

      .cls-42 {
        fill: #6f623e;
      }

      .cls-43 {
        fill: #9c8144;
      }

      .cls-44 {
        fill: #565543;
      }

      .cls-45 {
        fill: #edcb7b;
      }

      .cls-46 {
        fill: #1b354b;
      }

      .cls-47 {
        fill: #a5792c;
      }

      .cls-48 {
        fill: #a4731c;
      }

      .cls-49 {
        fill: #4c3a1a;
      }

      .cls-50 {
        fill: #2a3d47;
      }

      .cls-51 {
        fill: #3d4746;
      }

      .cls-52 {
        fill: #967230;
      }

      .cls-53 {
        fill: #203649;
      }

      .cls-54 {
        fill: #79663d;
      }

      .cls-55 {
        fill: #5d583d;
      }

      .cls-56 {
        fill: #1a2224;
      }

      .cls-31 {
        fill: none;
        stroke-width: 60px;
      }

      .cls-57 {
        fill: #8d6b2c;
      }

      .cls-58 {
        fill: #4a4d42;
      }

      .cls-59 {
        fill: #8c6b2a;
      }

      .cls-60 {
        fill: #6b5e3d;
      }

      .cls-61 {
        fill: #052851;
      }

      .cls-62 {
        fill: #9c7329;
      }

      .cls-63 {
        fill: #3a423e;
      }

      .cls-64 {
        fill: #20374a;
      }

      .cls-65 {
        fill: #816f40;
      }

      .cls-66 {
        fill: #293332;
      }

      .cls-67 {
        fill: #755518;
      }

      .cls-68 {
        fill: #18334b;
      }

      .cls-69 {
        fill: #5c5235;
      }

      .cls-70 {
        fill: #6a5521;
      }

      .cls-71 {
        fill: #645c41;
      }

      .cls-72 {
        fill: #79663b;
      }

      .cls-73 {
        fill: #a17930;
      }

      .cls-74 {
        fill: #a68947;
      }

      .cls-75 {
        fill: #e4c06d;
      }

      .cls-76 {
        fill: #45412c;
      }

      .cls-77 {
        fill: #ceab5d;
      }

      .cls-78 {
        fill: #665c3a;
      }

      .cls-79 {
        fill: #3f4744;
      }

      .cls-80 {
        fill: #7d5b17;
      }

      .cls-81 {
        fill: #19344c;
      }

      .cls-82 {
        fill: #1b3347;
      }

      .cls-83 {
        fill: #ae8d48;
      }

      .cls-84 {
        fill: #4c4f45;
      }

      .cls-85 {
        fill: #ba994f;
      }

      .cls-86 {
        fill: #1e2d32;
      }

      .cls-87 {
        fill: #092238;
      }

      .cls-88 {
        fill: #4c4b3b;
      }

      .cls-89 {
        fill: #987e42;
      }

      .cls-90 {
        fill: #474739;
      }

      .cls-91 {
        fill: #243744;
      }

      .cls-92 {
        fill: #5f5840;
      }

      .cls-93 {
        fill: #2c3b42;
      }

      .cls-94 {
        fill: #dbb868;
      }

      .cls-95 {
        fill: #c9a657;
      }

      .cls-96 {
        fill: #665734;
      }

      .cls-97 {
        fill: #8f7036;
      }

      .cls-98 {
        fill: #113150;
      }

      .cls-99 {
        fill: #3a413e;
      }

      .cls-100 {
        fill: #7e622f;
      }

      .cls-101 {
        fill: #3e4744;
      }

      .cls-102 {
        fill: #9e7731;
      }

      .cls-103 {
        fill: #fadc8e;
      }

      .cls-104 {
        fill: #846b39;
      }
    </style>
  </defs>
  <g>
    <path class="cls-31" d="M652.36,518.82c-21.62,18.3-81.11,9.49-99.41-4.17-10.08-7.52-21.84-17.27-26.14-28.82-5.98-16.1-5.77-33.42-5.39-50.31.53-23.32-1.66-43.9,0-67.19"/>
    <rect class="cls-30" x="503.42" y="127.9" width="28.81" height="195.03" transform="translate(743.24 -292.41) rotate(90)"/>
    <rect class="cls-30" x="504.78" y="137.73" width="32.7" height="315.98"/>
    <g>
      <path class="cls-61" d="M493.79,375.24c3.36,1.9,2.57,7.5-.13,9.62,3.03.11,2.94,3.36.13,4.17,2.12,4.15,2.77,8.96,1.95,14.42l-2.05,1.39v7.94s.05,33.8.05,33.8c0,2.39.35,5.26-1.22,7.16-1.17-1.28-.96-2.46.07-4.12-1.04-8.22-.79-17.23.02-25.3-.86-7.51-.8-16.61,0-24.34-.83-8-.81-17.25,0-25.34-.88-.99-.71-3.82,0-5.07.28-.89.61-.87.99,0,3.05.01,3.02,4.99.18,5.67Z"/>
      <path class="cls-96" d="M516.2,230.81l2.01.87c-1.09.91-1.82,2.31-2.2,4.2l-2.66-.42c-9.06,3.95-16.58,9.48-22.58,16.61h-6.3c-.87-.26-1.49-.68-1.86-1.23,1.03-6.06,6.38-12.58,12.51-15,4.43-5.06,17.32-13.82,21.07-5.02Z"/>
      <path class="cls-21" d="M516.01,235.87c.91,1.6.83,5.14.04,6.97.18,1.97-.62,1.96-1.21,0-.75-1.68-1.12-1.38-1.12.9-3.84.36-18.1,5.53-13.79,9.76l.16,1.63c-3.8,3.38-5.91,3.12-6.45-2.21-.24.91-.62.94-1.13.11-.41-.42-1.13-.97-1.75-.97l-2.15-1.51c4.61-5.64,9.96-8.9,15.71-12.35,3.3-1.97,5.95-4.32,10.34-5.19.24.83.59,1.98,1.34,2.86Z"/>
      <path class="cls-19" d="M493.61,299.52c2.71,1.6,3.24,8.5-.06,9.47,3.01,1.36,3.34,9.63.17,10.77-.43,5.86-.8,11.65-1.1,17.36,1.06,10.05.8,22.03,0,32.44v5.07c-.29.88-.63.87-1.02,0l.52-55.21.51-22.85c.29-.88.63-.87,1.01,0,2.97-.05,2.7,2.27-.04,2.94Z"/>
      <path class="cls-67" d="M493.59,261.09c2.16,2.25,3.65,8.91.07,10.13.44.1.8.23.91.48.36.81.76,2.67.91,3.63.54,3.31,1.06,12.22-1.96,13.43,2.77,1.47,3.29,6.82.13,7.81h-1.01s-.12-43.54-.12-43.54l1.13-.11c2.84,3.9,2.82,6.62-.06,8.17Z"/>
      <path class="cls-64" d="M492.62,399.98c-.29.89-.62.87-1.01,0v-25.35s1.01,0,1.01,0v25.34Z"/>
      <polygon class="cls-98" points="492.62 424.32 491.58 424.31 491.61 399.98 492.62 399.98 492.62 424.32"/>
      <path class="cls-56" d="M460.03,250.95c2.24-1.99,6.09-3.89,7.54-.2,1.76-2.2,4.9-3.27,5.89.12.72.47.66.84-.18,1.1h-16.3s0-1.02,0-1.02c.07-2.9,2.37-2.77,3.06,0Z"/>
      <path class="cls-2" d="M477.22,250.89c2.07-1.79,3.15-1.83,3.24-.13,1.04-1.68,1.71-2.04,2.16.06.91.03,1.67.3,1.86,1.24l-11.2-.1c-.05-.37.05-.83.18-1.1,1.75-2.23,2.72-3.12,3.77.02Z"/>
      <path class="cls-57" d="M551.88,250.81c.13.54-.26.95-1.19,1.24l-.24,103.36c-1.82-.81-1.35-5.14-.93-7.14-.93-4.49-.75-10.61.12-15.2-.83-6.8-.78-15.27,0-22.3-.76-8.36-.69-17.9-.03-26.37-.73-10.63-.93-21.51-.61-32.63l-2.29-.36c-1.52-2.64-4.21-4.57-8.05-5.77-.39.77-.96,1.36-1.65,1.19-3.74-.92-6.79-2.73-9.75-5.07-1.43-2.06-1.49-3.01-.18-2.83.56-4.34,4.16-2.9,7.28-1.47,4.79,1.69,17.35,8.44,17.52,13.34Z"/>
      <path class="cls-86" d="M550.45,355.42l-.2,62.9-.61-14.29c-.33-13.12-.66-26.3-.99-39.54-2.93-.38-2.93-2.52-.17-3.44-3.08-.05-2.99-6.9.02-7.59-2.7-1.36-3.01-4.13.15-5.19.19-.89.48-.87.86,0l.93,7.14Z"/>
      <path class="cls-49" d="M555.97,250.87c-.3-1.63,1.13-1.67,4.3-.11-.15-2.76,2.21-2.75,3.21-.36l4.56.45c.88.36.84.73-.05,1.11l-17.31.08c0-.67.48-1.25,1.19-1.24-.36-1.48,1.01-1.46,4.09.06Z"/>
      <path class="cls-1" d="M574.17,250.92c-.43-2.88,1.2-2,2.74-.2.77-3.36,3.65-1.97,5.35.22v1.03s-14.26,0-14.26,0l.05-1.11c.21-1.79,2.25-1.77,6.12.06Z"/>
      <path class="cls-82" d="M595.58,250.93h-7.14s-1.84-1.07-1.84-1.07c-5.14-7.28-10.43-14.67-15.84-22.16-10.85-11.74-29.16-20.35-45-22.59-4.79-.68-7.66-.95-12.31,1.25-20.91,2.35-39.89,16.62-51.4,33.95l-2.4,1.47c2.11-.12-1.54,7.04-1.85,7.34-1.87,1.82-5.65,1.6-8.08.79-.88-2.3,1.48-4.11,2.11-5.97,2.32-6.86,6.08-11.7,10.51-17.13,3.57-4.37,7.25-7.75,12.23-11.12l7.79-5.27,12.48-7,7.71-1.41,8.74-2.37c2.9-.79,3.77-1.48,6.38,0,4.56,2.58,10.82-.63,15.28.09,4.03.65,6.52,1.34,10.29,1.42,5.69.12,17.36,9.96,24.24,14.58,6.38,4.28,11.22,9.23,15.03,15.83l4.8,8.3c1.73,2.99,4.34,4.66,4.77,8.63.53.97,2.8,1.84,3.51,2.44Z"/>
      <path class="cls-39" d="M463.01,241.53c1.88-.25,1.86.82-.05,3.22,3.08,2.91.91,5.63-2.92,6.21h-3.06s-9.17,0-9.17,0v-1.02s1.9-.03,1.9-.03l6.12-.17c-.45-3.92,2.52-5.65,3.82-7.96,1.87-2.06,2.99-2.14,3.36-.25Z"/>
      <path class="cls-98" d="M515.97,393.79c.7.69.91,2.09.63,4.19,2.32.28,1.71.94-.47,1.86-.02,3.3.73,5.53,2.23,6.68l.72,7.51c3.07-.15,5.81.23,8.23,1.14l-.15,11.1-9.65-.38c-2.08-4.51-1.4-8.62-1.26-14.45-3.28,1.72-5.58.51-8.42-.23-5.27-1.37-10.53-2.53-14.14-6.36l.1-15.82,2.21-.73c4.72,5.01,10.08,7.97,16.08,8.88,1.07-2.86,2.37-3.99,3.88-3.38Z"/>
      <path class="cls-16" d="M548.64,389.84c.88,4.02.83,9.84-.05,14.05-7.14,3.11-6.13,9.61-19.35,6.52-1.1-.26-1.87,1.42-2.01,1.9-1.92.17-2.63-1.42-2.12-4.75,1.29-.76,1.94-2.37,1.95-4.82-3.14-.27-2.32-3.7.51-4.41,1.87-1.66,4.52-2.81,7.94-3.43,2.54-3.7,9.41-8.09,13.14-5.05Z"/>
      <path class="cls-46" d="M527.05,402.73l.18,9.57.08,2.87c-2.68,1.82-6.38,1.05-10.01.71-1.04-5.62-1.03-10.74-1.17-16.05l2.6.65c-.02,4.15,2.76,4.89,8.32,2.25Z"/>
      <path class="cls-68" d="M516.05,377.67c.96,3.06.86,7.94,0,11.15.97.64.88,3.94-.08,4.96-.94.48-.82,2.67-1.44,3.72-3.25,5.47-14.08-2.36-20.73-8.49l-.13-4.17c.66-4.78,3.85-4.17,7.77-3.02,3.62,2.03,7.37,3.54,11.25,4.52-.24-3.12.6-5.02,2.52-5.7-3.63-.84-2.9-5.47.84-5.01.89.24.8,1.51,0,2.03Z"/>
      <path class="cls-10" d="M514.8,368.44c-.85-.35-.77-.65.16-.91.31-.89.68-.87,1.09,0,1.08,2.02.83,5.94,0,8.11-1.76,1.17-.78,3.43-.84,5.01-1.34,5.97-16.69-.98-20.77-3.03l-.65-2.39-.18-5.67c-.86-1.01-.73-3.83,0-5.07,1.69-2.17,4.13-1.78,7.32,1.18,8.41,8.39,12.47,9.87,12.19,4.45l1.67-1.68Z"/>
      <path class="cls-64" d="M515.21,380.66c-.11,2.66-.55,5.27.12,7.84-9.98.51-15.77-9.35-21.66-3.64l.13-9.62,16.37,6.04c1.55.61,3.82-.52,5.04-.62Z"/>
      <path class="cls-66" d="M493.87,337.89c3.06,1.13,3.05,10.16-.13,11.2,3.27.72,2.9,8.07,0,9.2,3.06.1,2.78,5.75-.13,6.21v5.07s-1,0-1,0v-32.44c-.18-1.96.6-1.96,1.18,0,.9-.03.89.24.07.77Z"/>
      <path class="cls-87" d="M545.08,406.8c-.37-.1,3.77-2.84,3.51-2.91l.05-14.05c-3.24-.53-2.79-7.55.05-8.76-3.27-.2-3.16-9.78-.16-10.64-3.02-.07-2.84-5.32.12-5.95.38-.06,1.01.36,1.01,1.08l-4.59,41.22Z"/>
      <path class="cls-69" d="M514.81,225.78c.58.14,1,.76,1.25,1.85,1.02,0,.86,1.66.11,2.31.9.15.89.44.03.87-6.22-5.69-13.11-.28-20.34,6.18-9.25,3.46-9.06,10.81-13.24,13.84l-2.16-.06c-.94-4.98,3.44-10.11,7.24-13.55,4.53-4.11,19.41-14.82,25.36-13.36.88.22,1.39,1.08,1.75,1.93Z"/>
      <path class="cls-85" d="M527.2,230.73c2.9.46,2.87,2.6.07,3.45,1.94.34,1.85,1.11-.12,1.52l-7.95.79c.04,1.39-.63,1.95-2.12,2.29,1.21.14.73,3.07-.02,4.06-.29.89-.63.87-1.02,0l-.04-6.97.19-5.06-.03-.87c.2-.91.55-.94,1.05-.12.62-.93,1.89-1.16,3.81-.67,4.16-1.52,6.22-.99,6.18,1.58Z"/>
      <path class="cls-73" d="M514.85,242.84c.92.38.89,1.59.1,2.13-.77,2.08-3.03,3.41-6.77,3.99-3.34.9-3.87,2.92-1.57,6.04-.09,7.05.63,16.23,7.33,20.06l.96,4.57c.98,1.4.88,5.65-.02,7.56-2.3,3.62-9.48-4.3-11.43-6.77-2.15-2.71-4.29-8.11-3.83-11.58-.12-2.89-2.02-5.24-4.07-7.15-1.16,2.44-1.55,1.98-1.97-.59l.06-8.17c.61.65,1.1,1.39,1.52,2.8.99-.65,1.88-.8,3.75-1-1.21-.99-2.14-2.03-2.25-3.29-.1-1.11,1.15-2.5,2.39-3.18l9.4-5.12c1.5-.82,4.9.67,6.08-2.44.35.86.35,1.37.3,2.15Z"/>
      <path class="cls-48" d="M516.05,277.31c-.31.89-.67.87-1.07,0-.89-.32-1.74-1.17-2.04-2.14-.42-1.38-.7-27.46-.02-28.73.42-.79,1.21-1.21,2.04-1.47l-.1-2.13h1.21c.79,10.99,1.02,23.48,0,34.47Z"/>
      <path class="cls-38" d="M514.86,311.52c1.08,1.97.92,6.75.18,9.39l-2.05,1.1c-9.08-3.25-15.42-14.5-19.38-22.49l.04-2.94-.13-7.81c1.53-2.79,3.79-.94,5.74.96,3.96,7.42,8.83,13.74,14.62,18.95l.99,2.83Z"/>
      <path class="cls-9" d="M516.05,326.98c-.37,2.76-.7,5.45-1.01,8.07l-2.09.97c-6.59-5.26-13-10.69-19.23-16.27l-.17-10.77c1.18-1.84,2.37-2.02,3.99-.67,4.59,5.61,9.62,10.7,15.11,15.25.2-1.52.59-2.38,2.38-2.67l-.18-9.39c-2.15-1.89-3.13-3.89.18-4.81.28-.89.62-.87,1.01,0,.77,6.29.9,13.96,0,20.28Z"/>
      <path class="cls-54" d="M515.04,320.91l-.35,5.84c-4.5-1.68-8.17-4.72-10.58-9.15-4.51-2.98-6.43-8.6-10.55-8.61l.06-9.47c5.38-.05,5.93,11.53,12.74,15.85l8.68,5.54Z"/>
      <path class="cls-76" d="M493.75,329.83c2.96.67,3.08,6.52.05,7.29h-1.18s-.07-15.28-.07-15.28c0-1.25.59-1.67,1.17-2.09,3.2.58,3.05,9.26.03,10.07Z"/>
      <path class="cls-27" d="M495.74,272.05l2.34.43c3.88,5.21,6.99,10.82,9.33,16.83,4.74,4,7.18,8.23,7.57,14.47.92-.02.77,2.2.05,2.93l-.18,4.81c-13.01-6.16-12.89-21.36-21.34-22.75l.14-17.54c1.31-2.71,2.63-2.15,2.07.82Z"/>
      <path class="cls-21" d="M495.56,261.69c3.88,2.53,7.11,12.47.18,10.36-.2-.63-1.47-.9-2.07-.82l-.07-10.13,1.97.59Z"/>
      <path class="cls-93" d="M516.11,210.46c2.27.22,2.25,1.64-.08,4.26,1.99.15,2.06.97.2,1.76-5.35-.62-8.49.88-13.31,3.39l-4.46.63c-12.96,6.64-22.1,15.84-27.88,29.07l-3.01,1.18-7.54.2c1.87-1.48,2.44-3.91,2.92-6.21,3.16-8.1,7.99-12.87,14.38-18.32,8.21-7.01,20.05-15.26,30.8-17.39,1.67-.33,8.5-.44,7.97,1.43Z"/>
      <path class="cls-63" d="M516.23,216.48c1.1-.24.99.54-.34,2.36,2.72-.09,2.75.55.1,1.91-5.04-1.16-11.35,1.64-16.2,4.14-10.27,5.3-20.32,13.31-23.73,24.79l-2.6,1.2-5.89-.12,4.14-7.32c2.43-4.26,3.72-7.7,7.46-11.12,1.37-1.26,2.07-4.13,5.03-3.93,3.98-4.07,8.6-7.06,13.67-9.78,3.95-.06,7.36-1.36,10.35-3.67,3.15-.92,6.23-.73,8.01,1.56Z"/>
      <path class="cls-90" d="M515.99,220.75c.59.07.66.84.2,2.32l1.36.06c-.66,1.4-1.15,2.9-1.49,4.51-.82-.19-1.27-1.03-1.25-1.85-3.26-2.69-7.08-1.3-11.3.52-6.85,2.95-16.53,10.9-21.07,16.95-.98,3.91-2.72,6.46-5.21,7.64l-3.77-.02c2.74-5.53,4.5-12.22,9.75-16.39l10.73-8.55c3.04-2.42,6.09-2.56,9.41-4.08l6.93-3.17c2.44-1.11,4.62-.28,5.71,2.06Z"/>
      <path class="cls-34" d="M514.81,225.78c-7.53-.49-15.35,2.46-20.34,8.84-7.17,3.05-11.47,9.32-14.01,16.14l-3.24.13c2.27-1.71,2.44-4.93,3.54-7.67,2.21-5.48,7.77-7.97,11.9-11.45,6.75-5.68,13.31-8.69,22.25-10.14l-.1,4.15Z"/>
      <path class="cls-52" d="M549,251.77c.2,7.4.04,14.7-.48,21.9-1.72,5.08-4.34,9.65-7.84,13.71-2.25,3.57-4.7,5.04-7.35,4.39-.95,0-2.17-.35-2.21-1.14-.21-3.79,8.81-16.97,11.72-20.21l.06-3.09c-2.5-5.58-3.18-9.96,1.97-14.22-1.89-1.35-1.9-1.46-.38-3.02l-1.88-1.12c-4.14-.74-5.45-1.84-3.95-3.31,3.07.83,9.3,2.18,10.34,6.13Z"/>
      <path class="cls-100" d="M555.97,250.87l-4.09-.06c-3.63-5.18-9.25-7.01-14.94-9.58-3.21-1.45-6.19-5.17-9.86-2.3-1.99-2.35-1.97-3.43.08-3.23l.12-1.52c.35-.85.89-1.56,1.71-1.99,3.53-1.87,27.64,12.13,26.99,18.68Z"/>
      <path class="cls-62" d="M538.66,245.64c.57,2.62,4.66,1.29,5.82,4.43l-1.54,1.75-11.82-2.92c-.11.92-1.02,1.36-2.71,1.3,1.04,1.75.37,2.15-1.24.8-.9.16-.88-.05-.06-.6l-1.91-7.32,2.06-1.31c2.7-2.48,4.04,1.9,11.4,3.88Z"/>
      <path class="cls-94" d="M527.07,238.93l.18,2.83c-5.6,5.68-12.48,5.77-8.64-2.9.61-2.9,9.23-4.56,8.46.07Z"/>
      <path class="cls-80" d="M549.61,284.4c-.18.91-.51.93-.98.1-3.51-.78-2.63-8.86-.12-10.83l.48-21.9.61,32.63Z"/>
      <path class="cls-70" d="M549.64,310.76c-.29.88-.62.87-1,0-.79-.02-1.55-.25-2.03-.91-.41-.57-.02-12.82,2.2-13.26-3.45-.92-2.92-10.03-.18-12.1l.98-.1.03,26.37Z"/>
      <path class="cls-40" d="M549.64,333.07c-.33.88-.69.85-1.07-.03-3.11-1.1-3.05-9.6.1-11.03-3.18.28-3.13-9.65-.07-10.4-.88-.23-.84-.52.05-.85h1s0,22.31,0,22.31Z"/>
      <path class="cls-37" d="M549.52,348.27h-.86c-2.94-.32-2.99-2.46-.25-3.44-3.12.31-2.69-6.23.2-6.76-2.98-.27-2.9-4.37-.04-5.03l1.07.03-.12,15.2Z"/>
      <path class="cls-79" d="M528.23,346.16c1.52.46,2.26,1.67,2.2,3.63l2.07,1.07,13.16-7.75c1.37-.67,2.21.27,2.74,1.72l.25,3.44-.15,5.19c-2.08,2.25-9.19,7.67-14.28,9.64-5.2,2.01-6.37,1.82-6.86-4-1.06-2.64-1.04-6.79-.16-9.85l-2.03-.8c.18-1.5.87-2.91,2.07-4.23,2.74-1.44,3.49.12.98,1.94Z"/>
      <path class="cls-18" d="M548.48,361.05l.17,3.44-.12,5.95c-1.66,2.66-5.3,4.62-8.19,5.83-9.6,4.03-12.56,4.73-13.16-6.74-1.04.06-.72-2.36.26-2.86,1.76-.57,3.82-.83,6.2-.78l12.48-7.08c1.64-.52,2.38.5,2.36,2.24Z"/>
      <path class="cls-29" d="M548.51,353.46l-.02,7.59c-1.33-.8-2.23-.28-3.68.6l-8.89,5.37c-3.12,1.88-5.84,1.61-8.47-.34-.84-.06-1.01-1.24-.49-3.55-3.48-.79-1.77-2.28.41-4.02.52,1.09,1.43,3.14,2.51,3.2,1.33.08,2.86-.66,4.01-1.34l11.57-6.82,1.61-1.57c.25-.24,1.1.52,1.45.88Z"/>
      <path class="cls-91" d="M586.6,249.86c.68-.15,1.61.32,1.84,1.08l-4.69-.12-4.79-1.65c-11.37-16.75-28.11-34.99-49.48-36.67l-1.96-1.75c-3.83-.34-7.64-.43-11.41-.27-7.6-2.32-23.42,4.74-30.33,10.55l-16.96,14.26c.04,4.55-2.97,7.15-5.86,9.47.2-.96.2-2.3.05-3.22-.71-.26-1.27-.5-1.25-.7.57-7.36,25.48-25.6,32.3-28.9,5.15-2.49,13.5-5.64,19.03-5.51,7.44-3.63,18.1-.63,25.89,1.76,11.72,3.59,23.35,11.7,32.17,19.97l15.46,21.71Z"/>
      <path class="cls-32" d="M583.74,250.81l-1.49.13-5.35-.22c-2.22-.94-4.21-2.39-5.98-4.34-9.96-13.98-23.94-28.38-42.06-29.73l-1.51-1.64c-1.97-.07-1.99-.85-.1-1.54-2.62-1.23-2.62-2.11.27-2.74,6.21-1.07,12.82.68,18.52,4.4l14.06,9.18c9.4,6.14,12.57,14.71,18.25,20.47,1.9,1.93,2.73,5.15,5.4,6.03Z"/>
      <path class="cls-7" d="M568.04,250.86l-7.77-.1c-3.54-.56-6.41-2.92-8.6-7.07-7.34-6.83-15.49-11.84-24.44-15.04-2.7-.3-2.6-1.21-.01-1.97-2.97-.46-2.76-2.24-.02-3.03-.86-.37-.81-.72.1-1.03,1.31-2.6,8.5-.46,11.17.55,8.7,3.31,23.8,15.49,26.78,24.47,2.14-.13,3.79,1.05,2.8,3.21Z"/>
      <path class="cls-3" d="M560.27,250.76l-4.3.11c-1.74-.7-3.31-2.09-4.12-4.05-1.33-3.2-4.72-3.52-7.05-5.22-5.51-4-10.85-7.59-17.52-7.43l-.07-3.45c-2.68-.84-2.62-1.18.02-2.09,2.75-2.23,5.25-.42,8,.92,5.72,2.79,17.76,11.77,20.95,16.82,1.22,1.93,1.6,3.98,4.09,4.36Z"/>
      <path class="cls-99" d="M576.9,250.72l-2.74.2c-5.94-1.13-10.36-4.97-13.26-11.54-7.63-8.69-21.41-17.25-32.74-18.91l-.26-1.57c-1.71,1.13-2.16.47-.94-1.24-2.62-1.38-2.55-1.99.37-2.64,3.65-1.41,6.61-.04,10.25,1.24,7.74,2.73,14.79,6.14,20.06,12.53,6.19,3.71,9.34,10.3,14,15.42,2.03,2.23,4.35,3.78,5.26,6.52Z"/>
      <path class="cls-4" d="M574.17,250.92l-6.12-.06c-.58-.99-2.27-1.66-4.67-.82-1.28-7.49-5.99-12.16-12.19-15.92-4.65-2.82-8.47-7.91-13.95-9.18l-9.94-2.33c-2-.1-2.13-.9-.25-1.61-2.58-1.24-1.88-2.46.88-2.11,1.57.93,4.22.28,6.39.78,9.1,2.09,15.53,8.56,22.97,13.49,8.46,5.6,7.52,13.37,16.89,17.75Z"/>
      <path class="cls-41" d="M586.6,249.86c-2.03.43-2.07-1.12-2.98-2.32l-8.34-10.99-7.07-10.11-15.22-10.3c-7.04-4.77-13.84-7.41-22.35-8.43-3.87-.46-8.99-4.51-13.12-1.56-2.14,1.53-3.77,3.24-7.09,1.69-3.29-1.53-6.38,2.51-8.81,3.03-6.12,1.31-9.55,3.2-14.13,6.55l-9.94,7.24c-7.01,5.11-14.76,15.61-14.55,16.88l-3.36.25c3.32-5.91,7.92-10.72,12.67-16.28l12.22-9.87c4.67-3.77,11.14-5.53,16.09-7.58,10.42-4.31,21.34-5.91,32.3-2.39,5.02,1.61,10.43,1.33,15.11,4.33,11.56,7.41,24.68,13.93,30.19,25.98l5.04,6.95c1.6,2.21,3.3,4.2,3.34,6.93Z"/>
      <path class="cls-50" d="M517.24,390.77c1.69.5,2.48,2.18,2.37,5.06h7.54c2.86-.09,2.96,1.32.41,2.48l-.51,4.41c-.83,1.26-.93,2.64-1.16,4.07-3.08-1.28-4.34-3.15-7.56-2.77.26-2.89-.96-2.55-2.19-4.19l-.17-6.04.08-4.96c.29-.89.64-.87,1.03,0,2.89.23,2.49.53.17,1.95Z"/>
      <path class="cls-81" d="M548.69,381.08l-.05,8.76-9.04,3.01c-1.95,5.14-7.53,5.58-12.04,5.47l-.41-2.47-2.03-1.09c.58-2.16,1.27-4.49,2.08-7-2.41-.51-2.94-2.7-.55-3.14l.06-4.58c-.63-.61-.29-2.03.57-2.39l2.53.3c.39,6.8,5.14,7.81,14.24,3.04,2.22-2.2,3.77-2.17,4.64.08Z"/>
      <path class="cls-55" d="M517.16,358.6c2.39.37,3.05,2.17.6,2.78l-.47,4.42c2.04-.07,2.05,1.33.01,4.21,2.8,0,2.74,1.27-.17,3.79,3-.21,2.85,3.17.02,3.89-.32.89-.68.87-1.1,0v-2.03s0-8.11,0-8.11c-.93-2.71-.97-7.37,0-10.14.29-.89.63-.88,1.03,0,.44-.15.46.25.07,1.21Z"/>
      <path class="cls-101" d="M517.14,379.85c2.72.19,2.72,1.89,0,5.08,2.97.03,2.8,3.32-.06,3.9h-1.03s0-11.15,0-11.15h1.1c1.36-.82,1.36-.1-.01,2.17Z"/>
      <path class="cls-51" d="M514.86,357.24c1.06,2.33.95,7.38.1,10.3l-.16.91c-.95,1.97-2.73,2.14-5.33.51-5.12-4.16-10.36-7.72-15.72-10.67v-9.2s.71-2.35.71-2.35c6.55,2.76,13.14,5.49,19.78,8.18l.62,2.33Z"/>
      <path class="cls-14" d="M514.8,368.44c.66,1.75,1.08,6.83-2.05,6.96-7.66.3-11.88-10.43-19.13-10.91l.13-6.21c6.72-4.12,10.17,8.76,21.05,10.16Z"/>
      <path class="cls-14" d="M516.05,357.4v10.14s-1.09,0-1.09,0l-.1-10.3c-.88-.25-.83-.53.06-.85.32-.89.7-.87,1.13,0,.66.3.65.64,0,1.01Z"/>
      <path class="cls-84" d="M514.99,348.1c.89,1.76.85,6.1-.07,8.29l-.06.85-6.78-2.16-11.99-6.19c-.85-.44-1.69-.19-2.34.2l.13-11.2c-.17-2.62.47-3,2.8-1.98l12.17,10.07c2.29.47,4.34,1.18,6.15,2.11Z"/>
      <path class="cls-44" d="M516.05,330.03c.92,4.05.83,9.95,0,14.19-.27,1.38-.63,2.67-1.06,3.88-2.59,1.16-5.47,1.1-8.04-.99l-10.12-8.22c-.41-.34-.9-1.4-1.61-1.5-.42-.06-.89.1-1.35.5,0-.24-.07-.54-.07-.77l-.05-7.29c.93-1.96,2.07-2.25,3.83-1.1,4.8,4.46,9.91,8.45,15.3,11.98-.54-3.07.18-4.96,2.16-5.65.06-2.68-.75-5.87,1.01-8.07.85.21.69,2.33,0,3.04Z"/>
      <path class="cls-53" d="M548.54,370.44l.16,10.64c-1.58-.62-2.56,1.34-3.83,1.77l-8.52,2.85c-1.83.61-4.22.55-5.68-.56-2.58-1.95-1.63-5.47-3.39-7.49-.7-.05-.86-.6-.5-1.64l-1.72-2.1c1.35-.52,2.04-1.78,2.08-3.8-.91,0-.86-.2.04-.59,2.28,1.4.45,5.42,2.04,6.7,2.77,2.24,11.43-1.85,17.19-5.86.89-.62,1.48-.47,2.12.06Z"/>
      <path class="cls-17" d="M527.04,221.01l.25,1.61-.1,1.03c-2.97,1.45-6.25,2.58-9.86,3.38,3.03.28,2.51,2.27-.11,2.8l-1.05.12-.11-2.31.13-4.57c-1.04-6.56,8.61-6.24,10.85-2.05Z"/>
      <path class="cls-12" d="M517.07,244.87c1.13,2.95,1.13,4.64,0,5.07.81,16.12.92,32.32.35,48.59.91.42.66,2.64-.37,3.11-.28.88-.61.87-.99,0-.89-7.46-.94-16.66,0-24.33v-34.47s1.02,0,1.02,0c1.3,1.1,2.01,1.87,0,2.03Z"/>
      <path class="cls-77" d="M527.16,235.7l-.08,3.23c-.16-.75-.97-2.11-1.32-1.83l-1.72,1.36-5.42.39c-.29,1.94-1.07,1.87-1.53-.08,0-2.14-.27-4.21.38-6.35,2.94,5.23,8.03-.42,9.69,3.27Z"/>
      <path class="cls-74" d="M527.21,226.67v1.97s0,2.09,0,2.09c-2.02-1.57-5.66,1.39-9.98-.91l.11-2.8c.36-.47.75-.86,1.21-.99,1.97-.56,9.36-2.12,8.67.64Z"/>
      <path class="cls-75" d="M527.26,241.76l-.15,8.63-2.43-.2c-4.68,3.03-7.41-.4-7.61-5.33v-2.03s.02-4.06.02-4.06l1.53.08c-.52,1.8-.66,3.66-.11,5.46,2.82-.91,5.61-1.51,7.28-4.68.38.8.82,1.46,1.48,2.12Z"/>
      <path class="cls-15" d="M514.98,277.31c.91.17.74,1.79-.07,2.31-.4-.94-1.39-3.11-2.56-3.39-3.85-.94-3.67-4.05-5.11-6.35-5.44-8.68.78-14.6-5.56-18.4,3.75-4.62,8.42-5.49,13.28-6.51l.03,32.34Z"/>
      <path class="cls-8" d="M514.89,287.18c1.08,4.71.93,11.57.1,16.6-1.49-5.42-5.18-9.11-9.24-13.34l-4.29-9.7c-2.35-2.96-4.67-5.47-5.72-8.69,1.18-.83,3.52-2.83,2.65-4.54l-2.83-5.82c3.73,1.08,4.96,4.37,5.59,8.41.32,2.07,2.53,4.22,1.78,6.98l8.87,8.62c.9.87,2.1,1.25,3.08,1.49Z"/>
      <path class="cls-59" d="M516.05,301.64c.86,1.01.74,3.83,0,5.07h-1.01s-.05-2.93-.05-2.93l-.1-16.6.02-7.56.07-2.31h1.07s0,24.33,0,24.33Z"/>
      <path class="cls-71" d="M515.04,335.06l-.19,8.6c-11.23-3.56-15.6-14.36-21.1-13.82l-.03-10.07c4.04-2.97,6.59,4.37,15.49,10.93l5.83,4.37Z"/>
      <path class="cls-5" d="M527.51,210.74l-.27,2.74-2.18,1.3c-3.02-.43-6.03-.44-9.04-.05-.16-1.37.37-2.8.08-4.26,1.37-3.3,11.05-3.2,11.41.27Z"/>
      <path class="cls-88" d="M527.25,213.47l.1,1.54-.37,2.64-2.19,1.13c-2.86-.6-5.82-.59-8.89.05l.34-2.36-.2-1.76c2.38-3.5,7.73-2.73,11.22-1.25Z"/>
      <path class="cls-78" d="M526.98,217.66c.25.33.53,1,.94,1.24l-.88,2.11-9.54-1.28-1.31,3.34-.2-2.32-.1-1.91c2.3-3.43,7.85-3.04,11.09-1.18Z"/>
      <path class="cls-102" d="M533.32,291.76c3.33,4.11-5.54,7.32-5.91,1.02-1.12-3.39-.95-8.64-.17-12.43,2.37-5.37,5.96-10.09,10.75-14.17-1.24-6.5.38-11.29,4.85-14.37l2.02,1.28c-1.03,2.29-2.67,4.54-3.18,8.01,3.1,2.33,4.84,9.32,1.86,11.8-3.45,2.86-4.17,5.01-5.87,8.99-1.33,3.12-5.47,5.93-4.35,9.88Z"/>
      <path class="cls-47" d="M544.48,250.07c1.33.28.76,2.19.38,3.02-5.21,2.13-5.78,6.74-4.56,11.87.19,3.39-4.42,5.81-6.1,7.93-2.43,3.06-3.81,5.93-6.97,7.46-.61-.08-1.09-.17-1.1-.3-.32-3.76-.35-9.42-.06-13.18.02-.25.51-.46,1.13-.66,1.29-2.09,3.03-4.18,5.24-6.29,3.43-5.51,2.42-8.02-3.03-7.55l-1-2.18c.25-.93,1.4-3.26,2.81-2.96l13.26,2.84Z"/>
      <path class="cls-97" d="M548.63,284.5c-2.35,5.78-5.43,11.29-9.24,16.53-5.19,5.19-11.2,7.82-12.13-1.41-.99-1.15-.78-5.19.14-6.83.97.84,2.14,1.67,3.24,1.59,1.56-.11,1.9-2.08,2.67-2.61,4.09-2.78,10.96-12,11.18-13.43.38-2.51,1.55-4.39,4.01-4.66l.12,10.83Z"/>
      <path class="cls-11" d="M527.11,250.4l.06.6c3.1.91,2.82,4.23-.4,4.66-7.64.93-7.3,5.16-.82,8.1.65,6.64.36,13.03-.89,19.18-.24,4.26-1.49,5.57-3.75,3.94-1.87-3.05-2.97-6.57-3.28-10.57-.19-8.74-.51-17.53-.97-26.36v-5.07c.88,2.64,1.48,4.13,3.58,4.3,3.44.27,4.42-.73,5.24-3.61.46,2.28.23,3.65,1.22,4.84Z"/>
      <path class="cls-20" d="M527.2,266.21c-2.7-1.94-3.13-8.53-.44-10.55.38-1.54.55-3.11.4-4.66.33-.17,1-.49,1.24-.8l7,.96c2.67.35.04,14-8.2,15.06Z"/>
      <path class="cls-104" d="M548.63,284.5l.18,12.1c-1.37,2.13-1.77,3.31-1.98,6.89-.69,1.4-10.57,11.3-12.1,12.01-5.96,2.79-6.76-.76-7.54-5.76-1.09-2.54-.87-7.39.08-10.12l2.24,3.74c6.19,1.9,11.58-7.24,14.97-14.94.99-2.24,1.6-3.69,4.16-3.91Z"/>
      <path class="cls-72" d="M548.82,296.59l-.17,14.17-.05.85c-1.22,1.98-3.11,3.69-5.67,5.12-4.29,6.07-9.17,8.89-14.62,8.45l-1.07-4.28c-1.01-2.55-.71-7.08-.01-10.23-.9-.18-.89-.5-.02-.94.97.23,1.04,2.89,1.73,3.5,3.43,3.04,6.46-.54,8.67-3.35,2.37-3.01,7.02-4.48,7.79-8.47l.72-3.76c.17-.87,1.97-1.12,2.72-1.05Z"/>
      <path class="cls-60" d="M548.59,311.61l.07,10.4c-2.25,3.4-6.89,8.09-10.62,10.45-5.27,3.34-10.24,3.8-10.85-3.47l-1.98-.93c1.13-1.11,1.93-2.83,2.4-5.15-2.15.36-2.41-1.17-.39-2.02l2,3.04c3.55-.52,6.32-2.15,8.47-4.79,3.01-3.71,9.64-9.06,10.89-7.53Z"/>
      <path class="cls-92" d="M548.66,322.01l-.1,11.03c-4.47,3.37-9.06,6.56-13.79,9.58-4.62,2.4-7.13.23-7.53-6.51-1.14-1.2-.7-4.32,0-6.11-.9-.26-.89-.6-.03-1.01l2.7,3.86c11.6-.78,12.85-11.12,18.77-10.84Z"/>
      <path class="cls-13" d="M548.56,333.04l.04,5.03c-4.42,5.06-8.78,10.02-15.93,10.9-2.31.28-4.42-.16-4.45-2.81.07-.84-.18-1.65-.98-1.94-1.31-.07-.49-1.99,0-3.1-1.28.54-1.29-.46-.03-3-2.66-.31-2.55-1.27,0-2.01,1.29.58,1.14,2.27,1.48,3.65.44,1.8,2.72,1.88,4.03,1.59s1.96-1.61,3.5-2.51l8.23-4.83c.91-.53,1.43-1.83,2.44-1.78.5.03,1.15.38,1.65.8Z"/>
      <path class="cls-58" d="M548.61,338.07l-.2,6.76c-3.75-.82-8.97,5.83-15.76,8-1.21-.02-3.17-1.02-3.79-1.81-.91-1.15-.73-3.56-.62-4.86,9.49,3.93,16.36-7.91,18.86-8.67.41-.13,1.11.23,1.52.58Z"/>
      <path class="cls-43" d="M527.36,359.1l-.41,4.02c.14,1.21-.1,2-.73,2.4-1.73.37-3.68-.25-5.83-1.88-.6,1.51-1.17,2.32-3.1,2.15l-.13-7.19c.12-5,1.56-6.97,4.32-5.89,2.11,1.77,3.6,2.15,4.47,1.16-1.37-4.22-.95-5.76,1.26-4.62l.16,9.85Z"/>
      <path class="cls-33" d="M527.25,344.22l-.04,5.04c-1.19,1.14-1.31,3-1.26,4.62-1.76.57-2.73-.32-2.93-2.65-2.33-1.22-3.37-.75-3.12,1.4l-2.49,1.28c-1.25-1.02-1.35-5.14-.04-6.11.04-2.28.46-4.42,1.29-6.44,2.94-.23,5.8-.31,8.6-.24v3.1Z"/>
      <path class="cls-65" d="M527.44,366.67l-.26,2.86-.04.59-1.07,4.84c-2.99.03-5.97-.36-8.94-1.17l.17-3.79.59-2.98c1.77-1.56,4.54-2.06,8.33-1.51l.73-2.4.49,3.55Z"/>
      <path class="cls-89" d="M527.19,223.65l.02,3.03c-1.97-2.2-4.66,2.6-9.88.35.06-1.18-.53-2.38.16-3.39,3.78,2.54,6.98-1.79,9.7.01Z"/>
      <path class="cls-101" d="M527.16,395.85c-.55.76-.95,1.51-1.3,2.9-2.69-1.1-5.4-.95-8.74-.77l.13-7.2c.84-3.02,4.16-4.02,9.96-3.01l-.05,8.08Z"/>
      <path class="cls-23" d="M527.2,387.76c-1,.96-1.15,2.18-1.26,4.19-2.3-2.84-5.92-2.76-8.69-1.18l-.17-1.95.06-3.9,1.06-3.7c2.89-.39,5.73-.78,8.52-1.18.98,2.5.5,5.12.49,7.72Z"/>
      <path class="cls-55" d="M527.28,377.65l-.57,2.39-.79,4.94c-1.24-1.8-2.29-2.43-4.23-2.47s-3.67.47-4.56,2.41v-5.08c.26-4.13,3.47-5.41,9.65-3.83.05.44.21,1.31.5,1.64Z"/>
      <path class="cls-83" d="M525.95,353.87c.06,1.98.93,4.09-.32,6.82-.74-3.84-3.24-6.51-7.33-6.41-.06,2.08-.41,3.28-1.14,4.33l-.07-1.21c-.96-.77-.83-2.82.33-3.48.65-1.67.85-3.31.65-5.7,2.45.33,4.74.42,6.63,1.63l1.26,4.03Z"/>
      <path class="cls-42" d="M526.79,376.01c-.57,1.04-.68,1.93-.89,3.89-1.28-1.67-2.35-2.36-4.19-2.4s-3.68.45-4.57,2.34v-2.17s0-3.89,0-3.89l1.3-1.75,7.36,1.27,1.35-3.19c-.15,1.95.19,3.98-.35,5.9Z"/>
      <path class="cls-28" d="M526.22,365.52c-.38,1.25.18,2.78-.44,4.15-1.63-2.06-3.15-2.26-5.12-2.24-1.51.01-2.93.66-3.36,2.57.06-1.29-.47-2.92-.01-4.21s1.13-2.29,1.02-5.02c3,.98,6.15,1.96,7.91,4.74Z"/>
      <path class="cls-43" d="M517.07,337.12c.94,1.08.51,3.54,0,5.07l2.08.71c-1.32.89-1.91,2.52-1.77,4.9-.57,1.95-.28,4.1.04,6.11-.4,1.05-.39,2.38-.33,3.48h-1.03s0-1.01,0-1.01c-1.01-3.37-.8-8.43,0-12.17v-14.19c.28-.89.63-.88,1.03-.01,1.11,1.42.73,5.25-.02,7.11Z"/>
      <path class="cls-51" d="M516.05,356.38h-1.13s.07-8.29.07-8.29c.01-1.37-.29-3.05,1.06-3.88v12.17Z"/>
      <path class="cls-95" d="M517.07,314.82c1.14,3.56.77,8.29.12,12.22,2.61.58,2.35,1.99-.1,2.97h-1.03s0-3.03,0-3.03v-20.28s0-5.07,0-5.07h.99c1.23,3.49.74,9.31.02,13.18Z"/>
      <path class="cls-103" d="M518.03,276.3l1.88,7.98c1.07,5.8.23,10.55-2.5,14.24l-.35-48.59c.63.1,1.12.89,1.11,1.97l-.15,24.39Z"/>
      <path class="cls-45" d="M525.06,282.93c.4,3.2.78,6.73,1.16,10.59.93,2.01.78,16.98-.6,17.18-1.6.23-2.4-1.57-2.49-3.16-1.22-8.52-3.8-1.6-3,3.88l-2.08,1.32c2.51.43,2.5,1.28.03,2.07-.29.89-.63.87-1.02,0l-.02-13.18.37-3.11c.87-7.26.58-14.8.62-22.23,1.49,3.25,2.42,6.44,4.99,9.76,1.44-1.06,1.56-2.24,2.04-3.13Z"/>
      <path class="cls-36" d="M527.41,292.78l-.14,6.83-.08,10.12.02.94c-.56,12.5-2.03,14.4-4.41,5.71-2.29-.79-3.87-2-4.75-3.63l.45-14.4c2.01,2.75,3.72,4.56,6.58,3.74.22,2.63-.51,5.21.82,7.78l.31-16.35c-.82-1.68-.86-13.11-.3-13.55.21-.16.72.05,1.31.37l.17,12.43Z"/>
      <path class="cls-35" d="M526.76,255.66c.72,3.43.43,7.05.44,10.55l.03,14.14c-.52.25-1.07.89-1.06,1.93l.05,11.24c-.64-.08-1.05-.88-1.06-1.95l-.1-8.65-.13-17.55c-.01-1.41-3.93-1.72-4.93-1.78-.59-2.57-1.36-5.82-.05-7.92l4.03-1.43c1.06-.38,1.24-2.39,1.74-3.57l1.05,4.98Z"/>
      <path class="cls-6" d="M527.23,320.9l.39,2.02c-.74,1.65-1.19,3.5-1.34,5.53-1.91-.07-3.21-1.45-3.92-4.12-2.69-.41-3.64-1.59-4.1-4.24-1.03-.59-.87-3.97-.18-5.26l-.03-2.07c1.89-.1,3.84.7,5.29,1.52,2.36,1.32,1.76,3.92,2.22,6.7,1.8-3.09-.72-8,1.65-10.3v10.23Z"/>
      <path class="cls-22" d="M527.62,322.91l-.43,6.08.03,1.01-.56,2.06c.55,5.09-.56,6.3-3.33,3.63.09-3.52-3.06-5.1-3.12-1.49l-2.1,1.89c.86.37.82.72-.09,1.05-.22.89-.55.86-.96-.01l.02-7.11c0-.81-.31-2.26.1-2.97.18-2.54.54-4.86,1.08-6.97,1.68,1.41,3.48,2.15,6.29,2.63.43,1.67.16,3.18,1.58,4.62l.26-3.58c.03-.43.56-.89,1.23-.83Z"/>
      <path class="cls-95" d="M527.23,330v6.11s0,2.01,0,2.01c-.44,4.35-2.21,4.6-5.32.73-1.99-.28-3.25-1.2-3.8-2.76.16-1.92-.11-3.91.41-5.63,2.53-.07,4.26-.56,6.51.88-.08,1.73-.42,3.64,1.05,4.86.03-2.62-.56-4.97,1.14-6.19Z"/>
      <path class="cls-26" d="M527.23,338.12l.03,3c-1.41,1.09-1.59,2.95-1.42,5.27-1.13-2.85-3.26-3.98-7.13-3.17l-1.33,4.58-.31-5.61c.29-1.8.61-3.49.97-5.06l.09-1.05c3.24.03,6.45.9,7.57,4.38l1.54-2.35Z"/>
      <path class="cls-95" d="M517.06,342.19v-5.07s.97.01.97.01c-.14,1.67.48,3.88-.97,5.06Z"/>
      <path class="cls-36" d="M518.26,320.08c.08,2.41.13,4.89-1.08,6.97l-.12-12.22h1.02s.18,5.26.18,5.26Z"/>
    </g>
  </g>
  <g>
    <rect class="cls-30" x="111.65" y="133.81" width="34.46" height="278.27"/>
    <path class="cls-31" d="M224.9,529.11c-21.49.86-39.55-5.18-56.79-18.32-17.74-13.52-30.85-32.68-36.34-54.87-5.36-21.65-3.85-44.68,3.52-65.63,7.52-21.36,20.88-40.31,37.86-54.62,4.86-4.1,10.14-7.63,15.2-11.47s10.43-5.37,16.13-8.22c12.26-6.12,25.42-10.62,39-12.02,3.21-.33,6.43-.49,9.65-.45"/>
    <path class="cls-31" d="M250.66,303.5c45.49-1.18,89.1,26.38,110.4,67.87,21.82,42.49,17.18,102.8-16.31,136.77-17.87,18.12-30.98,19.85-72.14,21.05"/>
  </g>
  <g>
    <polygon class="cls-30" points="1016.69 526.08 1000.42 520.94 907.88 289.58 930.41 282.09 1016.69 526.08"/>
    <polygon class="cls-30" points="773.28 519.38 749.11 507.39 895.49 277.98 913.93 278.16 773.28 519.38"/>
    <polygon class="cls-30" points="1032.82 529.19 1013.98 521.1 1158.37 271.21 1183.66 286.37 1032.82 529.19"/>
    <polygon class="cls-30" points="757.68 518.14 743.28 515.17 665.92 308.96 691.43 300.34 757.68 518.14"/>
  </g>
  <g>
    <polygon class="cls-25" points="253.13 343.39 258.27 419.4 247.98 419.4 253.13 343.39"/>
    <polygon class="cls-24" points="310.29 370.6 267.16 428.53 259.88 420.17 310.29 370.6"/>
    <polygon class="cls-25" points="333.96 436.29 267.82 442.2 267.82 430.38 333.96 436.29"/>
    <polygon class="cls-25" points="253.13 529.19 247.98 453.18 258.27 453.18 253.13 529.19"/>
    <polygon class="cls-25" points="172.29 436.29 238.43 430.38 238.43 442.2 172.29 436.29"/>
    <polygon class="cls-24" points="195.96 370.6 246.37 420.17 239.1 428.53 195.96 370.6"/>
  </g>
</svg>