<?xml version="1.0" encoding="UTF-8"?>
<svg id="Layer_1" data-name="Layer 1" xmlns="http://www.w3.org/2000/svg" viewBox="0 0 7371.41 2496.55">
  <defs>
    <style>
      .cls-1 {
        fill: #4a4d42;
      }

      .cls-1, .cls-2, .cls-3, .cls-4, .cls-5, .cls-6, .cls-7, .cls-8, .cls-9, .cls-10, .cls-11, .cls-12, .cls-13, .cls-14, .cls-15, .cls-16, .cls-17, .cls-18, .cls-19, .cls-20, .cls-21, .cls-22, .cls-23, .cls-24, .cls-25, .cls-26, .cls-27, .cls-28, .cls-29, .cls-30, .cls-31, .cls-32, .cls-33, .cls-34, .cls-35, .cls-36, .cls-37, .cls-38, .cls-39, .cls-40, .cls-41, .cls-42, .cls-43, .cls-44, .cls-45, .cls-46, .cls-47, .cls-48, .cls-49, .cls-50, .cls-51, .cls-52, .cls-53, .cls-54, .cls-55, .cls-56, .cls-57, .cls-58, .cls-59, .cls-60, .cls-61, .cls-62, .cls-63, .cls-64, .cls-65, .cls-66, .cls-67, .cls-68, .cls-69, .cls-70, .cls-71, .cls-72, .cls-73, .cls-74, .cls-75, .cls-76, .cls-77, .cls-78, .cls-79, .cls-80, .cls-81, .cls-82, .cls-83, .cls-84, .cls-85, .cls-86, .cls-87, .cls-88, .cls-89, .cls-90, .cls-91, .cls-92, .cls-93, .cls-94, .cls-95, .cls-96, .cls-97, .cls-98, .cls-99, .cls-100, .cls-101, .cls-102, .cls-103, .cls-104, .cls-105, .cls-106, .cls-107, .cls-108 {
        stroke: #1a2100;
        stroke-miterlimit: 10;
      }

      .cls-2 {
        fill: #3d321b;
      }

      .cls-3 {
        fill: #fadc8e;
      }

      .cls-4 {
        fill: #665c3a;
      }

      .cls-5 {
        fill: #6b5e3d;
      }

      .cls-6 {
        fill: #f1d082;
      }

      .cls-7 {
        fill: #b6944b;
      }

      .cls-8 {
        fill: #e6c270;
      }

      .cls-9 {
        fill: #113150;
      }

      .cls-10 {
        fill: none;
        stroke-width: 346.1px;
      }

      .cls-11 {
        fill: #79663b;
      }

      .cls-12 {
        fill: #ae8d48;
      }

      .cls-13 {
        stroke-width: 166.88px;
      }

      .cls-13, .cls-15, .cls-38, .cls-49, .cls-62, .cls-82, .cls-88 {
        fill: #092f57;
      }

      .cls-14 {
        fill: #3e4744;
      }

      .cls-15 {
        stroke-width: 156.43px;
      }

      .cls-16 {
        fill: #474739;
      }

      .cls-17 {
        fill: #a68947;
      }

      .cls-18 {
        fill: #052851;
      }

      .cls-19 {
        fill: #ac7e2c;
      }

      .cls-20 {
        fill: #5f5840;
      }

      .cls-21 {
        fill: #293a46;
      }

      .cls-22 {
        fill: #dcb968;
      }

      .cls-23 {
        fill: #6f623e;
      }

      .cls-24 {
        fill: #212827;
      }

      .cls-25 {
        fill: #5d583d;
      }

      .cls-26 {
        fill: #293332;
      }

      .cls-27 {
        fill: #645c41;
      }

      .cls-28 {
        fill: #343930;
      }

      .cls-29 {
        fill: #8c6b2a;
      }

      .cls-30 {
        fill: #b17f28;
      }

      .cls-31 {
        fill: #303c42;
      }

      .cls-32 {
        fill: #3f4744;
      }

      .cls-33 {
        fill: #9c8144;
      }

      .cls-34 {
        fill: #907842;
      }

      .cls-35 {
        fill: #8d6b2c;
      }

      .cls-36 {
        fill: #1b354b;
      }

      .cls-37 {
        fill: #1b3347;
      }

      .cls-38 {
        stroke-width: 144.17px;
      }

      .cls-39 {
        fill: #84703d;
      }

      .cls-40 {
        fill: #846b39;
      }

      .cls-41 {
        fill: #585038;
      }

      .cls-42 {
        fill: #19344c;
      }

      .cls-43 {
        fill: #8f7036;
      }

      .cls-44 {
        fill: #1e2d32;
      }

      .cls-45 {
        fill: #1a2224;
      }

      .cls-46 {
        fill: #a17930;
      }

      .cls-47 {
        fill: #3d4746;
      }

      .cls-48 {
        fill: #916f2f;
      }

      .cls-49 {
        stroke-width: 142.51px;
      }

      .cls-50 {
        fill: #6a5521;
      }

      .cls-51 {
        fill: #3a433f;
      }

      .cls-52 {
        fill: #18334b;
      }

      .cls-53 {
        fill: #ceab5d;
      }

      .cls-54 {
        fill: #9e7731;
      }

      .cls-55 {
        fill: #c4a051;
      }

      .cls-56 {
        fill: #997737;
      }

      .cls-57 {
        fill: #5b4b25;
      }

      .cls-58 {
        fill: #2a3d47;
      }

      .cls-59 {
        fill: #826b3b;
      }

      .cls-60 {
        fill: #243744;
      }

      .cls-61 {
        fill: #7e622f;
      }

      .cls-62 {
        stroke-width: 154.33px;
      }

      .cls-63 {
        fill: #7d5b17;
      }

      .cls-64 {
        fill: #3a413e;
      }

      .cls-65 {
        fill: #73643f;
      }

      .cls-66 {
        fill: #233947;
      }

      .cls-67 {
        fill: #dbb868;
      }

      .cls-68 {
        fill: #d4b161;
      }

      .cls-69 {
        fill: #11304e;
      }

      .cls-70 {
        fill: #535141;
      }

      .cls-71 {
        fill: #233744;
      }

      .cls-72 {
        fill: #313f45;
      }

      .cls-73 {
        fill: #324047;
      }

      .cls-74 {
        fill: #f4d589;
      }

      .cls-75 {
        fill: #2c3b42;
      }

      .cls-76 {
        fill: #6d5a32;
      }

      .cls-77 {
        fill: #092238;
      }

      .cls-78 {
        fill: #a4731c;
      }

      .cls-79 {
        fill: #edcb7b;
      }

      .cls-80 {
        fill: #9c7329;
      }

      .cls-81 {
        fill: #755518;
      }

      .cls-82 {
        stroke-width: 152.32px;
      }

      .cls-83 {
        fill: #8f7238;
      }

      .cls-84 {
        fill: #665734;
      }

      .cls-85 {
        fill: #79663d;
      }

      .cls-86 {
        fill: #987e42;
      }

      .cls-87 {
        fill: #ba994f;
      }

      .cls-88 {
        stroke-width: 156.16px;
      }

      .cls-89 {
        fill: #45412c;
      }

      .cls-90 {
        fill: #283c4a;
      }

      .cls-91 {
        fill: #816f40;
      }

      .cls-92 {
        fill: #565543;
      }

      .cls-93 {
        fill: #c9a657;
      }

      .cls-94 {
        fill: #4c4f45;
      }

      .cls-95 {
        fill: #a5792c;
      }

      .cls-96 {
        fill: #d7b261;
      }

      .cls-97 {
        fill: #4e4f3f;
      }

      .cls-98 {
        fill: #203649;
      }

      .cls-99 {
        fill: #5c5235;
      }

      .cls-100 {
        fill: #504c37;
      }

      .cls-101 {
        fill: #4c4b3b;
      }

      .cls-102 {
        fill: #4c3a1a;
      }

      .cls-103 {
        fill: #3a423e;
      }

      .cls-104 {
        fill: #50482b;
      }

      .cls-105 {
        fill: #47473b;
      }

      .cls-106 {
        fill: #e4c06d;
      }

      .cls-107 {
        fill: #20374a;
      }

      .cls-108 {
        fill: #967230;
      }
    </style>
  </defs>
  <g>
    <rect class="cls-88" x="2179.55" y="44" width="167" height="1125.54" transform="translate(2869.8123 -1656.2846) rotate(90)"/>
    <rect class="cls-15" x="2184.28" y="78.22" width="187" height="1855.05"/>
    <g>
      <path class="cls-18" d="M2115.22,1439.37c19.24,11.03,14.72,43.58-.74,55.86,17.34.62,16.83,19.51.77,24.23,12.16,24.12,15.88,52.04,11.15,83.77l-12.12,8.08,1,46.12v196.27c-.28,13.88,1.69,30.55-7.31,41.58-6.73-7.44-5.5-14.29.41-23.94-5.96-47.73-4.55-100.06.14-146.93-4.9-43.61-4.57-96.47.01-141.37-4.77-46.43-4.63-100.2,0-147.17-5.03-5.74-4.08-22.16,0-29.44,1.61-5.14,3.51-5.07,5.69,0,17.5.06,17.3,28.96,1.01,32.94Z"/>
      <path class="cls-84" d="M2243.63,600.86c7.66,3.35,11.49,5.03,11.49,5.03-6.24,5.3-10.43,13.42-12.58,24.36-10.17-1.62-15.26-2.44-15.26-2.44-51.9,22.92-95.03,55.07-129.37,96.45l-36.08.04c-4.96-1.58-8.51-3.98-10.65-7.19,5.9-35.19,36.56-73.05,71.69-87.13,25.39-29.36,99.22-80.26,120.75-29.12Z"/>
      <path class="cls-48" d="M2242.54,630.05c5.2,9.28,4.75,29.83.23,40.49,1.04,11.42-3.55,11.39-6.92-.01-4.31-9.75-6.44-8.01-6.4,5.23-22,2.08-103.73,32.12-79.01,56.68l.93,9.45c-21.77,19.64-33.83,18.14-36.98-12.82-1.37,5.31-3.54,5.43-6.48.64-2.33-2.43-6.49-5.64-10-5.64l-12.34-8.76c26.4-32.74,57.08-51.7,90.01-71.69,18.88-11.46,34.08-25.1,59.27-30.17,1.37,4.8,3.39,11.52,7.69,16.61Z"/>
      <path class="cls-57" d="M2114.12,999.65c16.02,9.29,19.12,49.34-.35,55,17.8,7.91,19.74,55.9.99,62.56-2.54,34.03-4.71,67.64-6.49,100.83,6.24,58.34,4.7,127.95,0,188.39v29.44c-1.73,5.13-3.73,5.05-6-.03l3.09-320.62,3.01-132.68c1.71-5.13,3.71-5.05,5.97.02,17.52-.31,15.97,13.16-.23,17.09Z"/>
      <path class="cls-81" d="M2113.74,776.24c12.37,13.09,20.9,51.73.41,58.85,2.5.59,4.58,1.36,5.2,2.79,2.07,4.73,4.34,15.53,5.23,21.08,3.09,19.21,6.07,70.97-11.24,77.97,15.87,8.56,18.88,39.61.73,45.34l-5.79-.02-.7-252.83,6.48-.64c16.29,22.64,16.18,38.47-.32,47.47Z"/>
      <path class="cls-107" d="M2108.28,1583.46c-1.69,5.14-3.69,5.07-6,0l-.03-147.21,6.03.03v147.17Z"/>
      <polygon class="cls-9" points="2108.27 1724.26 2102.28 1724.19 2102.45 1583.26 2108.28 1583.25 2108.27 1724.26"/>
      <path class="cls-45" d="M1921.8,717.36c12.84-11.53,34.91-22.58,43.18-1.18,10.11-12.77,28.1-19,33.72.71,4.14,2.75,3.76,4.87-1.04,6.37l-93.38-.02v-5.88c.39-16.84,13.57-16.09,17.52,0Z"/>
      <path class="cls-2" d="M2020.27,717.46c11.86-10.37,18.05-10.63,18.55-.76,5.93-9.74,9.82-11.85,12.36.37,5.24.16,9.57,1.73,10.65,7.19l-64.19-.56c-.27-2.15.27-4.79,1.04-6.37,10.02-12.96,15.61-18.11,21.59.12Z"/>
      <path class="cls-35" d="M2448.1,716.81c.77,3.12-1.5,5.53-6.82,7.22l-1.38,600.24c-10.41-4.72-7.75-29.82-5.3-41.48-5.35-26.08-4.28-61.64.66-88.29-4.78-39.5-4.45-88.69.05-129.53-4.37-48.53-3.95-103.96-.19-153.13-4.18-61.74-5.35-124.89-3.5-189.46l-13.13-2.1c-8.72-15.35-24.1-26.52-46.13-33.5-2.25,4.46-5.49,7.9-9.44,6.91-21.42-5.35-38.88-15.84-55.87-29.42-8.2-11.98-8.55-17.46-1.05-16.44,3.23-25.22,23.82-16.84,41.72-8.52,27.46,9.83,99.44,49.01,100.4,77.49Z"/>
      <path class="cls-44" d="M2440.28,1324.27l-1.13,365.28-3.48-82.98c-1.9-76.18-3.78-152.71-5.65-229.59-16.8-2.21-16.79-14.65-.99-19.97-17.63-.3-17.11-40.07.14-44.08-15.49-7.88-17.22-24.01.87-30.16,1.07-5.17,2.73-5.04,4.94.02l5.3,41.48Z"/>
      <path class="cls-102" d="M2471.49,716.89c-1.73-9.49,6.48-9.71,24.62-.66-.86-16.01,12.69-15.97,18.39-2.06,0,0,8.72.88,26.16,2.64,5.02,2.08,4.84,4.23-.28,6.45l-99.17.49c0-3.88,2.74-7.28,6.82-7.22-2.05-8.6,5.77-8.49,23.46.35Z"/>
      <path class="cls-24" d="M2575.94,717.18c-2.47-16.74,6.86-11.61,15.68-1.15,4.4-19.54,20.9-11.41,30.66,1.28v5.95s-81.71.02-81.71.02l.28-6.45c1.22-10.4,12.91-10.28,35.09.36Z"/>
      <path class="cls-37" d="M2698.41,717.26h-40.9s-10.54-6.24-10.54-6.24c-29.48-42.29-59.74-85.19-90.79-128.68-62.19-68.17-167.07-118.15-257.86-131.17-27.44-3.93-43.91-5.5-70.52,7.24-119.81,13.66-228.56,96.52-294.5,197.17l-13.75,8.56c12.1-.71-8.85,40.87-10.62,42.62-10.7,10.57-32.39,9.29-46.31,4.58-5.04-13.35,8.48-23.86,12.08-34.66,13.29-39.87,34.85-67.95,60.24-99.48,20.43-25.37,41.53-45,70.1-64.6l44.64-30.62,71.49-40.68,44.18-8.17,50.08-13.74c16.63-4.56,21.63-8.58,36.56-.03,26.15,14.96,62.01-3.65,87.53.53,23.08,3.78,37.38,7.78,58.94,8.25,32.62.71,99.46,57.82,138.88,84.65,36.53,24.86,64.26,53.59,86.11,91.93l27.49,48.21c9.91,17.37,24.86,27.06,27.32,50.13,3.04,5.66,16.06,10.67,20.13,14.19Z"/>
      <path class="cls-66" d="M1939.72,661.68c10.93-1.46,10.83,4.86-.29,18.97,17.95,17.16,5.32,33.21-17.02,36.61l-18.14,1h-52.99l.05-7,10.99-.15,35.62-.99c-2.6-23.13,14.64-33.31,22.21-46.95,10.89-12.15,17.42-12.65,19.58-1.49Z"/>
      <path class="cls-9" d="M2242.13,1546.96c4.01,4.03,5.22,12.16,3.64,24.37,13.33,1.6,9.8,5.5-2.68,10.8-.1,19.22,4.16,32.19,12.79,38.9l4.13,43.68c17.62-.88,33.38,1.33,47.27,6.63l-.85,64.59-55.43-2.23c-11.93-26.22-8.01-50.15-7.23-84.07-18.81,10-32.03,2.97-48.32-1.33-30.28-7.99-60.46-14.69-81.18-37.03l.58-92.04,12.71-4.27c27.09,29.17,57.86,46.4,92.3,51.68,6.16-16.63,13.58-23.19,22.27-19.68Z"/>
      <path class="cls-69" d="M2429.49,1524.17c5.03,23.34,4.73,57.12-.31,81.56-40.93,18.07-35.14,55.82-110.87,37.85-6.32-1.5-10.74,8.26-11.51,11.01-11,.97-15.05-8.22-12.17-27.57,7.39-4.44,11.12-13.77,11.17-28-17.99-1.56-13.31-21.5,2.91-25.63,10.72-9.66,25.89-16.3,45.52-19.92,14.53-21.5,53.92-46.99,75.27-29.3Z"/>
      <path class="cls-36" d="M2305.8,1599.02l1,55.58.48,16.65c-15.38,10.58-36.56,6.1-57.36,4.15-5.98-32.62-5.87-62.35-6.71-93.18l14.89,3.75c-.09,24.07,15.8,28.42,47.69,13.05Z"/>
      <path class="cls-52" d="M2242.75,1453.53c5.48,17.79,4.92,46.13-.03,64.76,5.57,3.74,5.03,22.9-.45,28.83-5.39,2.78-4.67,15.51-8.26,21.62-18.64,31.77-80.69-13.71-118.76-49.29l-.77-24.23c3.78-27.77,22.04-24.22,44.54-17.56,20.72,11.8,42.21,20.55,64.47,26.26-1.35-18.13,3.46-29.15,14.43-33.07-20.79-4.85-16.63-31.76,4.83-29.09,5.12,1.37,4.57,8.75,0,11.77Z"/>
      <path class="cls-90" d="M2235.59,1399.92c-4.86-2.05-4.42-3.8.92-5.27,1.79-5.14,3.88-5.06,6.24,0,6.18,11.75,4.78,34.49,0,47.1-10.07,6.8-4.45,19.91-4.83,29.09-7.67,34.67-95.65-5.68-118.99-17.61l-3.7-13.86-1.01-32.94c-4.91-5.86-4.2-22.25.02-29.43,9.67-12.59,23.66-10.32,41.96,6.84,48.19,48.7,71.47,57.32,69.82,25.85l9.57-9.76Z"/>
      <path class="cls-107" d="M2237.71,1470.84c-.64,15.45-3.15,30.61.67,45.53-57.16,2.98-90.34-54.28-124.11-21.15l.74-55.86,93.8,35.06c8.9,3.53,21.86-3.03,28.9-3.58Z"/>
      <path class="cls-26" d="M2115.79,1222.36c18.41,6.56,18.38,58.98-.76,65.01,19.69,4.21,17.45,46.88.03,53.41,18.43.56,16.78,33.37-.78,36.05l-.02,29.43h-5.98s0-188.39,0-188.39c-1.1-11.39,3.64-11.39,7.09,0,5.45-.19,5.37,1.38.43,4.48Z"/>
      <path class="cls-77" d="M2409.18,1622.64c-2.11-.59,21.62-16.47,20.1-16.91l.31-81.56c-18.58-3.07-15.99-43.82.3-50.88-18.73-1.15-18.08-56.82-.89-61.79-17.32-.41-16.29-30.9.66-34.53,2.18-.37,5.81,2.1,5.8,6.29l-26.28,239.38Z"/>
      <path class="cls-99" d="M2235.64,571.49c3.32.81,5.7,4.39,7.15,10.74,5.85-.05,4.93,9.65.65,13.39,5.17.88,5.11,2.58.19,5.04-35.65-33.07-75.11-1.62-116.56,35.9-52.99,20.1-51.89,62.79-75.88,80.36l-12.36-.37c-5.41-28.89,19.74-58.72,41.49-78.69,25.97-23.85,111.24-86.08,145.29-77.59,5.03,1.25,7.99,6.29,10.04,11.22Z"/>
      <path class="cls-87" d="M2306.15,600.23c16.64,2.65,16.45,15.09.42,20.03,11.12,1.99,10.61,6.46-.68,8.82-30.37,3.07-45.56,4.61-45.56,4.61.22,8.08-3.6,11.31-12.14,13.28,6.94.81,4.21,17.83-.1,23.57-1.65,5.14-3.6,5.07-5.82,0l-.23-40.49,1.08-29.39-.19-5.04c1.15-5.31,3.17-5.45,6.02-.68,3.54-5.43,10.81-6.72,21.81-3.88,23.86-8.81,35.66-5.75,35.38,9.17Z"/>
      <path class="cls-46" d="M2236.05,670.52c5.27,2.22,5.09,9.25.6,12.37-4.44,12.06-17.37,19.78-38.8,23.15-19.15,5.24-22.15,16.93-8.98,35.07-.49,40.96,3.64,94.23,42.01,116.48l5.53,26.51c5.62,8.16,5.06,32.82-.11,43.91-13.21,21-54.3-24.99-65.51-39.3-12.31-15.71-24.57-47.07-21.93-67.23-.69-16.8-11.58-30.45-23.29-41.53-6.63,14.2-8.89,11.47-11.28-3.43l.32-47.47c3.49,3.78,6.29,8.08,8.72,16.24,5.68-3.75,10.77-4.62,21.47-5.78-6.93-5.76-12.29-11.82-12.91-19.12-.55-6.45,6.57-14.53,13.7-18.46l53.88-29.71c8.62-4.75,28.07,3.87,34.86-14.19,1.99,4.98,2.01,7.97,1.74,12.49Z"/>
      <path class="cls-78" d="M2242.75,870.44c-1.76,5.15-3.81,5.07-6.16,0-5.07-1.85-10-6.79-11.68-12.45-2.38-7.99-4-159.46-.13-166.84,2.41-4.58,6.96-7,11.66-8.52l-.6-12.37h6.92c4.55,63.83,5.83,136.37-.02,200.18Z"/>
      <path class="cls-59" d="M2235.94,1069.34c6.17,11.44,5.27,39.2,1,54.52l-11.72,6.41c-52-18.89-88.34-84.17-110.94-130.62l1-17.09v-45.34c7.15-16.22,20.11-5.48,31.26,5.59,22.67,43.1,50.59,79.79,83.75,110.07l5.65,16.46Z"/>
      <path class="cls-65" d="M2243.22,1159.17c-2.1,16.01-4.03,31.63-5.79,46.87l-11.96,5.66c-37.77-30.57-74.5-62.06-110.19-94.49l-.96-62.56c6.74-10.71,13.55-11.75,22.87-3.89,26.28,32.59,55.14,62.12,86.59,88.58,1.13-8.85,3.36-13.83,13.63-15.48l-1-54.52c-12.3-10.97-17.96-22.59,1.03-27.91,1.63-5.14,3.56-5.07,5.77,0,4.39,36.51,5.17,81.09,0,117.74Z"/>
      <path class="cls-85" d="M2237.37,1123.86l-2.03,33.9c-25.8-9.78-46.79-27.39-60.62-53.11-25.84-17.32-36.87-49.96-60.44-50.01l.34-55c30.83-.3,34,66.97,73.01,92.04l49.75,32.17Z"/>
      <path class="cls-89" d="M2114.73,1175.92c16.97,3.86,17.65,37.86.29,42.34h-6.75s-.39-88.72-.39-88.72c-.03-7.26,3.4-9.67,6.69-12.12,18.36,3.39,17.47,53.79.16,58.49Z"/>
      <path class="cls-83" d="M2125.96,840.13l13.43,2.52c22.23,30.24,40.06,62.82,53.47,97.73,27.17,23.25,41.12,47.8,43.4,84.03,5.26-.13,4.4,12.8.31,17.02l-1.03,27.91c-74.56-35.8-73.85-124.06-122.26-132.13l.8-101.83c7.52-15.72,15.1-12.48,11.88,4.75Z"/>
      <path class="cls-48" d="M2125.15,779.96c22.25,14.67,40.77,72.42,1.01,60.16-1.17-3.64-8.43-5.24-11.88-4.75l-.41-58.85,11.28,3.43Z"/>
      <path class="cls-75" d="M2243.09,482.51c13.03,1.29,12.87,9.54-.46,24.74,11.41.87,11.8,5.65,1.16,10.21-30.63-3.6-48.67,5.14-76.29,19.66l-25.57,3.68c-74.26,38.54-126.61,92-159.74,168.81l-17.22,6.85-43.18,1.18c10.72-8.58,14-22.73,16.75-36.04,18.1-47.04,45.81-74.72,82.41-106.39,47.02-40.69,114.9-88.62,176.49-101.01,9.55-1.92,48.72-2.55,45.66,8.31Z"/>
      <path class="cls-103" d="M2243.78,517.46c6.33-1.4,5.68,3.16-1.95,13.68,15.56-.5,15.75,3.19.55,11.1-28.89-6.73-65.05,9.5-92.84,24.03-58.85,30.77-116.43,77.28-135.94,143.94l-14.92,6.98-33.72-.71,23.74-42.52c13.95-24.76,21.32-44.71,42.72-64.6,7.85-7.29,11.84-24.01,28.83-22.84,22.81-23.66,49.26-40.98,78.33-56.78,22.62-.34,42.16-7.9,59.3-21.33,18.07-5.33,35.68-4.24,45.9,9.06Z"/>
      <path class="cls-16" d="M2242.39,542.19c3.4.38,3.79,4.87,1.16,13.46l7.77.33c-3.76,8.11-6.6,16.85-8.53,26.21-4.7-1.13-7.26-5.96-7.15-10.74-18.7-15.64-40.59-7.54-64.76,3-39.25,17.13-94.69,63.33-120.74,98.43-5.63,22.7-15.58,37.49-29.87,44.38l-21.59-.12c15.68-32.09,25.8-70.95,55.84-95.2l61.48-49.63c17.43-14.07,34.89-14.88,53.93-23.69l39.72-18.38c13.96-6.46,26.47-1.61,32.74,11.95Z"/>
      <path class="cls-100" d="M2235.64,571.49c-43.17-2.83-87.97,14.3-116.55,51.34-41.09,17.71-65.75,54.15-80.26,93.72l-18.55.76c12.99-9.94,13.97-28.66,20.3-44.54,12.67-31.8,44.51-46.29,68.17-66.49,38.65-33,76.26-50.44,127.47-58.87l-.57,24.09Z"/>
      <path class="cls-108" d="M2431.53,722.39c1.13,43,.21,85.38-2.77,127.16-9.88,29.52-24.86,56.05-44.95,79.6-12.9,20.75-26.94,29.24-42.1,25.47-5.45.01-12.43-2.03-12.68-6.63-1.19-22.02,50.49-98.56,67.17-117.36l.34-17.97c-14.3-32.43-18.22-57.86,11.29-82.6-10.84-7.82-10.89-8.48-2.19-17.56l-10.75-6.49c-23.71-4.28-31.25-10.69-22.62-19.22,17.61,4.8,53.27,12.68,59.26,35.6Z"/>
      <path class="cls-61" d="M2471.49,717.26l-23.46-.35c-20.81-30.08-52.99-40.7-85.62-55.61-18.37-8.4-35.46-30.02-56.5-13.36-11.43-13.64-11.27-19.89.48-18.77l.68-8.82c2-4.92,5.07-9.04,9.78-11.56,20.24-10.87,158.34,70.45,154.64,108.47Z"/>
      <path class="cls-80" d="M2372.27,686.79c3.27,15.22,26.73,7.52,33.37,25.71l-8.8,10.13-67.73-16.97c-.64,5.36-5.82,7.88-15.55,7.56,5.96,10.15,2.11,12.47-7.13,4.67-5.14.93-5.05-.31-.33-3.47-7.3-28.34-10.95-42.51-10.95-42.51l11.8-7.63c15.49-14.38,23.15,11.02,65.32,22.51Z"/>
      <path class="cls-67" d="M2305.9,647.84l1.05,16.44c-32.09,32.98-71.48,33.52-49.52-16.85,3.49-16.85,52.91-26.45,48.46.42Z"/>
      <path class="cls-63" d="M2435.04,911.85c-1.05,5.28-2.92,5.4-5.59.59-20.13-4.54-15.08-51.48-.68-62.89l2.77-127.16,3.5,189.46Z"/>
      <path class="cls-50" d="M2435.47,1064.98c-1.65,5.13-3.57,5.05-5.74-.03-4.5-.13-8.87-1.43-11.61-5.28-2.35-3.31-.1-74.44,12.61-76.99-19.76-5.33-16.71-58.26-1.04-70.24l5.59-.59.19,153.13Z"/>
      <path class="cls-104" d="M2435.23,1194.82c-1.9,5.09-3.95,4.96-6.16-.17-17.82-6.38-17.45-55.76.6-64.06-18.25,1.6-17.94-56.04-.42-60.38-5.06-1.36-4.84-3.01.29-4.94l5.74.03-.05,129.53Z"/>
      <path class="cls-28" d="M2434.62,1283.26l-4.94-.02c-16.84-1.81-17.13-14.25-1.45-19.95-17.88,1.79-15.42-36.18,1.15-39.26-17.07-1.57-16.59-25.35-.26-29.23l6.16.17-.66,88.29Z"/>
      <path class="cls-32" d="M2312.54,1270.54c8.72,2.64,12.92,9.67,12.61,21.09l11.86,6.19,75.39-45.01c7.88-3.89,12.66,1.56,15.72,10.01l1.45,19.95-.87,30.16c-11.91,13.09-52.64,44.56-81.84,56-29.8,11.67-36.52,10.55-39.29-23.25-6.1-15.32-5.94-39.43-.89-57.18l-11.63-4.67c1.05-8.71,5-16.91,11.87-24.58,15.69-8.35,20.02.72,5.61,11.29Z"/>
      <path class="cls-21" d="M2428.57,1357l.99,19.97-.66,34.53c-9.49,15.43-30.39,26.84-46.93,33.88-54.98,23.42-71.99,27.47-75.41-39.16-5.98.33-4.12-13.73,1.48-16.59,10.07-3.33,21.91-4.84,35.51-4.52l71.51-41.11c9.4-3,13.65,2.9,13.51,12.99Z"/>
      <path class="cls-72" d="M2428.28,1312.93l-.14,44.08c-7.63-4.63-12.8-1.61-21.09,3.46l-50.92,31.16c-17.86,10.93-33.48,9.35-48.53-1.99-4.84-.35-5.78-7.22-2.81-20.61-19.94-4.6-10.15-13.25,2.36-23.35,2.99,6.34,8.21,18.23,14.38,18.6,7.6.47,16.37-3.82,22.97-7.76l66.29-39.58,9.21-9.12c1.42-1.41,6.3,3,8.28,5.11Z"/>
      <path class="cls-60" d="M2646.97,711.27c3.91-.84,9.21,1.87,10.54,6.25l-26.9-.69-27.43-9.59c-65.17-97.26-161.04-203.19-283.53-212.96l-11.22-10.18c-21.97-1.97-43.75-2.5-65.35-1.59-43.57-13.48-134.17,27.52-173.8,61.29l-97.17,82.79c.21,26.39-16.99,41.5-33.58,55.01,1.15-5.56,1.16-13.34.29-18.68-4.09-1.49-7.25-2.91-7.17-4.07,3.27-42.71,145.97-148.66,185.08-167.81,29.51-14.45,77.36-32.77,109.01-32.02,42.63-21.06,103.73-3.66,148.34,10.2,67.14,20.86,133.78,67.93,184.31,115.95l88.57,126.09Z"/>
      <path class="cls-31" d="M2630.62,716.83l-8.53.74-30.66-1.28c-12.69-5.45-24.11-13.86-34.26-25.22-57.09-81.2-137.16-164.79-241.01-172.63l-8.67-9.5c-11.3-.38-11.43-4.92-.59-8.94-14.99-7.14-14.99-12.28,1.54-15.89,35.59-6.23,73.47,3.92,106.12,25.53l80.55,53.29c53.87,35.64,72.01,85.43,104.54,118.88,10.91,11.22,15.64,29.89,30.97,35.02Z"/>
      <path class="cls-41" d="M2540.65,717.26l-44.54-.58c-20.28-3.25-36.71-16.93-49.28-41.04-42.06-39.65-88.75-68.77-140.06-87.35-15.49-1.72-14.89-7-.07-11.47-16.99-2.68-15.81-13.01-.1-17.59-4.92-2.17-4.66-4.15.55-5.96,7.48-15.08,48.73-2.68,64.01,3.21,49.83,19.2,136.34,89.92,153.44,142.11,12.26-.78,21.74,6.11,16.06,18.66Z"/>
      <path class="cls-76" d="M2496.11,716.51l-24.62.66c-9.96-4.04-18.94-12.13-23.59-23.49-7.6-18.56-27.04-20.43-40.42-30.28-31.54-23.25-62.18-44.09-100.41-43.13l-.42-20.03c-15.33-4.87-14.99-6.87.13-12.11,15.77-12.92,30.08-2.41,45.82,5.36,32.76,16.18,101.76,68.37,120.06,97.7,6.98,11.19,9.16,23.13,23.46,25.33Z"/>
      <path class="cls-64" d="M2591.42,716.29l-15.68,1.15c-34.06-6.53-59.39-28.86-75.98-66.99-43.73-50.49-122.67-100.15-187.57-109.83l-1.47-9.13c-9.82,6.57-12.38,2.76-5.37-7.2-14.99-8.01-14.6-11.54,2.13-15.35,20.94-8.16,37.9-.22,58.7,7.22,44.35,15.86,84.74,35.67,114.94,72.77,35.48,21.56,53.54,59.83,80.19,89.53,11.61,12.94,24.91,21.97,30.11,37.84Z"/>
      <path class="cls-105" d="M2575.74,717.26l-35.09-.36c-3.32-5.73-13.03-9.65-26.75-4.76-7.31-43.5-34.3-70.63-69.85-92.44-26.65-16.35-48.51-45.96-79.94-53.28l-56.97-13.51c-11.45-.58-12.18-5.25-1.46-9.34-14.78-7.2-10.77-14.29,5.04-12.27,8.98,5.42,24.15,1.62,36.63,4.52,52.14,12.11,89,49.73,131.64,78.36,48.47,32.54,43.08,77.66,96.75,103.08Z"/>
      <path class="cls-71" d="M2646.97,711.27c-11.61,2.51-11.86-6.51-17.08-13.48l-47.76-63.85-40.5-58.69-87.21-59.8c-40.36-27.68-79.29-43.05-128.06-48.98-22.18-2.69-51.49-26.21-75.17-9.06-12.23,8.86-21.58,18.79-40.63,9.8-18.86-8.9-36.58,14.58-50.47,17.6-35.04,7.61-54.7,18.61-80.98,38.02l-56.94,42.04c-40.17,29.66-84.55,90.66-83.34,98.05l-19.27,1.47c19.05-34.31,45.37-62.25,72.62-94.54l69.99-57.29c26.75-21.9,63.84-32.14,92.2-44.03,59.68-25.02,122.28-34.31,185.05-13.86,28.78,9.37,59.77,7.72,86.57,25.12,66.22,43.01,141.42,80.88,173,150.84l28.87,40.39c9.19,12.86,18.9,24.41,19.13,40.25Z"/>
      <path class="cls-58" d="M2249.61,1529.88c9.66,2.89,14.19,12.68,13.59,29.39l43.19.07c16.36-.58,16.97,7.6,2.33,14.34l-2.91,25.63c-4.78,7.34-5.33,15.36-6.66,23.62-17.63-7.45-24.85-18.28-43.34-16.08,1.49-16.78-5.53-14.78-12.57-24.34l-.95-35.1.45-28.83c1.68-5.14,3.65-5.07,5.91,0,16.54,1.32,14.27,3.06.97,11.31Z"/>
      <path class="cls-42" d="M2429.28,1473.39l-.3,50.76-51.7,17.42c-11.13,29.79-43.02,32.35-68.8,31.68l-2.33-14.3-11.61-6.29c3.33-12.49,7.28-26,11.87-40.53-13.76-2.97-16.78-15.63-3.14-18.2l.36-26.54c-3.6-3.55-1.67-11.79,3.25-13.84l14.48,1.74c2.24,39.38,29.38,45.25,81.4,17.63,12.71-12.75,21.54-12.59,26.5.48Z"/>
      <path class="cls-25" d="M2248.61,1342.77c13.71,2.15,17.49,12.59,3.46,16.12l-2.71,25.65c11.7-.41,11.73,7.73.07,24.43,16.04.05,15.72,7.38-.95,21.98,17.2-1.21,16.33,18.43.1,22.58-1.81,5.15-3.92,5.06-6.31,0v-11.77s0-47.1,0-47.1c-5.33-15.76-5.56-42.83,0-58.87,1.66-5.15,3.64-5.08,5.92-.03,2.51-.89,2.65,1.45.41,7.01Z"/>
      <path class="cls-14" d="M2248.57,1465.93c15.66,1.13,15.66,11,0,29.6,17.09.19,16.11,19.34-.36,22.74h-5.93s.03-65,.03-65h6.33c7.82-4.78,7.8-.56-.08,12.67Z"/>
      <path class="cls-47" d="M2236.21,1334.85c6.07,13.52,5.43,42.87.6,59.79l-.92,5.27c-5.44,11.45-15.62,12.44-30.54,2.98-29.31-24.18-59.33-44.83-90.07-61.95l-.02-53.41,4.11-13.67c37.52,16.06,75.28,31.89,113.31,47.49l3.54,13.5Z"/>
      <path class="cls-73" d="M2235.59,1399.92c3.79,10.16,6.19,39.69-11.74,40.41-43.9,1.76-68.09-60.54-109.61-63.33l.74-36.05c38.53-23.95,58.27,50.9,120.61,58.98Z"/>
      <path class="cls-73" d="M2242.28,1335.39v58.87s-6,0-6,0l-.58-59.79c-4.83-1.45-4.59-3.1.36-4.95,1.78-5.15,3.86-5.07,6.22,0,3.66,1.73,3.58,3.7,0,5.89Z"/>
      <path class="cls-94" d="M2237,1281.78c5.11,10.23,4.85,35.42-.39,48.12l-.37,4.95-38.87-12.54-68.7-35.93c-4.85-2.54-9.66-1.13-13.38,1.15l.72-65.01c-1-15.22,2.69-17.41,16.02-11.49l69.74,58.49c13.11,2.74,24.85,6.82,35.24,12.26Z"/>
      <path class="cls-92" d="M2242.77,1176.83c5.24,23.5,4.74,57.76,0,82.42-1.56,8-3.59,15.51-6.08,22.53-14.81,6.74-31.36,6.38-46.07-5.73l-58-47.75c-2.37-1.95-5.13-8.15-9.22-8.69-2.4-.32-5.09.57-7.71,2.92.02-1.38-.4-3.11-.4-4.48l-.29-42.34c5.33-11.39,11.86-13.04,21.92-6.39,27.53,25.9,56.76,49.09,87.69,69.57-3.11-17.86,1.01-28.8,12.38-32.83.33-15.57-4.31-34.09,5.79-46.87,4.89,1.22,3.94,13.54,0,17.66Z"/>
      <path class="cls-98" d="M2429.28,1411.51l.89,61.79c-9.07-3.59-14.64,7.81-21.94,10.28l-48.81,16.53c-10.47,3.55-24.2,3.17-32.53-3.23-14.76-11.33-9.35-31.78-19.4-43.48-4-.3-4.95-3.47-2.84-9.52l-9.88-12.17c7.71-3,11.69-10.36,11.91-22.06-5.21.04-4.93-1.14.25-3.41,13.07,8.11,2.59,31.48,11.71,38.93,15.89,12.98,65.49-10.72,98.5-34.03,5.1-3.6,8.5-2.74,12.13.38Z"/>
      <path class="cls-39" d="M2305.69,543.76l1.46,9.34-.55,5.96c-17,8.42-35.83,14.96-56.49,19.6,17.35,1.63,14.36,13.18-.65,16.27l-6.02.68-.65-13.39.76-26.54c-5.95-38.1,49.31-36.24,62.14-11.93Z"/>
      <path class="cls-68" d="M2248.11,682.04c6.46,17.12,6.46,26.93,0,29.44,4.63,93.64,5.29,187.7,1.98,282.17,5.21,2.47,3.78,15.32-2.13,18.07-1.61,5.14-3.51,5.06-5.69,0-5.11-43.33-5.41-96.76,0-141.29l.02-200.16h5.82c7.46,6.37,11.53,10.87,0,11.77Z"/>
      <path class="cls-53" d="M2306.39,629.07l-.48,18.77c-.93-4.36-5.58-12.22-7.59-10.6l-9.84,7.93-31.04,2.26c-1.68,11.27-6.12,10.87-8.75-.46.05-12.42-1.52-24.47,2.18-36.88,16.82,30.38,46-2.46,55.52,18.99Z"/>
      <path class="cls-17" d="M2306.28,576.65l1,11.47v12.11c-12.21-9.1-33.07,8.08-57.83-5.29l.65-16.27c2.08-2.7,4.29-4.97,6.92-5.73,11.31-3.23,53.62-12.32,49.25,3.71Z"/>
      <path class="cls-106" d="M2306.28,664.25l-.84,50.12-13.81-1.13c-26.62,17.48-42.17-2.33-43.35-30.78l1-11.93.09-23.19,8.55.45c-2.9,10.22-3.67,20.74-.63,30.97,15.81-5.15,31.4-8.56,40.72-26.54,2.14,4.56,4.57,8.27,8.27,12.03Z"/>
      <path class="cls-19" d="M2236.43,870.7c5.19,1,4.25,10.42-.39,13.41-2.27-5.45-7.98-18.06-14.69-19.71-22.06-5.46-21.05-23.53-29.3-36.87-31.18-50.42,4.45-84.79-31.84-106.83,21.46-26.86,48.23-31.88,76.08-37.8l.15,187.81Z"/>
      <path class="cls-56" d="M2236.09,928.02c6.16,27.34,5.34,67.19.57,96.39-8.56-31.48-29.67-52.93-52.96-77.49l-24.59-56.35c-13.47-17.17-26.77-31.75-32.75-50.45,6.73-4.8,20.16-16.43,15.19-26.39l-16.2-33.77c21.37,6.26,28.43,25.37,32.02,48.82,1.84,11.99,14.5,24.51,10.23,40.55l50.83,50.04c5.15,5.07,12.05,7.24,17.66,8.64Z"/>
      <path class="cls-29" d="M2242.28,1011.99c5.38,5.86.47,29.27.47,29.27h-5.77l-.69-16.85,1-96.39v-43.91l-.69-13.85h5.69v141.73Z"/>
      <path class="cls-27" d="M2237.27,1206.04l-1.07,49.93c-64.34-20.68-89.38-83.41-120.92-80.27l-.16-58.49c23.17-17.24,37.78,25.4,88.73,63.46l33.42,25.37Z"/>
      <path class="cls-51" d="M2308.44,484.11l-1.54,15.89-12.47,7.54c-17.28-2.48-34.54-2.58-51.8-.29-.9-7.94,2.14-16.27.46-24.74,7.87-19.19,63.3-18.56,65.35,1.59Z"/>
      <path class="cls-101" d="M2306.89,500l.59,8.94-2.13,15.35-12.57,6.56c-16.39-3.51-33.37-3.42-50.95.29l1.95-13.68-1.16-10.21c13.65-20.34,44.27-15.86,64.27-7.25Z"/>
      <path class="cls-4" d="M2305.35,524.29c1.41,1.94,3.05,5.8,5.37,7.2l-5.04,12.27-54.65-7.46-7.49,19.39-1.16-13.46-.55-11.1c13.16-19.92,44.96-17.63,63.52-6.85Z"/>
      <path class="cls-54" d="M2341.72,954.61c19.08,23.86-31.75,42.49-33.88,5.9-6.41-19.69-5.43-50.19-1-72.17,13.6-31.17,34.14-58.6,61.62-82.3-7.1-37.75,2.17-65.56,27.8-83.44l11.58,7.45c-5.91,13.32-15.33,26.35-18.24,46.49,17.79,13.55,27.74,54.12,10.64,68.5-19.74,16.61-23.92,29.09-33.61,52.21-7.59,18.12-31.36,34.45-24.91,57.36Z"/>
      <path class="cls-95" d="M2405.64,712.5c7.61,1.65,4.33,12.74,2.19,17.56-29.83,12.39-33.13,39.14-26.15,68.91,1.08,19.67-25.3,33.73-34.93,46.04-13.9,17.78-21.81,34.43-39.92,43.34-3.5-.46-6.23-.98-6.3-1.74-1.86-21.81-2.03-54.69-.37-76.53.11-1.44,2.92-2.67,6.49-3.84,7.37-12.11,17.38-24.29,30.02-36.52,19.67-31.97,13.88-46.58-17.39-43.82l-5.73-12.68c1.42-5.42,8.05-18.94,16.12-17.19l75.97,16.47Z"/>
      <path class="cls-43" d="M2428.96,912.44c-13.47,33.55-31.11,65.54-52.93,95.97-29.71,30.15-64.15,45.44-69.48-8.2-5.65-6.66-4.48-30.14.79-39.69,5.56,4.86,12.24,9.68,18.58,9.23,8.91-.63,10.86-12.08,15.3-15.13,23.45-16.13,62.81-69.68,64.05-78.01,2.17-14.55,8.88-25.47,23-27.06l.68,62.89Z"/>
      <path class="cls-6" d="M2305.8,714.42l.33,3.47c17.73,5.29,16.17,24.56-2.31,27.07-43.79,5.41-41.8,29.94-4.68,47.03,3.74,38.56,2.04,75.68-5.08,111.37-1.38,24.73-8.54,32.35-21.47,22.86-10.74-17.7-17-38.16-18.78-61.37-1.09-50.75-2.93-101.79-5.53-153.1v-29.44c5.05,15.32,8.49,24,20.49,24.96,19.71,1.57,25.3-4.24,30.03-20.95,2.61,13.27,1.32,21.18,7,28.1Z"/>
      <path class="cls-30" d="M2306.66,806.23c-15.5-11.25-17.91-49.51-2.53-61.27,2.16-8.97,3.17-18.04,2.31-27.07,1.91-.97,5.75-2.85,7.13-4.67l40.09,5.56c15.3,2.01.25,81.3-46.99,87.46Z"/>
      <path class="cls-40" d="M2429.28,912.44l1.04,70.24c-7.86,12.37-10.12,19.24-11.36,39.98-3.97,8.13-60.56,65.59-69.32,69.75-34.17,16.21-38.7-4.43-43.2-33.45-6.26-14.73-5-42.89.43-58.76l12.81,21.7c35.49,11.06,66.35-42.05,85.77-86.76,5.65-13.02,9.18-21.41,23.82-22.71Z"/>
      <path class="cls-11" d="M2430.28,982.68l-1,82.27-.29,4.94c-7.01,11.52-17.83,21.43-32.47,29.71-24.6,35.28-52.53,51.63-83.78,49.06l-6.12-24.86c-5.76-14.8-4.09-41.14-.09-59.39-5.17-1.07-5.08-2.91-.13-5.45,5.56,1.36,5.98,16.78,9.91,20.31,19.63,17.64,37-3.15,49.65-19.43,13.57-17.46,40.22-26.02,44.62-49.21l4.14-21.85c.96-5.07,11.31-6.53,15.56-6.1Z"/>
      <path class="cls-5" d="M2429.28,1069.89l.42,60.38c-12.87,19.72-39.48,46.99-60.83,60.69-30.21,19.39-58.66,22.05-62.16-20.13-7.55-3.6-11.33-5.41-11.33-5.41,6.45-6.44,11.04-16.41,13.76-29.91-12.32,2.11-13.78-6.78-2.24-11.71l11.46,17.67c20.33-3.04,36.22-12.48,48.51-27.84,17.23-21.54,55.22-52.62,62.4-43.75Z"/>
      <path class="cls-20" d="M2429.28,1130.27l-.6,64.06c-25.59,19.57-51.93,38.12-79.03,55.65-26.47,13.93-40.86,1.32-43.17-37.83-6.52-6.99-4.02-25.1-.04-35.46-5.14-1.53-5.11-3.49-.15-5.86l15.44,22.4c66.46-4.52,73.6-64.56,107.55-62.96Z"/>
      <path class="cls-70" d="M2429.28,1194.33l.26,29.23c-25.31,29.36-50.32,58.18-91.26,63.29-13.25,1.65-25.31-.94-25.48-16.31.39-4.85-1.01-9.57-5.61-11.29-7.51-.4-2.8-11.55.01-18.02-7.35,3.15-7.4-2.65-.15-17.42-15.23-1.77-14.59-7.38.02-11.66,7.41,3.34,6.51,13.2,8.47,21.22,2.55,10.45,15.57,10.91,23.09,9.23,7.37-1.65,11.25-9.34,20.03-14.55l47.18-28.05c5.21-3.1,8.18-10.65,14.01-10.34,2.87.15,6.59,2.18,9.43,4.67Z"/>
      <path class="cls-1" d="M2429.28,1223.56l-1.15,39.26c-21.48-4.79-51.39,33.84-90.31,46.44-6.94-.12-18.14-5.92-21.72-10.5-5.21-6.66-4.17-20.66-3.56-28.22,54.38,22.81,93.72-45.92,108.04-50.34,2.38-.73,6.35,1.31,8.7,3.36Z"/>
      <path class="cls-33" d="M2307.17,1345.67l-2.36,23.35c.83,7-.57,11.64-4.21,13.92-9.93,2.16-21.07-1.48-33.43-10.91-3.45,8.79-6.73,13.45-17.75,12.5l-.75-41.77c.66-29.06,8.92-40.47,24.76-34.23,12.09,10.25,20.62,12.51,25.61,6.76-7.86-24.5-5.45-33.44,7.23-26.81l.89,57.18Z"/>
      <path class="cls-7" d="M2307.28,1259.25l-1,29.25c-6.4,6.62-7.11,17.44-6.83,26.81-10.08,3.28-15.67-1.84-16.77-15.38-13.34-7.08-19.29-4.36-17.86,8.15l-14.28,7.46c-7.15-5.94-7.72-29.85-.23-35.5.2-13.23,2.66-25.69,7.37-37.38,16.84-1.34,33.25-1.81,49.6-1.41v18.02Z"/>
      <path class="cls-91" d="M2308.03,1389.64l-1.48,16.59-.25,3.41-6.11,28.12c-17.11.2-34.18-2.08-51.24-6.81l.95-21.98,3.4-17.28c10.13-9.06,26.03-11.97,47.7-8.75l4.21-13.92,2.81,20.61Z"/>
      <path class="cls-86" d="M2306.28,559.07l.1,17.59c-11.29-12.8-26.7,15.08-56.59,2.02.36-6.84-3.02-13.8.89-19.66,21.65,14.74,40.01-10.42,55.6.06Z"/>
      <path class="cls-14" d="M2306.02,1559.05c-3.12,4.4-5.45,8.79-7.46,16.85-15.43-6.41-30.92-5.53-50.06-4.48l.73-41.83c4.83-17.52,23.84-23.34,57.05-17.47l-.26,46.93Z"/>
      <path class="cls-97" d="M2306.3,1512.12c-5.73,5.57-6.56,12.63-7.25,24.33-13.18-16.47-33.9-16.04-49.8-6.86l-.97-11.31.36-22.65,6.07-21.51c16.57-2.26,32.84-4.54,48.79-6.85,5.59,14.53,2.87,29.71,2.79,44.85Z"/>
      <path class="cls-25" d="M2307.41,1453.39l-3.26,13.87-4.52,28.69c-7.11-10.44-13.11-14.12-24.24-14.32s-21.03,2.7-26.11,13.99v-29.49c1.48-23.97,19.91-31.39,55.29-22.27.31,2.54,1.22,7.61,2.84,9.52Z"/>
      <path class="cls-12" d="M2299.45,1315.3c.35,11.52,5.34,23.76-1.84,39.58-4.24-22.33-18.58-37.79-42.02-37.25-.32,12.07-2.36,19.08-6.51,25.13l-.41-7.01c-5.49-4.48-4.74-16.39,1.87-20.22,3.71-9.71,4.89-19.21,3.72-33.07,14.05,1.9,27.19,2.46,37.97,9.45l7.23,23.39Z"/>
      <path class="cls-23" d="M2304.27,1443.88c-3.29,6.06-3.91,11.19-5.1,22.61-7.34-9.69-13.48-13.72-24.02-13.94-10.93-.23-21.1,2.61-26.87,13.6l1-12.62v-22.58l7.12-10.18,42.17,7.39,7.74-18.51c-.83,11.31,1.1,23.13-2.03,34.23Z"/>
      <path class="cls-34" d="M2301.01,1382.94c-2.19,7.23,1.05,16.17-2.53,24.1-9.34-11.97-18.07-13.1-29.33-12.99-8.65.08-16.8,3.86-19.25,14.91.32-7.51-2.72-16.97-.07-24.43,2.54-7.18,6.45-13.32,5.86-29.13,17.19,5.71,35.26,11.37,45.32,27.54Z"/>
      <path class="cls-33" d="M2248.11,1217.55c5.41,6.26,2.95,20.55-.04,29.43l11.91,4.13c-7.58,5.17-10.96,14.65-10.14,28.43-3.26,11.35-1.61,23.83.23,35.5-2.32,6.07-2.25,13.81-1.87,20.22l-5.92.03v-5.89c-5.81-19.56-4.58-48.96,0-70.65v-82.42c1.61-5.16,3.59-5.12,5.92-.08,6.35,8.24,4.18,30.47-.1,41.29Z"/>
      <path class="cls-47" d="M2242.28,1330.26h-6s.36-48.11.36-48.11c.06-7.96-1.57-17.7,5.64-22.53v70.65Z"/>
      <path class="cls-93" d="M2248.11,1088.91c6.52,20.69,4.41,48.22.68,71.09,14.98,3.39,13.46,11.55-.58,17.27l-5.93.08v-17.69s0-117.92,0-117.92v-29.48s5.69,0,5.69,0c7.07,20.29,4.26,54.12.13,76.64Z"/>
      <path class="cls-3" d="M2253.52,864.85l9.84,46.37c5.58,33.68,1.22,61.25-13.08,82.71l-1.8-282.17c3.31.58,5.84,5.14,5.8,11.45l-.76,141.65Z"/>
      <path class="cls-79" d="M2294.08,903.36c2.28,18.56,4.5,39.06,6.66,61.51,5.34,11.68,4.46,98.63-3.42,99.76-9.18,1.32-13.73-9.1-14.24-18.33-7.01-49.49-21.75-9.31-17.19,22.53l-11.91,7.66c14.4,2.51,14.3,7.44.16,12.01-1.66,5.14-3.62,5.07-5.86,0l-.13-76.53,2.13-18.07c4.96-42.15,3.3-85.94,3.55-129.07,8.52,18.85,13.89,37.42,28.58,56.67,8.24-6.17,8.91-13,11.67-18.15Z"/>
      <path class="cls-8" d="M2307.28,960.52l-1,39.69v58.76l.46,5.45c-3.22,72.56-11.64,83.62-25.26,33.16-13.12-4.59-22.19-11.61-27.22-21.08l2.58-83.61c11.5,15.98,21.34,26.46,37.71,21.74,1.27,15.27-2.93,30.25,4.69,45.16l1.79-94.92c-4.67-9.76-4.93-76.13-1.7-78.69,1.2-.95,4.11.29,7.96,2.17v72.17Z"/>
      <path class="cls-74" d="M2303.81,745.35c4.03,19.44,2.39,39.95,2.47,59.81v83.19l-5,11.23.29,65.49c-3.8-.5-6.22-5.25-6.29-11.68l-1-50.02-.74-102.87c-.06-8.01-21.95-9.75-27.57-10.11-3.3-14.59-7.59-32.98-.3-44.89l22.56-8.13c5.92-2.13,6.93-13.52,9.74-20.22l5.85,28.21Z"/>
      <path class="cls-22" d="M2306.36,1123.76l2.22,11.64c-4.23,9.55-6.78,20.18-7.64,31.91-10.87-.43-18.3-8.36-22.31-23.8-15.34-2.39-20.73-9.18-23.36-24.48-5.85-3.42-4.95-22.92-1-30.34l-.16-11.94c10.77-.57,21.85,4.06,30.14,8.78,13.43,7.63,10,22.61,12.62,38.66,10.28-17.84-4.1-46.19,9.41-59.45l.08,59.03Z"/>
      <path class="cls-96" d="M2308.77,1135.52l-2.44,35.31.15,5.86-3.23,11.94c3.16,29.55-3.21,36.59-19.1,21.1.54-20.46-17.52-29.61-17.85-8.67l-12.02,10.95c4.94,2.16,4.7,4.18-.49,6.09-1.27,5.18-3.13,5.01-5.51-.06l.1-41.29c.01-4.68-1.79-13.11.58-17.24,1.06-14.75,3.12-28.23,6.19-40.46,9.65,8.21,19.95,12.49,36.03,15.26,2.47,9.7.94,18.49,9.07,26.83l1.47-20.78c.18-2.5,3.2-5.15,7.06-4.84Z"/>
      <path class="cls-93" d="M2307.28,1176.69v47.12c-2.98,25.29-13.14,26.7-30.95,4.24-11.39-1.61-18.64-6.96-21.75-16.04.91-11.15-.62-22.7,2.35-32.72,14.5-.42,24.38-3.27,37.3,5.1-.45,10.05-2.43,21.13,6,28.24.19-15.21-3.24-28.87,7.04-35.95Z"/>
      <path class="cls-55" d="M2307.28,1223.81l.15,17.42c-8.1,6.34-9.1,17.1-8.12,30.6-6.45-16.58-18.7-23.12-40.87-18.4l-7.63,26.6-1.78-32.56c1.66-10.45,3.51-20.24,5.55-29.37l.49-6.09c18.54.15,36.96,5.22,43.38,25.43l8.83-13.64Z"/>
      <path class="cls-93" d="M2248.28,1247.7l.04-29.43,5.51.06c-.79,9.71,2.77,22.55-5.55,29.37Z"/>
      <path class="cls-8" d="M2255.47,1118.79c.46,14.02.74,28.37-6.19,40.46l-.68-70.98h5.86s1.01,30.52,1.01,30.52Z"/>
    </g>
    <path class="cls-10" d="M3031.24,2264.96c-123.9,106.29-446.41,20.54-569.6-24.23-60.21-21.88-137.57-81.13-162.18-148.22-34.29-93.47-24.03-212.75-21.84-310.83,3.03-135.41-4.41-253.68,0-390.64"/>
  </g>
  <g>
    <polygon class="cls-38" points="4977.71 2380.06 4892.79 2356.65 4329.85 1097.21 4441.67 1048.27 4977.71 2380.06"/>
    <polygon class="cls-49" points="3733.17 2400.11 3606.2 2343.23 4269.66 1038.88 4363.36 1033.3 3733.17 2400.11"/>
    <polygon class="cls-13" points="5052.22 2364.68 4954.29 2308.24 5616.03 546.62 5720.52 488.92 5052.22 2364.68"/>
    <polygon class="cls-62" points="3658.48 2413.48 3586.39 2409.57 3113.98 1142.35 3235.5 1058.38 3658.48 2413.48"/>
  </g>
  <g>
    <polygon class="cls-82" points="266.67 1619.23 77.34 1623.47 77.34 77.71 274.34 77.71 266.67 1619.23"/>
    <g>
      <path class="cls-10" d="M885.88,2319.31c-164.69,2.08-341.74-22.87-486.31-153.2-95.61-86.19-176.58-181.6-208.69-318.63-29.54-126.05-22.09-259.48,20.24-381.12,43.17-124.04,119.89-234.1,217.38-317.2,27.92-23.8,58.24-44.32,87.28-66.6,29.51-22.63,59.87-31.19,92.6-47.72,70.39-35.54,145.98-61.65,223.96-69.82,18.41-1.93,36.91-2.84,55.42-2.64"/>
      <path class="cls-10" d="M861.28,962.47c164.69-2.08,341.74,22.87,486.31,153.2,95.61,86.19,176.58,181.6,208.69,318.63,29.54,126.05,22.09,259.48-20.24,381.12-43.17,124.04-119.89,234.1-217.38,317.2-27.92,23.8-58.24,44.32-87.28,66.6-29.51,22.63-59.87,31.19-92.6,47.72-70.39,35.54-145.98,61.65-223.96,69.82-18.41,1.93-36.91,2.84-55.42,2.64"/>
    </g>
  </g>
</svg>